<svg width="904" height="1092" viewBox="0 0 904 1092" fill="none" xmlns="http://www.w3.org/2000/svg">
<rect x="630.044" width="21" height="21" fill="#FFDC00"/>
<rect x="609.044" y="21" width="21" height="21" fill="#FFDE00"/>
<rect x="630.044" y="21" width="21" height="21" fill="#FFDE00"/>
<rect x="651.044" y="21" width="21" height="21" fill="#FFDE00"/>
<rect x="672.044" y="21" width="21" height="21" fill="#FFDE00"/>
<rect x="567.044" y="42" width="21" height="21" fill="#FFDE00"/>
<rect x="588.044" y="42" width="21" height="21" fill="#FFDE00"/>
<rect x="609.044" y="42" width="21" height="21" fill="#FFDE00"/>
<rect x="630.044" y="42" width="21" height="21" fill="#FFDE00"/>
<rect x="651.044" y="42" width="21" height="21" fill="#FFDE00"/>
<rect x="672.044" y="42" width="21" height="21" fill="#FFDE00"/>
<rect x="693.044" y="42" width="21" height="21" fill="#FFDE00"/>
<rect x="546.044" y="63" width="21" height="21" fill="#FFDE00"/>
<rect x="567.044" y="63" width="21" height="21" fill="#FFDE00"/>
<rect x="588.044" y="63" width="21" height="21" fill="#FFDE00"/>
<rect x="609.044" y="63" width="21" height="21" fill="#FFDE00"/>
<rect x="630.044" y="63" width="21" height="21" fill="#FFDE00"/>
<rect x="651.044" y="63" width="21" height="21" fill="#FFDE00"/>
<rect x="672.044" y="63" width="21" height="21" fill="#FFDE00"/>
<rect x="693.044" y="63" width="21" height="21" fill="#FFDE00"/>
<rect x="525.044" y="84" width="21" height="21" fill="#FFDE00"/>
<rect x="546.044" y="84" width="21" height="21" fill="#FFDE00"/>
<rect x="567.044" y="84" width="21" height="21" fill="#FFDE00"/>
<rect x="588.044" y="84" width="21" height="21" fill="#FFDE00"/>
<rect x="609.044" y="84" width="21" height="21" fill="#FFDF00"/>
<rect x="651.044" y="84" width="21" height="21" fill="#FFDE00"/>
<rect x="672.044" y="84" width="21" height="21" fill="#FFDE00"/>
<rect x="693.044" y="84" width="21" height="21" fill="#FFDE00"/>
<rect x="504.044" y="105" width="21" height="21" fill="#FFDE00"/>
<rect x="525.044" y="105" width="21" height="21" fill="#FFDE00"/>
<rect x="546.044" y="105" width="21" height="21" fill="#FFDE00"/>
<rect x="567.044" y="105" width="21" height="21" fill="#FFDE00"/>
<rect x="630.044" y="105" width="21" height="21" fill="#FFDE00"/>
<rect x="651.044" y="105" width="21" height="21" fill="#FFDE00"/>
<rect x="672.044" y="105" width="21" height="21" fill="#FFDE00"/>
<rect x="483.044" y="126" width="21" height="21" fill="#FFDE00"/>
<rect x="504.044" y="126" width="21" height="21" fill="#FFDE00"/>
<rect x="525.044" y="126" width="21" height="21" fill="#FFDE00"/>
<rect x="546.044" y="126" width="21" height="21" fill="#FFDE00"/>
<rect x="630.044" y="126" width="21" height="21" fill="#FFDE00"/>
<rect x="651.044" y="126" width="21" height="21" fill="#FFDE00"/>
<rect x="672.044" y="126" width="21" height="21" fill="#FFDE00"/>
<rect x="441.044" y="147" width="21" height="21" fill="#FFDE00"/>
<rect x="462.044" y="147" width="21" height="21" fill="#FFDE00"/>
<rect x="483.044" y="147" width="21" height="21" fill="#FFDE00"/>
<rect x="504.044" y="147" width="21" height="21" fill="#FFDE00"/>
<rect x="525.044" y="147" width="21" height="21" fill="#FFDE00"/>
<rect x="630.044" y="147" width="21" height="21" fill="#FFDE00"/>
<rect x="651.044" y="147" width="21" height="21" fill="#FFDE00"/>
<rect x="672.044" y="147" width="21" height="21" fill="#FFDE00"/>
<rect x="420.044" y="168" width="21" height="21" fill="#FFDE00"/>
<rect x="441.044" y="168" width="21" height="21" fill="#FFDE00"/>
<rect x="462.044" y="168" width="21" height="21" fill="#FFDE00"/>
<rect x="483.044" y="168" width="21" height="21" fill="#FFDE00"/>
<rect x="504.044" y="168" width="21" height="21" fill="#FFDE00"/>
<rect x="609.044" y="168" width="21" height="21" fill="#FFDE00"/>
<rect x="630.044" y="168" width="21" height="21" fill="#FFDE00"/>
<rect x="651.044" y="168" width="21" height="21" fill="#FFDE00"/>
<rect x="399.044" y="189" width="21" height="21" fill="#FFDE00"/>
<rect x="420.044" y="189" width="21" height="21" fill="#FFDE00"/>
<rect x="441.044" y="189" width="21" height="21" fill="#FFDE00"/>
<rect x="462.044" y="189" width="21" height="21" fill="#FFDE00"/>
<rect x="483.044" y="189" width="21" height="21" fill="#FFDF00"/>
<rect x="609.044" y="189" width="21" height="21" fill="#FFDE00"/>
<rect x="630.044" y="189" width="21" height="21" fill="#FFDE00"/>
<rect x="651.044" y="189" width="21" height="21" fill="#FFDE00"/>
<rect x="378.044" y="210" width="21" height="21" fill="#FFDE00"/>
<rect x="399.044" y="210" width="21" height="21" fill="#FFDE00"/>
<rect x="420.044" y="210" width="21" height="21" fill="#FFDE00"/>
<rect x="441.044" y="210" width="21" height="21" fill="#FFDE00"/>
<rect x="588.044" y="210" width="21" height="21" fill="#FFDE00"/>
<rect x="609.044" y="210" width="21" height="21" fill="#FFDE00"/>
<rect x="630.044" y="210" width="21" height="21" fill="#FFDE00"/>
<rect x="357.044" y="231" width="21" height="21" fill="#FFDE00"/>
<rect x="378.044" y="231" width="21" height="21" fill="#FFDE00"/>
<rect x="399.044" y="231" width="21" height="21" fill="#FFDE00"/>
<rect x="420.044" y="231" width="21" height="21" fill="#FFDE00"/>
<rect x="588.044" y="231" width="21" height="21" fill="#FFDE00"/>
<rect x="609.044" y="231" width="21" height="21" fill="#FFDE00"/>
<rect x="630.044" y="231" width="21" height="21" fill="#FFDE00"/>
<rect x="315.044" y="252" width="21" height="21" fill="#FFDE00"/>
<rect x="336.044" y="252" width="21" height="21" fill="#FFDE00"/>
<rect x="357.044" y="252" width="21" height="21" fill="#FFDE00"/>
<rect x="378.044" y="252" width="21" height="21" fill="#FFDE00"/>
<rect x="399.044" y="252" width="21" height="21" fill="#FFDE00"/>
<rect x="588.044" y="252" width="21" height="21" fill="#FFDE00"/>
<rect x="609.044" y="252" width="21" height="21" fill="#FFDE00"/>
<rect x="630.044" y="252" width="21" height="21" fill="#FFDE00"/>
<rect x="294.044" y="273" width="21" height="21" fill="#FFDE00"/>
<rect x="315.044" y="273" width="21" height="21" fill="#FFDE00"/>
<rect x="336.044" y="273" width="21" height="21" fill="#FFDE00"/>
<rect x="357.044" y="273" width="21" height="21" fill="#FFDE00"/>
<rect x="378.044" y="273" width="21" height="21" fill="#FFDE00"/>
<rect x="567.044" y="273" width="21" height="21" fill="#FFDE00"/>
<rect x="588.044" y="273" width="21" height="21" fill="#FFDE00"/>
<rect x="609.044" y="273" width="21" height="21" fill="#FFDE00"/>
<rect x="273.044" y="294" width="21" height="21" fill="#FFDE00"/>
<rect x="294.044" y="294" width="21" height="21" fill="#FFDE00"/>
<rect x="315.044" y="294" width="21" height="21" fill="#FFDE00"/>
<rect x="336.044" y="294" width="21" height="21" fill="#FFDE00"/>
<rect x="357.044" y="294" width="21" height="21" fill="#FFDF00"/>
<rect x="567.044" y="294" width="21" height="21" fill="#FFDE00"/>
<rect x="588.044" y="294" width="21" height="21" fill="#FFDE00"/>
<rect x="609.044" y="294" width="21" height="21" fill="#FFDE00"/>
<rect x="252.044" y="315" width="21" height="21" fill="#FFDE00"/>
<rect x="273.044" y="315" width="21" height="21" fill="#FFDE00"/>
<rect x="294.044" y="315" width="21" height="21" fill="#FFDE00"/>
<rect x="315.044" y="315" width="21" height="21" fill="#FFDE00"/>
<rect x="546.044" y="315" width="21" height="21" fill="#FFDE00"/>
<rect x="567.044" y="315" width="21" height="21" fill="#FFDE00"/>
<rect x="588.044" y="315" width="21" height="21" fill="#FFDE00"/>
<rect x="231.044" y="336" width="21" height="21" fill="#FFDE00"/>
<rect x="252.044" y="336" width="21" height="21" fill="#FFDE00"/>
<rect x="273.044" y="336" width="21" height="21" fill="#FFDE00"/>
<rect x="294.044" y="336" width="21" height="21" fill="#FFDE00"/>
<rect x="546.044" y="336" width="21" height="21" fill="#FFDE00"/>
<rect x="567.044" y="336" width="21" height="21" fill="#FFDE00"/>
<rect x="588.044" y="336" width="21" height="21" fill="#FFDE00"/>
<rect x="189.044" y="357" width="21" height="21" fill="#FFDE00"/>
<rect x="210.044" y="357" width="21" height="21" fill="#FFDE00"/>
<rect x="231.044" y="357" width="21" height="21" fill="#FFDE00"/>
<rect x="252.044" y="357" width="21" height="21" fill="#FFDE00"/>
<rect x="273.044" y="357" width="21" height="21" fill="#FFDE00"/>
<rect x="546.044" y="357" width="21" height="21" fill="#FFDE00"/>
<rect x="567.044" y="357" width="21" height="21" fill="#FFDE00"/>
<rect x="588.044" y="357" width="21" height="21" fill="#FFDE00"/>
<rect x="168.044" y="378" width="21" height="21" fill="#FFDE00"/>
<rect x="189.044" y="378" width="21" height="21" fill="#FFDE00"/>
<rect x="210.044" y="378" width="21" height="21" fill="#FFDE00"/>
<rect x="231.044" y="378" width="21" height="21" fill="#FFDE00"/>
<rect x="252.044" y="378" width="21" height="21" fill="#FFDE00"/>
<rect x="525.044" y="378" width="21" height="21" fill="#FFDE00"/>
<rect x="546.044" y="378" width="21" height="21" fill="#FFDE00"/>
<rect x="567.044" y="378" width="21" height="21" fill="#FFDE00"/>
<rect x="147.044" y="399" width="21" height="21" fill="#FFDE00"/>
<rect x="168.044" y="399" width="21" height="21" fill="#FFDE00"/>
<rect x="189.044" y="399" width="21" height="21" fill="#FFDE00"/>
<rect x="210.044" y="399" width="21" height="21" fill="#FFDE00"/>
<rect x="231.044" y="399" width="21" height="21" fill="#FFDF00"/>
<rect x="525.044" y="399" width="21" height="21" fill="#FFDE00"/>
<rect x="546.044" y="399" width="21" height="21" fill="#FFDE00"/>
<rect x="567.044" y="399" width="21" height="21" fill="#FFDE00"/>
<rect x="126.044" y="420" width="21" height="21" fill="#FFDE00"/>
<rect x="147.044" y="420" width="21" height="21" fill="#FFDE00"/>
<rect x="168.044" y="420" width="21" height="21" fill="#FFDE00"/>
<rect x="189.044" y="420" width="21" height="21" fill="#FFDE00"/>
<rect x="504.044" y="420" width="21" height="21" fill="#FFDE00"/>
<rect x="525.044" y="420" width="21" height="21" fill="#FFDE00"/>
<rect x="546.044" y="420" width="21" height="21" fill="#FFDE00"/>
<rect x="105.044" y="441" width="21" height="21" fill="#FFDE00"/>
<rect x="126.044" y="441" width="21" height="21" fill="#FFDE00"/>
<rect x="147.044" y="441" width="21" height="21" fill="#FFDE00"/>
<rect x="168.044" y="441" width="21" height="21" fill="#FFDE00"/>
<rect x="504.044" y="441" width="21" height="21" fill="#FFDE00"/>
<rect x="525.044" y="441" width="21" height="21" fill="#FFDE00"/>
<rect x="546.044" y="441" width="21" height="21" fill="#FFDE00"/>
<rect x="63.0437" y="462" width="21" height="21" fill="#FFDE00"/>
<rect x="84.0437" y="462" width="21" height="21" fill="#FFDE00"/>
<rect x="105.044" y="462" width="21" height="21" fill="#FFDE00"/>
<rect x="126.044" y="462" width="21" height="21" fill="#FFDE00"/>
<rect x="147.044" y="462" width="21" height="21" fill="#FFDE00"/>
<rect x="504.044" y="462" width="21" height="21" fill="#FFDE00"/>
<rect x="525.044" y="462" width="21" height="21" fill="#FFDE00"/>
<rect x="546.044" y="462" width="21" height="21" fill="#FFDE00"/>
<rect x="42.0437" y="483" width="21" height="21" fill="#FFDE00"/>
<rect x="63.0437" y="483" width="21" height="21" fill="#FFDE00"/>
<rect x="84.0437" y="483" width="21" height="21" fill="#FFDE00"/>
<rect x="105.044" y="483" width="21" height="21" fill="#FFDE00"/>
<rect x="126.044" y="483" width="21" height="21" fill="#FFDE00"/>
<rect x="483.044" y="483" width="21" height="21" fill="#FFDE00"/>
<rect x="504.044" y="483" width="21" height="21" fill="#FFDE00"/>
<rect x="525.044" y="483" width="21" height="21" fill="#FFDE00"/>
<rect x="546.044" y="483" width="21" height="21" fill="#FFDE00"/>
<rect x="567.044" y="483" width="21" height="21" fill="#FFDE00"/>
<rect x="588.044" y="483" width="21" height="21" fill="#FFDE00"/>
<rect x="609.044" y="483" width="21" height="21" fill="#FFDE00"/>
<rect x="630.044" y="483" width="21" height="21" fill="#FFDE00"/>
<rect x="651.044" y="483" width="21" height="21" fill="#FFDE00"/>
<rect x="672.044" y="483" width="21" height="21" fill="#FFDE00"/>
<rect x="693.044" y="483" width="21" height="21" fill="#FFDE00"/>
<rect x="714.044" y="483" width="21" height="21" fill="#FFDE00"/>
<rect x="735.044" y="483" width="21" height="21" fill="#FFDE00"/>
<rect x="756.044" y="483" width="21" height="21" fill="#FFDE00"/>
<rect x="777.044" y="483" width="21" height="21" fill="#FFDE00"/>
<rect x="798.044" y="483" width="21" height="21" fill="#FFDE00"/>
<rect x="819.044" y="483" width="21" height="21" fill="#FFDE00"/>
<rect x="840.044" y="483" width="21" height="21" fill="#FFDE00"/>
<rect x="21.0437" y="504" width="21" height="21" fill="#FFDE00"/>
<rect x="42.0437" y="504" width="21" height="21" fill="#FFDE00"/>
<rect x="63.0437" y="504" width="21" height="21" fill="#FFDE00"/>
<rect x="84.0437" y="504" width="21" height="21" fill="#FFDE00"/>
<rect x="105.044" y="504" width="21" height="21" fill="#FFDF00"/>
<rect x="483.044" y="504" width="21" height="21" fill="#FFDE00"/>
<rect x="504.044" y="504" width="21" height="21" fill="#FFDE00"/>
<rect x="525.044" y="504" width="21" height="21" fill="#FFDE00"/>
<rect x="546.044" y="504" width="21" height="21" fill="#FFDE00"/>
<rect x="567.044" y="504" width="21" height="21" fill="#FFDE00"/>
<rect x="588.044" y="504" width="21" height="21" fill="#FFDE00"/>
<rect x="609.044" y="504" width="21" height="21" fill="#FFDE00"/>
<rect x="630.044" y="504" width="21" height="21" fill="#FFDE00"/>
<rect x="651.044" y="504" width="21" height="21" fill="#FFDE00"/>
<rect x="672.044" y="504" width="21" height="21" fill="#FFDE00"/>
<rect x="693.044" y="504" width="21" height="21" fill="#FFDE00"/>
<rect x="714.044" y="504" width="21" height="21" fill="#FFDE00"/>
<rect x="735.044" y="504" width="21" height="21" fill="#FFDE00"/>
<rect x="756.044" y="504" width="21" height="21" fill="#FFDE00"/>
<rect x="777.044" y="504" width="21" height="21" fill="#FFDE00"/>
<rect x="798.044" y="504" width="21" height="21" fill="#FFDE00"/>
<rect x="819.044" y="504" width="21" height="21" fill="#FFDE00"/>
<rect x="840.044" y="504" width="21" height="21" fill="#FFDE00"/>
<rect x="861.044" y="504" width="21" height="21" fill="#FFDE00"/>
<rect x="882.044" y="504" width="21" height="21" fill="#FFDD00"/>
<rect x="21.0437" y="525" width="21" height="21" fill="#FFDE00"/>
<rect x="42.0437" y="525" width="21" height="21" fill="#FFDE00"/>
<rect x="63.0437" y="525" width="21" height="21" fill="#FFDE00"/>
<rect x="462.044" y="525" width="21" height="21" fill="#FFDE00"/>
<rect x="483.044" y="525" width="21" height="21" fill="#FFDE00"/>
<rect x="504.044" y="525" width="21" height="21" fill="#FFDE00"/>
<rect x="525.044" y="525" width="21" height="21" fill="#FFDE00"/>
<rect x="546.044" y="525" width="21" height="21" fill="#FFDE00"/>
<rect x="567.044" y="525" width="21" height="21" fill="#FFDE00"/>
<rect x="588.044" y="525" width="21" height="21" fill="#FFDE00"/>
<rect x="609.044" y="525" width="21" height="21" fill="#FFDE00"/>
<rect x="630.044" y="525" width="21" height="21" fill="#FFDE00"/>
<rect x="651.044" y="525" width="21" height="21" fill="#FFDE00"/>
<rect x="672.044" y="525" width="21" height="21" fill="#FFDE00"/>
<rect x="693.044" y="525" width="21" height="21" fill="#FFDE00"/>
<rect x="714.044" y="525" width="21" height="21" fill="#FFDE00"/>
<rect x="735.044" y="525" width="21" height="21" fill="#FFDE00"/>
<rect x="756.044" y="525" width="21" height="21" fill="#FFDE00"/>
<rect x="777.044" y="525" width="21" height="21" fill="#FFDE00"/>
<rect x="798.044" y="525" width="21" height="21" fill="#FFDE00"/>
<rect x="819.044" y="525" width="21" height="21" fill="#FFDE00"/>
<rect x="840.044" y="525" width="21" height="21" fill="#FFDE00"/>
<rect x="861.044" y="525" width="21" height="21" fill="#FFDE00"/>
<rect x="882.044" y="525" width="21" height="21" fill="#FFDE00"/>
<rect x="0.0437012" y="546" width="21" height="21" fill="#FFDE00"/>
<rect x="21.0437" y="546" width="21" height="21" fill="#FFDE00"/>
<rect x="42.0437" y="546" width="21" height="21" fill="#FFDE00"/>
<rect x="840.044" y="546" width="21" height="21" fill="#FFDE00"/>
<rect x="861.044" y="546" width="21" height="21" fill="#FFDE00"/>
<rect x="882.044" y="546" width="21" height="21" fill="#FFDE00"/>
<rect x="21.0437" y="567" width="21" height="21" fill="#FFDE00"/>
<rect x="42.0437" y="567" width="21" height="21" fill="#FFDE00"/>
<rect x="63.0437" y="567" width="21" height="21" fill="#FFDE00"/>
<rect x="84.0437" y="567" width="21" height="21" fill="#FFDE00"/>
<rect x="105.044" y="567" width="21" height="21" fill="#FFDE00"/>
<rect x="126.044" y="567" width="21" height="21" fill="#FFDE00"/>
<rect x="147.044" y="567" width="21" height="21" fill="#FFDE00"/>
<rect x="168.044" y="567" width="21" height="21" fill="#FFDE00"/>
<rect x="189.044" y="567" width="21" height="21" fill="#FFDE00"/>
<rect x="210.044" y="567" width="21" height="21" fill="#FFDE00"/>
<rect x="231.044" y="567" width="21" height="21" fill="#FFDE00"/>
<rect x="252.044" y="567" width="21" height="21" fill="#FFDE00"/>
<rect x="273.044" y="567" width="21" height="21" fill="#FFDE00"/>
<rect x="294.044" y="567" width="21" height="21" fill="#FFDE00"/>
<rect x="315.044" y="567" width="21" height="21" fill="#FFDE00"/>
<rect x="336.044" y="567" width="21" height="21" fill="#FFDE00"/>
<rect x="357.044" y="567" width="21" height="21" fill="#FFDE00"/>
<rect x="378.044" y="567" width="21" height="21" fill="#FFDE00"/>
<rect x="399.044" y="567" width="21" height="21" fill="#FFDE00"/>
<rect x="420.044" y="567" width="21" height="21" fill="#FFDE00"/>
<rect x="819.044" y="567" width="21" height="21" fill="#FFDE00"/>
<rect x="840.044" y="567" width="21" height="21" fill="#FFDE00"/>
<rect x="861.044" y="567" width="21" height="21" fill="#FFDE00"/>
<rect x="882.044" y="567" width="21" height="21" fill="#FFDE00"/>
<rect x="21.0437" y="588" width="21" height="21" fill="#FFDE00"/>
<rect x="42.0437" y="588" width="21" height="21" fill="#FFDE00"/>
<rect x="63.0437" y="588" width="21" height="21" fill="#FFDE00"/>
<rect x="84.0437" y="588" width="21" height="21" fill="#FFDE00"/>
<rect x="105.044" y="588" width="21" height="21" fill="#FFDE00"/>
<rect x="126.044" y="588" width="21" height="21" fill="#FFDE00"/>
<rect x="147.044" y="588" width="21" height="21" fill="#FFDE00"/>
<rect x="168.044" y="588" width="21" height="21" fill="#FFDE00"/>
<rect x="189.044" y="588" width="21" height="21" fill="#FFDE00"/>
<rect x="210.044" y="588" width="21" height="21" fill="#FFDE00"/>
<rect x="231.044" y="588" width="21" height="21" fill="#FFDE00"/>
<rect x="252.044" y="588" width="21" height="21" fill="#FFDE00"/>
<rect x="273.044" y="588" width="21" height="21" fill="#FFDE00"/>
<rect x="294.044" y="588" width="21" height="21" fill="#FFDE00"/>
<rect x="315.044" y="588" width="21" height="21" fill="#FFDE00"/>
<rect x="336.044" y="588" width="21" height="21" fill="#FFDE00"/>
<rect x="357.044" y="588" width="21" height="21" fill="#FFDE00"/>
<rect x="378.044" y="588" width="21" height="21" fill="#FFDE00"/>
<rect x="399.044" y="588" width="21" height="21" fill="#FFDE00"/>
<rect x="420.044" y="588" width="21" height="21" fill="#FFDE00"/>
<rect x="798.044" y="588" width="21" height="21" fill="#FFDE00"/>
<rect x="819.044" y="588" width="21" height="21" fill="#FFDE00"/>
<rect x="840.044" y="588" width="21" height="21" fill="#FFDE00"/>
<rect x="861.044" y="588" width="21" height="21" fill="#FFDE00"/>
<rect x="357.044" y="609" width="21" height="21" fill="#FFDE00"/>
<rect x="378.044" y="609" width="21" height="21" fill="#FFDE00"/>
<rect x="399.044" y="609" width="21" height="21" fill="#FFDE00"/>
<rect x="777.044" y="609" width="21" height="21" fill="#FFDE00"/>
<rect x="798.044" y="609" width="21" height="21" fill="#FFDE00"/>
<rect x="819.044" y="609" width="21" height="21" fill="#FFDE00"/>
<rect x="840.044" y="609" width="21" height="21" fill="#FFDE00"/>
<rect x="357.044" y="630" width="21" height="21" fill="#FFDE00"/>
<rect x="378.044" y="630" width="21" height="21" fill="#FFDE00"/>
<rect x="399.044" y="630" width="21" height="21" fill="#FFDE00"/>
<rect x="735.044" y="630" width="21" height="21" fill="#FFDE00"/>
<rect x="756.044" y="630" width="21" height="21" fill="#FFDE00"/>
<rect x="777.044" y="630" width="21" height="21" fill="#FFDE00"/>
<rect x="798.044" y="630" width="21" height="21" fill="#FFDE00"/>
<rect x="819.044" y="630" width="21" height="21" fill="#FFDE00"/>
<rect x="336.044" y="651" width="21" height="21" fill="#FFDE00"/>
<rect x="357.044" y="651" width="21" height="21" fill="#FFDE00"/>
<rect x="378.044" y="651" width="21" height="21" fill="#FFDE00"/>
<rect x="399.044" y="651" width="21" height="21" fill="#FFDE00"/>
<rect x="714.044" y="651" width="21" height="21" fill="#FFDE00"/>
<rect x="735.044" y="651" width="21" height="21" fill="#FFDE00"/>
<rect x="756.044" y="651" width="21" height="21" fill="#FFDE00"/>
<rect x="777.044" y="651" width="21" height="21" fill="#FFDE00"/>
<rect x="798.044" y="651" width="21" height="21" fill="#FFDE00"/>
<rect x="336.044" y="672" width="21" height="21" fill="#FFDE00"/>
<rect x="357.044" y="672" width="21" height="21" fill="#FFDE00"/>
<rect x="378.044" y="672" width="21" height="21" fill="#FFDE00"/>
<rect x="693.044" y="672" width="21" height="21" fill="#FFDE00"/>
<rect x="714.044" y="672" width="21" height="21" fill="#FFDE00"/>
<rect x="735.044" y="672" width="21" height="21" fill="#FFDE00"/>
<rect x="756.044" y="672" width="21" height="21" fill="#FFDE00"/>
<rect x="777.044" y="672" width="21" height="21" fill="#FFDE00"/>
<rect x="336.044" y="693" width="21" height="21" fill="#FFDE00"/>
<rect x="357.044" y="693" width="21" height="21" fill="#FFDE00"/>
<rect x="378.044" y="693" width="21" height="21" fill="#FFDE00"/>
<rect x="672.044" y="693" width="21" height="21" fill="#FFDE00"/>
<rect x="693.044" y="693" width="21" height="21" fill="#FFDE00"/>
<rect x="714.044" y="693" width="21" height="21" fill="#FFDE00"/>
<rect x="735.044" y="693" width="21" height="21" fill="#FFDE00"/>
<rect x="315.044" y="714" width="21" height="21" fill="#FFDE00"/>
<rect x="336.044" y="714" width="21" height="21" fill="#FFDE00"/>
<rect x="357.044" y="714" width="21" height="21" fill="#FFDE00"/>
<rect x="651.044" y="714" width="21" height="21" fill="#FFDE00"/>
<rect x="672.044" y="714" width="21" height="21" fill="#FFDE00"/>
<rect x="693.044" y="714" width="21" height="21" fill="#FFDE00"/>
<rect x="714.044" y="714" width="21" height="21" fill="#FFDE00"/>
<rect x="315.044" y="735" width="21" height="21" fill="#FFDE00"/>
<rect x="336.044" y="735" width="21" height="21" fill="#FFDE00"/>
<rect x="357.044" y="735" width="21" height="21" fill="#FFDE00"/>
<rect x="609.044" y="735" width="21" height="21" fill="#FFDE00"/>
<rect x="630.044" y="735" width="21" height="21" fill="#FFDE00"/>
<rect x="651.044" y="735" width="21" height="21" fill="#FFDE00"/>
<rect x="672.044" y="735" width="21" height="21" fill="#FFDE00"/>
<rect x="693.044" y="735" width="21" height="21" fill="#FFDE00"/>
<rect x="294.044" y="756" width="21" height="21" fill="#FFDE00"/>
<rect x="315.044" y="756" width="21" height="21" fill="#FFDE00"/>
<rect x="336.044" y="756" width="21" height="21" fill="#FFDE00"/>
<rect x="357.044" y="756" width="21" height="21" fill="#FFDE00"/>
<rect x="588.044" y="756" width="21" height="21" fill="#FFDE00"/>
<rect x="609.044" y="756" width="21" height="21" fill="#FFDE00"/>
<rect x="630.044" y="756" width="21" height="21" fill="#FFDE00"/>
<rect x="651.044" y="756" width="21" height="21" fill="#FFDE00"/>
<rect x="672.044" y="756" width="21" height="21" fill="#FFDE00"/>
<rect x="294.044" y="777" width="21" height="21" fill="#FFDE00"/>
<rect x="315.044" y="777" width="21" height="21" fill="#FFDE00"/>
<rect x="336.044" y="777" width="21" height="21" fill="#FFDE00"/>
<rect x="567.044" y="777" width="21" height="21" fill="#FFDE00"/>
<rect x="588.044" y="777" width="21" height="21" fill="#FFDE00"/>
<rect x="609.044" y="777" width="21" height="21" fill="#FFDE00"/>
<rect x="630.044" y="777" width="21" height="21" fill="#FFDE00"/>
<rect x="651.044" y="777" width="21" height="21" fill="#FFDE00"/>
<rect x="294.044" y="798" width="21" height="21" fill="#FFDE00"/>
<rect x="315.044" y="798" width="21" height="21" fill="#FFDE00"/>
<rect x="336.044" y="798" width="21" height="21" fill="#FFDE00"/>
<rect x="546.044" y="798" width="21" height="21" fill="#FFDE00"/>
<rect x="567.044" y="798" width="21" height="21" fill="#FFDE00"/>
<rect x="588.044" y="798" width="21" height="21" fill="#FFDE00"/>
<rect x="609.044" y="798" width="21" height="21" fill="#FFDE00"/>
<rect x="273.044" y="819" width="21" height="21" fill="#FFDE00"/>
<rect x="294.044" y="819" width="21" height="21" fill="#FFDE00"/>
<rect x="315.044" y="819" width="21" height="21" fill="#FFDE00"/>
<rect x="525.044" y="819" width="21" height="21" fill="#FFDE00"/>
<rect x="546.044" y="819" width="21" height="21" fill="#FFDE00"/>
<rect x="567.044" y="819" width="21" height="21" fill="#FFDE00"/>
<rect x="588.044" y="819" width="21" height="21" fill="#FFDE00"/>
<rect x="273.044" y="840" width="21" height="21" fill="#FFDE00"/>
<rect x="294.044" y="840" width="21" height="21" fill="#FFDE00"/>
<rect x="315.044" y="840" width="21" height="21" fill="#FFDE00"/>
<rect x="483.044" y="840" width="21" height="21" fill="#FFDE00"/>
<rect x="504.044" y="840" width="21" height="21" fill="#FFDE00"/>
<rect x="525.044" y="840" width="21" height="21" fill="#FFDE00"/>
<rect x="546.044" y="840" width="21" height="21" fill="#FFDE00"/>
<rect x="567.044" y="840" width="21" height="21" fill="#FFDE00"/>
<rect x="252.044" y="861" width="21" height="21" fill="#FFDE00"/>
<rect x="273.044" y="861" width="21" height="21" fill="#FFDE00"/>
<rect x="294.044" y="861" width="21" height="21" fill="#FFDE00"/>
<rect x="315.044" y="861" width="21" height="21" fill="#FFDE00"/>
<rect x="462.044" y="861" width="21" height="21" fill="#FFDE00"/>
<rect x="483.044" y="861" width="21" height="21" fill="#FFDE00"/>
<rect x="504.044" y="861" width="21" height="21" fill="#FFDE00"/>
<rect x="525.044" y="861" width="21" height="21" fill="#FFDE00"/>
<rect x="546.044" y="861" width="21" height="21" fill="#FFDE00"/>
<rect x="252.044" y="882" width="21" height="21" fill="#FFDE00"/>
<rect x="273.044" y="882" width="21" height="21" fill="#FFDE00"/>
<rect x="294.044" y="882" width="21" height="21" fill="#FFDE00"/>
<rect x="441.044" y="882" width="21" height="21" fill="#FFDE00"/>
<rect x="462.044" y="882" width="21" height="21" fill="#FFDE00"/>
<rect x="483.044" y="882" width="21" height="21" fill="#FFDE00"/>
<rect x="504.044" y="882" width="21" height="21" fill="#FFDE00"/>
<rect x="525.044" y="882" width="21" height="21" fill="#FFDE00"/>
<rect x="252.044" y="903" width="21" height="21" fill="#FFDE00"/>
<rect x="273.044" y="903" width="21" height="21" fill="#FFDE00"/>
<rect x="294.044" y="903" width="21" height="21" fill="#FFDE00"/>
<rect x="420.044" y="903" width="21" height="21" fill="#FFDE00"/>
<rect x="441.044" y="903" width="21" height="21" fill="#FFDE00"/>
<rect x="462.044" y="903" width="21" height="21" fill="#FFDE00"/>
<rect x="483.044" y="903" width="21" height="21" fill="#FFDE00"/>
<rect x="231.044" y="924" width="21" height="21" fill="#FFDE00"/>
<rect x="252.044" y="924" width="21" height="21" fill="#FFDE00"/>
<rect x="273.044" y="924" width="21" height="21" fill="#FFDE00"/>
<rect x="399.044" y="924" width="21" height="21" fill="#FFDE00"/>
<rect x="420.044" y="924" width="21" height="21" fill="#FFDE00"/>
<rect x="441.044" y="924" width="21" height="21" fill="#FFDE00"/>
<rect x="462.044" y="924" width="21" height="21" fill="#FFDE00"/>
<rect x="231.044" y="945" width="21" height="21" fill="#FFDE00"/>
<rect x="252.044" y="945" width="21" height="21" fill="#FFDE00"/>
<rect x="273.044" y="945" width="21" height="21" fill="#FFDE00"/>
<rect x="357.044" y="945" width="21" height="21" fill="#FFDE00"/>
<rect x="378.044" y="945" width="21" height="21" fill="#FFDE00"/>
<rect x="399.044" y="945" width="21" height="21" fill="#FFDE00"/>
<rect x="420.044" y="945" width="21" height="21" fill="#FFDE00"/>
<rect x="441.044" y="945" width="21" height="21" fill="#FFDE00"/>
<rect x="210.044" y="966" width="21" height="21" fill="#FFDE00"/>
<rect x="231.044" y="966" width="21" height="21" fill="#FFDE00"/>
<rect x="252.044" y="966" width="21" height="21" fill="#FFDE00"/>
<rect x="273.044" y="966" width="21" height="21" fill="#FFDE00"/>
<rect x="336.044" y="966" width="21" height="21" fill="#FFDE00"/>
<rect x="357.044" y="966" width="21" height="21" fill="#FFDE00"/>
<rect x="378.044" y="966" width="21" height="21" fill="#FFDE00"/>
<rect x="399.044" y="966" width="21" height="21" fill="#FFDE00"/>
<rect x="420.044" y="966" width="21" height="21" fill="#FFDE00"/>
<rect x="210.044" y="987" width="21" height="21" fill="#FFDE00"/>
<rect x="231.044" y="987" width="21" height="21" fill="#FFDE00"/>
<rect x="252.044" y="987" width="21" height="21" fill="#FFDE00"/>
<rect x="315.044" y="987" width="21" height="21" fill="#FFDE00"/>
<rect x="336.044" y="987" width="21" height="21" fill="#FFDE00"/>
<rect x="357.044" y="987" width="21" height="21" fill="#FFDE00"/>
<rect x="378.044" y="987" width="21" height="21" fill="#FFDE00"/>
<rect x="399.044" y="987" width="21" height="21" fill="#FFDE00"/>
<rect x="210.044" y="1008" width="21" height="21" fill="#FFDE00"/>
<rect x="231.044" y="1008" width="21" height="21" fill="#FFDE00"/>
<rect x="252.044" y="1008" width="21" height="21" fill="#FFDE00"/>
<rect x="294.044" y="1008" width="21" height="21" fill="#FFDE00"/>
<rect x="315.044" y="1008" width="21" height="21" fill="#FFDE00"/>
<rect x="336.044" y="1008" width="21" height="21" fill="#FFDE00"/>
<rect x="357.044" y="1008" width="21" height="21" fill="#FFDE00"/>
<rect x="210.044" y="1029" width="21" height="21" fill="#FFDE00"/>
<rect x="231.044" y="1029" width="21" height="21" fill="#FFDE00"/>
<rect x="252.044" y="1029" width="21" height="21" fill="#FFDE00"/>
<rect x="273.044" y="1029" width="21" height="21" fill="#FFDE00"/>
<rect x="294.044" y="1029" width="21" height="21" fill="#FFDE00"/>
<rect x="315.044" y="1029" width="21" height="21" fill="#FFDE00"/>
<rect x="336.044" y="1029" width="21" height="21" fill="#FFDE00"/>
<rect x="210.044" y="1050" width="21" height="21" fill="#FFDE00"/>
<rect x="231.044" y="1050" width="21" height="21" fill="#FFDE00"/>
<rect x="252.044" y="1050" width="21" height="21" fill="#FFDE00"/>
<rect x="273.044" y="1050" width="21" height="21" fill="#FFDE00"/>
<rect x="294.044" y="1050" width="21" height="21" fill="#FFDE00"/>
<rect x="315.044" y="1050" width="21" height="21" fill="#FFDE00"/>
<rect x="231.044" y="1071" width="21" height="21" fill="#FFDE00"/>
<rect x="252.044" y="1071" width="21" height="21" fill="#FFDE00"/>
<rect x="273.044" y="1071" width="21" height="21" fill="#FFDE00"/>
<rect x="294.044" y="1071" width="21" height="21" fill="#FFDE00"/>
</svg>
