<svg width="684" height="900" viewBox="0 0 684 900" fill="none" xmlns="http://www.w3.org/2000/svg">
<rect x="324" width="18" height="18" fill="#EE8130"/>
<rect x="306" y="18" width="18" height="18" fill="#EE8130"/>
<rect x="324" y="18" width="18" height="18" fill="#EE8130"/>
<rect x="342" y="18" width="18" height="18" fill="#EE8130"/>
<rect x="360" y="18" width="18" height="18" fill="#FF9D4C"/>
<rect x="288" y="36" width="18" height="18" fill="#EE8130"/>
<rect x="306" y="36" width="18" height="18" fill="#EE8130"/>
<rect x="324" y="36" width="18" height="18" fill="#EE8130"/>
<rect x="342" y="36" width="18" height="18" fill="#EE8130"/>
<rect x="360" y="36" width="18" height="18" fill="#EE8130"/>
<rect x="270" y="54" width="18" height="18" fill="#EE8130"/>
<rect x="288" y="54" width="18" height="18" fill="#EE8130"/>
<rect x="306" y="54" width="18" height="18" fill="#EE8130"/>
<rect x="324" y="54" width="18" height="18" fill="#EE8130"/>
<rect x="342" y="54" width="18" height="18" fill="#EE8130"/>
<rect x="360" y="54" width="18" height="18" fill="#EE8130"/>
<rect x="270" y="72" width="18" height="18" fill="#EE8130"/>
<rect x="288" y="72" width="18" height="18" fill="#EE8130"/>
<rect x="306" y="72" width="18" height="18" fill="#EE8130"/>
<rect x="324" y="72" width="18" height="18" fill="#EE8130"/>
<rect x="342" y="72" width="18" height="18" fill="#EE8130"/>
<rect x="360" y="72" width="18" height="18" fill="#EE8130"/>
<rect x="252" y="90" width="18" height="18" fill="#EE8130"/>
<rect x="270" y="90" width="18" height="18" fill="#EE8130"/>
<rect x="288" y="90" width="18" height="18" fill="#EE8130"/>
<rect x="306" y="90" width="18" height="18" fill="#EE8130"/>
<rect x="324" y="90" width="18" height="18" fill="#EE8130"/>
<rect x="342" y="90" width="18" height="18" fill="#EE8130"/>
<rect x="360" y="90" width="18" height="18" fill="#EE8130"/>
<rect x="252" y="108" width="18" height="18" fill="#EE8130"/>
<rect x="270" y="108" width="18" height="18" fill="#EE8130"/>
<rect x="288" y="108" width="18" height="18" fill="#EE8130"/>
<rect x="324" y="108" width="18" height="18" fill="#EE8130"/>
<rect x="342" y="108" width="18" height="18" fill="#EE8130"/>
<rect x="360" y="108" width="18" height="18" fill="#EE8130"/>
<rect x="234" y="126" width="18" height="18" fill="#EE8130"/>
<rect x="252" y="126" width="18" height="18" fill="#EE8130"/>
<rect x="270" y="126" width="18" height="18" fill="#EE8130"/>
<rect x="288" y="126" width="18" height="18" fill="#EE8130"/>
<rect x="324" y="126" width="18" height="18" fill="#EE8130"/>
<rect x="342" y="126" width="18" height="18" fill="#EE8130"/>
<rect x="360" y="126" width="18" height="18" fill="#EE8130"/>
<rect x="378" y="126" width="18" height="18" fill="#EE8130"/>
<rect x="234" y="144" width="18" height="18" fill="#EE8130"/>
<rect x="252" y="144" width="18" height="18" fill="#EE8130"/>
<rect x="270" y="144" width="18" height="18" fill="#EE8130"/>
<rect x="288" y="144" width="18" height="18" fill="#EE8130"/>
<rect x="324" y="144" width="18" height="18" fill="#EE8130"/>
<rect x="342" y="144" width="18" height="18" fill="#EE8130"/>
<rect x="360" y="144" width="18" height="18" fill="#EE8130"/>
<rect x="378" y="144" width="18" height="18" fill="#EE8130"/>
<rect x="396" y="144" width="18" height="18" fill="#EE8130"/>
<rect x="234" y="162" width="18" height="18" fill="#EE8130"/>
<rect x="252" y="162" width="18" height="18" fill="#EE8130"/>
<rect x="270" y="162" width="18" height="18" fill="#EE8130"/>
<rect x="342" y="162" width="18" height="18" fill="#EE8130"/>
<rect x="360" y="162" width="18" height="18" fill="#EE8130"/>
<rect x="378" y="162" width="18" height="18" fill="#EE8130"/>
<rect x="396" y="162" width="18" height="18" fill="#EE8130"/>
<rect x="414" y="162" width="18" height="18" fill="#EE8130"/>
<rect x="234" y="180" width="18" height="18" fill="#EE8130"/>
<rect x="252" y="180" width="18" height="18" fill="#EE8130"/>
<rect x="270" y="180" width="18" height="18" fill="#EE8130"/>
<rect x="360" y="180" width="18" height="18" fill="#EE8130"/>
<rect x="378" y="180" width="18" height="18" fill="#EE8130"/>
<rect x="396" y="180" width="18" height="18" fill="#EE8130"/>
<rect x="414" y="180" width="18" height="18" fill="#EE8130"/>
<rect x="432" y="180" width="18" height="18" fill="#EE8130"/>
<rect x="234" y="198" width="18" height="18" fill="#EE8130"/>
<rect x="252" y="198" width="18" height="18" fill="#EE8130"/>
<rect x="270" y="198" width="18" height="18" fill="#EE8130"/>
<rect x="378" y="198" width="18" height="18" fill="#EE8130"/>
<rect x="396" y="198" width="18" height="18" fill="#EE8130"/>
<rect x="414" y="198" width="18" height="18" fill="#EE8130"/>
<rect x="432" y="198" width="18" height="18" fill="#EE8130"/>
<rect x="450" y="198" width="18" height="18" fill="#EE8130"/>
<rect x="234" y="216" width="18" height="18" fill="#EE8130"/>
<rect x="252" y="216" width="18" height="18" fill="#EE8130"/>
<rect x="270" y="216" width="18" height="18" fill="#EE8130"/>
<rect x="396" y="216" width="18" height="18" fill="#EE8130"/>
<rect x="414" y="216" width="18" height="18" fill="#EE8130"/>
<rect x="432" y="216" width="18" height="18" fill="#EE8130"/>
<rect x="450" y="216" width="18" height="18" fill="#EE8130"/>
<rect x="468" y="216" width="18" height="18" fill="#EE8130"/>
<rect x="234" y="234" width="18" height="18" fill="#EE8130"/>
<rect x="252" y="234" width="18" height="18" fill="#EE8130"/>
<rect x="270" y="234" width="18" height="18" fill="#EE8130"/>
<rect x="288" y="234" width="18" height="18" fill="#EE8130"/>
<rect x="414" y="234" width="18" height="18" fill="#EE8130"/>
<rect x="432" y="234" width="18" height="18" fill="#EE8130"/>
<rect x="450" y="234" width="18" height="18" fill="#EE8130"/>
<rect x="468" y="234" width="18" height="18" fill="#EE8130"/>
<rect x="486" y="234" width="18" height="18" fill="#EE8130"/>
<rect x="234" y="252" width="18" height="18" fill="#EE8130"/>
<rect x="252" y="252" width="18" height="18" fill="#EE8130"/>
<rect x="270" y="252" width="18" height="18" fill="#EE8130"/>
<rect x="288" y="252" width="18" height="18" fill="#EE8130"/>
<rect x="432" y="252" width="18" height="18" fill="#EE8130"/>
<rect x="450" y="252" width="18" height="18" fill="#EE8130"/>
<rect x="468" y="252" width="18" height="18" fill="#EE8130"/>
<rect x="486" y="252" width="18" height="18" fill="#EE8130"/>
<rect x="504" y="252" width="18" height="18" fill="#EE8130"/>
<rect x="252" y="270" width="18" height="18" fill="#EE8130"/>
<rect x="270" y="270" width="18" height="18" fill="#EE8130"/>
<rect x="288" y="270" width="18" height="18" fill="#EE8130"/>
<rect x="306" y="270" width="18" height="18" fill="#E67928"/>
<rect x="450" y="270" width="18" height="18" fill="#EE8130"/>
<rect x="468" y="270" width="18" height="18" fill="#EE8130"/>
<rect x="486" y="270" width="18" height="18" fill="#EE8130"/>
<rect x="504" y="270" width="18" height="18" fill="#EE8130"/>
<rect x="522" y="270" width="18" height="18" fill="#EE8130"/>
<rect x="252" y="288" width="18" height="18" fill="#EE8130"/>
<rect x="270" y="288" width="18" height="18" fill="#EE8130"/>
<rect x="288" y="288" width="18" height="18" fill="#EE8130"/>
<rect x="306" y="288" width="18" height="18" fill="#EE8130"/>
<rect x="468" y="288" width="18" height="18" fill="#EE8130"/>
<rect x="486" y="288" width="18" height="18" fill="#EE8130"/>
<rect x="504" y="288" width="18" height="18" fill="#EE8130"/>
<rect x="522" y="288" width="18" height="18" fill="#EE8130"/>
<rect x="540" y="288" width="18" height="18" fill="#EE8130"/>
<rect x="270" y="306" width="18" height="18" fill="#EE8130"/>
<rect x="288" y="306" width="18" height="18" fill="#EE8130"/>
<rect x="306" y="306" width="18" height="18" fill="#EE8130"/>
<rect x="324" y="306" width="18" height="18" fill="#EE8130"/>
<rect x="486" y="306" width="18" height="18" fill="#EE8130"/>
<rect x="504" y="306" width="18" height="18" fill="#EE8130"/>
<rect x="522" y="306" width="18" height="18" fill="#EE8130"/>
<rect x="540" y="306" width="18" height="18" fill="#EE8130"/>
<rect x="558" y="306" width="18" height="18" fill="#EE8130"/>
<rect x="108" y="324" width="18" height="18" fill="#EE8130"/>
<rect x="126" y="324" width="18" height="18" fill="#EE8130"/>
<rect x="144" y="324" width="18" height="18" fill="#EE8130"/>
<rect x="270" y="324" width="18" height="18" fill="#FF9D4C"/>
<rect x="288" y="324" width="18" height="18" fill="#EE8130"/>
<rect x="306" y="324" width="18" height="18" fill="#EE8130"/>
<rect x="324" y="324" width="18" height="18" fill="#EE8130"/>
<rect x="342" y="324" width="18" height="18" fill="#EE8130"/>
<rect x="504" y="324" width="18" height="18" fill="#EE8130"/>
<rect x="522" y="324" width="18" height="18" fill="#EE8130"/>
<rect x="540" y="324" width="18" height="18" fill="#EE8130"/>
<rect x="558" y="324" width="18" height="18" fill="#EE8130"/>
<rect x="576" y="324" width="18" height="18" fill="#EE8130"/>
<rect x="90" y="342" width="18" height="18" fill="#EE8130"/>
<rect x="108" y="342" width="18" height="18" fill="#EE8130"/>
<rect x="126" y="342" width="18" height="18" fill="#EE8130"/>
<rect x="144" y="342" width="18" height="18" fill="#EE8130"/>
<rect x="162" y="342" width="18" height="18" fill="#EE8130"/>
<rect x="288" y="342" width="18" height="18" fill="#EE8130"/>
<rect x="306" y="342" width="18" height="18" fill="#EE8130"/>
<rect x="324" y="342" width="18" height="18" fill="#EE8130"/>
<rect x="342" y="342" width="18" height="18" fill="#EE8130"/>
<rect x="360" y="342" width="18" height="18" fill="#EE8130"/>
<rect x="522" y="342" width="18" height="18" fill="#EE8130"/>
<rect x="540" y="342" width="18" height="18" fill="#EE8130"/>
<rect x="558" y="342" width="18" height="18" fill="#EE8130"/>
<rect x="576" y="342" width="18" height="18" fill="#EE8130"/>
<rect x="594" y="342" width="18" height="18" fill="#FF9D4C"/>
<rect x="72" y="360" width="18" height="18" fill="#EE8130"/>
<rect x="90" y="360" width="18" height="18" fill="#EE8130"/>
<rect x="108" y="360" width="18" height="18" fill="#EE8130"/>
<rect x="126" y="360" width="18" height="18" fill="#EE8130"/>
<rect x="144" y="360" width="18" height="18" fill="#EE8130"/>
<rect x="162" y="360" width="18" height="18" fill="#EE8130"/>
<rect x="306" y="360" width="18" height="18" fill="#EE8130"/>
<rect x="324" y="360" width="18" height="18" fill="#EE8130"/>
<rect x="342" y="360" width="18" height="18" fill="#EE8130"/>
<rect x="360" y="360" width="18" height="18" fill="#EE8130"/>
<rect x="378" y="360" width="18" height="18" fill="#EE8130"/>
<rect x="540" y="360" width="18" height="18" fill="#EE8130"/>
<rect x="558" y="360" width="18" height="18" fill="#EE8130"/>
<rect x="576" y="360" width="18" height="18" fill="#EE8130"/>
<rect x="594" y="360" width="18" height="18" fill="#EE8130"/>
<rect x="54" y="378" width="18" height="18" fill="#EE8130"/>
<rect x="72" y="378" width="18" height="18" fill="#EE8130"/>
<rect x="90" y="378" width="18" height="18" fill="#EE8130"/>
<rect x="108" y="378" width="18" height="18" fill="#EE8130"/>
<rect x="126" y="378" width="18" height="18" fill="#EE8130"/>
<rect x="144" y="378" width="18" height="18" fill="#EE8130"/>
<rect x="162" y="378" width="18" height="18" fill="#EE8130"/>
<rect x="324" y="378" width="18" height="18" fill="#EE8130"/>
<rect x="342" y="378" width="18" height="18" fill="#EE8130"/>
<rect x="360" y="378" width="18" height="18" fill="#EE8130"/>
<rect x="378" y="378" width="18" height="18" fill="#EE8130"/>
<rect x="396" y="378" width="18" height="18" fill="#EE8130"/>
<rect x="558" y="378" width="18" height="18" fill="#EE8130"/>
<rect x="576" y="378" width="18" height="18" fill="#EE8130"/>
<rect x="594" y="378" width="18" height="18" fill="#EE8130"/>
<rect x="612" y="378" width="18" height="18" fill="#EE8130"/>
<rect x="54" y="396" width="18" height="18" fill="#EE8130"/>
<rect x="72" y="396" width="18" height="18" fill="#EE8130"/>
<rect x="90" y="396" width="18" height="18" fill="#EE8130"/>
<rect x="108" y="396" width="18" height="18" fill="#EE8130"/>
<rect x="126" y="396" width="18" height="18" fill="#EE8130"/>
<rect x="144" y="396" width="18" height="18" fill="#EE8130"/>
<rect x="162" y="396" width="18" height="18" fill="#EE8130"/>
<rect x="342" y="396" width="18" height="18" fill="#EE8130"/>
<rect x="360" y="396" width="18" height="18" fill="#EE8130"/>
<rect x="378" y="396" width="18" height="18" fill="#EE8130"/>
<rect x="396" y="396" width="18" height="18" fill="#EE8130"/>
<rect x="414" y="396" width="18" height="18" fill="#EE8130"/>
<rect x="558" y="396" width="18" height="18" fill="#EE8130"/>
<rect x="576" y="396" width="18" height="18" fill="#EE8130"/>
<rect x="594" y="396" width="18" height="18" fill="#EE8130"/>
<rect x="612" y="396" width="18" height="18" fill="#EE8130"/>
<rect x="36" y="414" width="18" height="18" fill="#EE8130"/>
<rect x="54" y="414" width="18" height="18" fill="#EE8130"/>
<rect x="72" y="414" width="18" height="18" fill="#EE8130"/>
<rect x="90" y="414" width="18" height="18" fill="#EE8130"/>
<rect x="108" y="414" width="18" height="18" fill="#EE8130"/>
<rect x="126" y="414" width="18" height="18" fill="#EE8130"/>
<rect x="144" y="414" width="18" height="18" fill="#EE8130"/>
<rect x="162" y="414" width="18" height="18" fill="#EE8130"/>
<rect x="360" y="414" width="18" height="18" fill="#EE8130"/>
<rect x="378" y="414" width="18" height="18" fill="#EE8130"/>
<rect x="396" y="414" width="18" height="18" fill="#EE8130"/>
<rect x="414" y="414" width="18" height="18" fill="#EE8130"/>
<rect x="576" y="414" width="18" height="18" fill="#EE8130"/>
<rect x="594" y="414" width="18" height="18" fill="#EE8130"/>
<rect x="612" y="414" width="18" height="18" fill="#EE8130"/>
<rect x="630" y="414" width="18" height="18" fill="#EE8130"/>
<rect x="36" y="432" width="18" height="18" fill="#EE8130"/>
<rect x="54" y="432" width="18" height="18" fill="#EE8130"/>
<rect x="72" y="432" width="18" height="18" fill="#EE8130"/>
<rect x="90" y="432" width="18" height="18" fill="#EE8130"/>
<rect x="108" y="432" width="18" height="18" fill="#EE8130"/>
<rect x="126" y="432" width="18" height="18" fill="#EE8130"/>
<rect x="144" y="432" width="18" height="18" fill="#EE8130"/>
<rect x="162" y="432" width="18" height="18" fill="#EE8130"/>
<rect x="378" y="432" width="18" height="18" fill="#EE8130"/>
<rect x="396" y="432" width="18" height="18" fill="#EE8130"/>
<rect x="414" y="432" width="18" height="18" fill="#EE8130"/>
<rect x="432" y="432" width="18" height="18" fill="#EE8130"/>
<rect x="594" y="432" width="18" height="18" fill="#EE8130"/>
<rect x="612" y="432" width="18" height="18" fill="#EE8130"/>
<rect x="630" y="432" width="18" height="18" fill="#EE8130"/>
<rect x="18" y="450" width="18" height="18" fill="#EE8130"/>
<rect x="36" y="450" width="18" height="18" fill="#EE8130"/>
<rect x="54" y="450" width="18" height="18" fill="#EE8130"/>
<rect x="72" y="450" width="18" height="18" fill="#EE8130"/>
<rect x="108" y="450" width="18" height="18" fill="#EE8130"/>
<rect x="126" y="450" width="18" height="18" fill="#EE8130"/>
<rect x="144" y="450" width="18" height="18" fill="#EE8130"/>
<rect x="162" y="450" width="18" height="18" fill="#EE8130"/>
<rect x="396" y="450" width="18" height="18" fill="#EE8130"/>
<rect x="414" y="450" width="18" height="18" fill="#EE8130"/>
<rect x="432" y="450" width="18" height="18" fill="#EE8130"/>
<rect x="594" y="450" width="18" height="18" fill="#EE8130"/>
<rect x="612" y="450" width="18" height="18" fill="#EE8130"/>
<rect x="630" y="450" width="18" height="18" fill="#EE8130"/>
<rect x="648" y="450" width="18" height="18" fill="#EE8130"/>
<rect x="18" y="468" width="18" height="18" fill="#EE8130"/>
<rect x="36" y="468" width="18" height="18" fill="#EE8130"/>
<rect x="54" y="468" width="18" height="18" fill="#EE8130"/>
<rect x="72" y="468" width="18" height="18" fill="#EE8130"/>
<rect x="108" y="468" width="18" height="18" fill="#EE8130"/>
<rect x="126" y="468" width="18" height="18" fill="#EE8130"/>
<rect x="144" y="468" width="18" height="18" fill="#EE8130"/>
<rect x="162" y="468" width="18" height="18" fill="#EE8130"/>
<rect x="396" y="468" width="18" height="18" fill="#EE8130"/>
<rect x="414" y="468" width="18" height="18" fill="#EE8130"/>
<rect x="432" y="468" width="18" height="18" fill="#EE8130"/>
<rect x="450" y="468" width="18" height="18" fill="#EE8130"/>
<rect x="594" y="468" width="18" height="18" fill="#EE8130"/>
<rect x="612" y="468" width="18" height="18" fill="#EE8130"/>
<rect x="630" y="468" width="18" height="18" fill="#EE8130"/>
<rect x="648" y="468" width="18" height="18" fill="#EE8130"/>
<rect x="18" y="486" width="18" height="18" fill="#EE8130"/>
<rect x="36" y="486" width="18" height="18" fill="#EE8130"/>
<rect x="54" y="486" width="18" height="18" fill="#EE8130"/>
<rect x="108" y="486" width="18" height="18" fill="#EE8130"/>
<rect x="126" y="486" width="18" height="18" fill="#EE8130"/>
<rect x="144" y="486" width="18" height="18" fill="#EE8130"/>
<rect x="162" y="486" width="18" height="18" fill="#EE8130"/>
<rect x="396" y="486" width="18" height="18" fill="#EE8130"/>
<rect x="414" y="486" width="18" height="18" fill="#EE8130"/>
<rect x="432" y="486" width="18" height="18" fill="#EE8130"/>
<rect x="450" y="486" width="18" height="18" fill="#EE8130"/>
<rect x="612" y="486" width="18" height="18" fill="#EE8130"/>
<rect x="630" y="486" width="18" height="18" fill="#EE8130"/>
<rect x="648" y="486" width="18" height="18" fill="#EE8130"/>
<rect x="18" y="504" width="18" height="18" fill="#EE8130"/>
<rect x="36" y="504" width="18" height="18" fill="#EE8130"/>
<rect x="54" y="504" width="18" height="18" fill="#EE8130"/>
<rect x="108" y="504" width="18" height="18" fill="#EE8130"/>
<rect x="126" y="504" width="18" height="18" fill="#EE8130"/>
<rect x="144" y="504" width="18" height="18" fill="#EE8130"/>
<rect x="162" y="504" width="18" height="18" fill="#EE8130"/>
<rect x="396" y="504" width="18" height="18" fill="#EE8130"/>
<rect x="414" y="504" width="18" height="18" fill="#EE8130"/>
<rect x="432" y="504" width="18" height="18" fill="#EE8130"/>
<rect x="450" y="504" width="18" height="18" fill="#EE8130"/>
<rect x="612" y="504" width="18" height="18" fill="#EE8130"/>
<rect x="630" y="504" width="18" height="18" fill="#EE8130"/>
<rect x="648" y="504" width="18" height="18" fill="#EE8130"/>
<rect x="18" y="522" width="18" height="18" fill="#EE8130"/>
<rect x="36" y="522" width="18" height="18" fill="#EE8130"/>
<rect x="54" y="522" width="18" height="18" fill="#EE8130"/>
<rect x="126" y="522" width="18" height="18" fill="#EE8130"/>
<rect x="144" y="522" width="18" height="18" fill="#EE8130"/>
<rect x="162" y="522" width="18" height="18" fill="#EE8130"/>
<rect x="396" y="522" width="18" height="18" fill="#EE8130"/>
<rect x="414" y="522" width="18" height="18" fill="#EE8130"/>
<rect x="432" y="522" width="18" height="18" fill="#EE8130"/>
<rect x="450" y="522" width="18" height="18" fill="#EE8130"/>
<rect x="612" y="522" width="18" height="18" fill="#EE8130"/>
<rect x="630" y="522" width="18" height="18" fill="#EE8130"/>
<rect x="648" y="522" width="18" height="18" fill="#EE8130"/>
<rect x="666" y="522" width="18" height="18" fill="#EE8130"/>
<rect y="540" width="18" height="18" fill="#E67928"/>
<rect x="18" y="540" width="18" height="18" fill="#EE8130"/>
<rect x="36" y="540" width="18" height="18" fill="#EE8130"/>
<rect x="54" y="540" width="18" height="18" fill="#EE8130"/>
<rect x="126" y="540" width="18" height="18" fill="#EE8130"/>
<rect x="144" y="540" width="18" height="18" fill="#EE8130"/>
<rect x="162" y="540" width="18" height="18" fill="#EE8130"/>
<rect x="396" y="540" width="18" height="18" fill="#EE8130"/>
<rect x="414" y="540" width="18" height="18" fill="#EE8130"/>
<rect x="432" y="540" width="18" height="18" fill="#EE8130"/>
<rect x="612" y="540" width="18" height="18" fill="#EE8130"/>
<rect x="630" y="540" width="18" height="18" fill="#EE8130"/>
<rect x="648" y="540" width="18" height="18" fill="#EE8130"/>
<rect x="666" y="540" width="18" height="18" fill="#EE8130"/>
<rect y="558" width="18" height="18" fill="#EE8130"/>
<rect x="18" y="558" width="18" height="18" fill="#EE8130"/>
<rect x="36" y="558" width="18" height="18" fill="#EE8130"/>
<rect x="54" y="558" width="18" height="18" fill="#EE8130"/>
<rect x="126" y="558" width="18" height="18" fill="#EE8130"/>
<rect x="144" y="558" width="18" height="18" fill="#EE8130"/>
<rect x="162" y="558" width="18" height="18" fill="#EE8130"/>
<rect x="180" y="558" width="18" height="18" fill="#EE8130"/>
<rect x="396" y="558" width="18" height="18" fill="#EE8130"/>
<rect x="414" y="558" width="18" height="18" fill="#EE8130"/>
<rect x="432" y="558" width="18" height="18" fill="#EE8130"/>
<rect x="612" y="558" width="18" height="18" fill="#E67928"/>
<rect x="630" y="558" width="18" height="18" fill="#EE8130"/>
<rect x="648" y="558" width="18" height="18" fill="#EE8130"/>
<rect x="666" y="558" width="18" height="18" fill="#EE8130"/>
<rect y="576" width="18" height="18" fill="#E67928"/>
<rect x="18" y="576" width="18" height="18" fill="#EE8130"/>
<rect x="36" y="576" width="18" height="18" fill="#EE8130"/>
<rect x="54" y="576" width="18" height="18" fill="#EE8130"/>
<rect x="126" y="576" width="18" height="18" fill="#EE8130"/>
<rect x="144" y="576" width="18" height="18" fill="#EE8130"/>
<rect x="162" y="576" width="18" height="18" fill="#EE8130"/>
<rect x="180" y="576" width="18" height="18" fill="#EE8130"/>
<rect x="378" y="576" width="18" height="18" fill="#EE8130"/>
<rect x="396" y="576" width="18" height="18" fill="#EE8130"/>
<rect x="414" y="576" width="18" height="18" fill="#EE8130"/>
<rect x="432" y="576" width="18" height="18" fill="#EE8130"/>
<rect x="630" y="576" width="18" height="18" fill="#EE8130"/>
<rect x="648" y="576" width="18" height="18" fill="#EE8130"/>
<rect x="666" y="576" width="18" height="18" fill="#EE8130"/>
<rect x="18" y="594" width="18" height="18" fill="#EE8130"/>
<rect x="36" y="594" width="18" height="18" fill="#EE8130"/>
<rect x="54" y="594" width="18" height="18" fill="#EE8130"/>
<rect x="144" y="594" width="18" height="18" fill="#EE8130"/>
<rect x="162" y="594" width="18" height="18" fill="#EE8130"/>
<rect x="180" y="594" width="18" height="18" fill="#EE8130"/>
<rect x="198" y="594" width="18" height="18" fill="#EE8130"/>
<rect x="360" y="594" width="18" height="18" fill="#EE8130"/>
<rect x="378" y="594" width="18" height="18" fill="#EE8130"/>
<rect x="396" y="594" width="18" height="18" fill="#EE8130"/>
<rect x="414" y="594" width="18" height="18" fill="#EE8130"/>
<rect x="630" y="594" width="18" height="18" fill="#EE8130"/>
<rect x="648" y="594" width="18" height="18" fill="#EE8130"/>
<rect x="666" y="594" width="18" height="18" fill="#EE8130"/>
<rect x="18" y="612" width="18" height="18" fill="#EE8130"/>
<rect x="36" y="612" width="18" height="18" fill="#EE8130"/>
<rect x="54" y="612" width="18" height="18" fill="#EE8130"/>
<rect x="144" y="612" width="18" height="18" fill="#FF9D4C"/>
<rect x="162" y="612" width="18" height="18" fill="#EE8130"/>
<rect x="180" y="612" width="18" height="18" fill="#EE8130"/>
<rect x="198" y="612" width="18" height="18" fill="#EE8130"/>
<rect x="216" y="612" width="18" height="18" fill="#EE8130"/>
<rect x="234" y="612" width="18" height="18" fill="#EE8130"/>
<rect x="324" y="612" width="18" height="18" fill="#EE8130"/>
<rect x="342" y="612" width="18" height="18" fill="#EE8130"/>
<rect x="360" y="612" width="18" height="18" fill="#EE8130"/>
<rect x="378" y="612" width="18" height="18" fill="#EE8130"/>
<rect x="396" y="612" width="18" height="18" fill="#EE8130"/>
<rect x="414" y="612" width="18" height="18" fill="#EE8130"/>
<rect x="630" y="612" width="18" height="18" fill="#EE8130"/>
<rect x="648" y="612" width="18" height="18" fill="#EE8130"/>
<rect x="666" y="612" width="18" height="18" fill="#EE8130"/>
<rect x="18" y="630" width="18" height="18" fill="#EE8130"/>
<rect x="36" y="630" width="18" height="18" fill="#EE8130"/>
<rect x="54" y="630" width="18" height="18" fill="#EE8130"/>
<rect x="162" y="630" width="18" height="18" fill="#EE8130"/>
<rect x="180" y="630" width="18" height="18" fill="#EE8130"/>
<rect x="198" y="630" width="18" height="18" fill="#EE8130"/>
<rect x="216" y="630" width="18" height="18" fill="#EE8130"/>
<rect x="234" y="630" width="18" height="18" fill="#EE8130"/>
<rect x="252" y="630" width="18" height="18" fill="#EE8130"/>
<rect x="270" y="630" width="18" height="18" fill="#EE8130"/>
<rect x="288" y="630" width="18" height="18" fill="#EE8130"/>
<rect x="306" y="630" width="18" height="18" fill="#EE8130"/>
<rect x="324" y="630" width="18" height="18" fill="#EE8130"/>
<rect x="342" y="630" width="18" height="18" fill="#EE8130"/>
<rect x="360" y="630" width="18" height="18" fill="#EE8130"/>
<rect x="378" y="630" width="18" height="18" fill="#EE8130"/>
<rect x="396" y="630" width="18" height="18" fill="#EE8130"/>
<rect x="612" y="630" width="18" height="18" fill="#EE8130"/>
<rect x="630" y="630" width="18" height="18" fill="#EE8130"/>
<rect x="648" y="630" width="18" height="18" fill="#EE8130"/>
<rect x="666" y="630" width="18" height="18" fill="#EE8130"/>
<rect x="18" y="648" width="18" height="18" fill="#EE8130"/>
<rect x="36" y="648" width="18" height="18" fill="#EE8130"/>
<rect x="54" y="648" width="18" height="18" fill="#EE8130"/>
<rect x="72" y="648" width="18" height="18" fill="#EE8130"/>
<rect x="198" y="648" width="18" height="18" fill="#EE8130"/>
<rect x="216" y="648" width="18" height="18" fill="#EE8130"/>
<rect x="234" y="648" width="18" height="18" fill="#EE8130"/>
<rect x="252" y="648" width="18" height="18" fill="#EE8130"/>
<rect x="270" y="648" width="18" height="18" fill="#EE8130"/>
<rect x="288" y="648" width="18" height="18" fill="#EE8130"/>
<rect x="306" y="648" width="18" height="18" fill="#EE8130"/>
<rect x="324" y="648" width="18" height="18" fill="#EE8130"/>
<rect x="342" y="648" width="18" height="18" fill="#EE8130"/>
<rect x="360" y="648" width="18" height="18" fill="#EE8130"/>
<rect x="378" y="648" width="18" height="18" fill="#F28534"/>
<rect x="612" y="648" width="18" height="18" fill="#EE8130"/>
<rect x="630" y="648" width="18" height="18" fill="#EE8130"/>
<rect x="648" y="648" width="18" height="18" fill="#EE8130"/>
<rect x="666" y="648" width="18" height="18" fill="#EE8130"/>
<rect x="18" y="666" width="18" height="18" fill="#EE8130"/>
<rect x="36" y="666" width="18" height="18" fill="#EE8130"/>
<rect x="54" y="666" width="18" height="18" fill="#EE8130"/>
<rect x="72" y="666" width="18" height="18" fill="#EE8130"/>
<rect x="216" y="666" width="18" height="18" fill="#FF9D4C"/>
<rect x="234" y="666" width="18" height="18" fill="#EE8130"/>
<rect x="252" y="666" width="18" height="18" fill="#EE8130"/>
<rect x="270" y="666" width="18" height="18" fill="#EE8130"/>
<rect x="288" y="666" width="18" height="18" fill="#EE8130"/>
<rect x="306" y="666" width="18" height="18" fill="#EE8130"/>
<rect x="324" y="666" width="18" height="18" fill="#EE8130"/>
<rect x="342" y="666" width="18" height="18" fill="#EE8130"/>
<rect x="612" y="666" width="18" height="18" fill="#EE8130"/>
<rect x="630" y="666" width="18" height="18" fill="#EE8130"/>
<rect x="648" y="666" width="18" height="18" fill="#EE8130"/>
<rect x="36" y="684" width="18" height="18" fill="#EE8130"/>
<rect x="54" y="684" width="18" height="18" fill="#EE8130"/>
<rect x="72" y="684" width="18" height="18" fill="#EE8130"/>
<rect x="612" y="684" width="18" height="18" fill="#EE8130"/>
<rect x="630" y="684" width="18" height="18" fill="#EE8130"/>
<rect x="648" y="684" width="18" height="18" fill="#EE8130"/>
<rect x="36" y="702" width="18" height="18" fill="#EE8130"/>
<rect x="54" y="702" width="18" height="18" fill="#EE8130"/>
<rect x="72" y="702" width="18" height="18" fill="#EE8130"/>
<rect x="90" y="702" width="18" height="18" fill="#EE8130"/>
<rect x="594" y="702" width="18" height="18" fill="#EE8130"/>
<rect x="612" y="702" width="18" height="18" fill="#EE8130"/>
<rect x="630" y="702" width="18" height="18" fill="#EE8130"/>
<rect x="648" y="702" width="18" height="18" fill="#EE8130"/>
<rect x="54" y="720" width="18" height="18" fill="#EE8130"/>
<rect x="72" y="720" width="18" height="18" fill="#EE8130"/>
<rect x="90" y="720" width="18" height="18" fill="#EE8130"/>
<rect x="108" y="720" width="18" height="18" fill="#EE8130"/>
<rect x="594" y="720" width="18" height="18" fill="#EE8130"/>
<rect x="612" y="720" width="18" height="18" fill="#EE8130"/>
<rect x="630" y="720" width="18" height="18" fill="#EE8130"/>
<rect x="54" y="738" width="18" height="18" fill="#EE8130"/>
<rect x="72" y="738" width="18" height="18" fill="#EE8130"/>
<rect x="90" y="738" width="18" height="18" fill="#EE8130"/>
<rect x="108" y="738" width="18" height="18" fill="#EE8130"/>
<rect x="576" y="738" width="18" height="18" fill="#EE8130"/>
<rect x="594" y="738" width="18" height="18" fill="#EE8130"/>
<rect x="612" y="738" width="18" height="18" fill="#EE8130"/>
<rect x="630" y="738" width="18" height="18" fill="#EE8130"/>
<rect x="72" y="756" width="18" height="18" fill="#EE8130"/>
<rect x="90" y="756" width="18" height="18" fill="#EE8130"/>
<rect x="108" y="756" width="18" height="18" fill="#EE8130"/>
<rect x="126" y="756" width="18" height="18" fill="#EE8130"/>
<rect x="558" y="756" width="18" height="18" fill="#EE8130"/>
<rect x="576" y="756" width="18" height="18" fill="#EE8130"/>
<rect x="594" y="756" width="18" height="18" fill="#EE8130"/>
<rect x="612" y="756" width="18" height="18" fill="#EE8130"/>
<rect x="90" y="774" width="18" height="18" fill="#EE8130"/>
<rect x="108" y="774" width="18" height="18" fill="#EE8130"/>
<rect x="126" y="774" width="18" height="18" fill="#EE8130"/>
<rect x="144" y="774" width="18" height="18" fill="#EE8130"/>
<rect x="540" y="774" width="18" height="18" fill="#EE8130"/>
<rect x="558" y="774" width="18" height="18" fill="#EE8130"/>
<rect x="576" y="774" width="18" height="18" fill="#EE8130"/>
<rect x="594" y="774" width="18" height="18" fill="#EE8130"/>
<rect x="612" y="774" width="18" height="18" fill="#EE8130"/>
<rect x="90" y="792" width="18" height="18" fill="#EE8130"/>
<rect x="108" y="792" width="18" height="18" fill="#EE8130"/>
<rect x="126" y="792" width="18" height="18" fill="#EE8130"/>
<rect x="144" y="792" width="18" height="18" fill="#EE8130"/>
<rect x="162" y="792" width="18" height="18" fill="#EE8130"/>
<rect x="180" y="792" width="18" height="18" fill="#EE8130"/>
<rect x="522" y="792" width="18" height="18" fill="#EE8130"/>
<rect x="540" y="792" width="18" height="18" fill="#EE8130"/>
<rect x="558" y="792" width="18" height="18" fill="#EE8130"/>
<rect x="576" y="792" width="18" height="18" fill="#EE8130"/>
<rect x="594" y="792" width="18" height="18" fill="#EE8130"/>
<rect x="108" y="810" width="18" height="18" fill="#EE8130"/>
<rect x="126" y="810" width="18" height="18" fill="#EE8130"/>
<rect x="144" y="810" width="18" height="18" fill="#EE8130"/>
<rect x="162" y="810" width="18" height="18" fill="#EE8130"/>
<rect x="180" y="810" width="18" height="18" fill="#EE8130"/>
<rect x="198" y="810" width="18" height="18" fill="#EE8130"/>
<rect x="486" y="810" width="18" height="18" fill="#EE8130"/>
<rect x="504" y="810" width="18" height="18" fill="#EE8130"/>
<rect x="522" y="810" width="18" height="18" fill="#EE8130"/>
<rect x="540" y="810" width="18" height="18" fill="#EE8130"/>
<rect x="558" y="810" width="18" height="18" fill="#EE8130"/>
<rect x="576" y="810" width="18" height="18" fill="#EE8130"/>
<rect x="144" y="828" width="18" height="18" fill="#EE8130"/>
<rect x="162" y="828" width="18" height="18" fill="#EE8130"/>
<rect x="180" y="828" width="18" height="18" fill="#EE8130"/>
<rect x="198" y="828" width="18" height="18" fill="#EE8130"/>
<rect x="216" y="828" width="18" height="18" fill="#EE8130"/>
<rect x="234" y="828" width="18" height="18" fill="#EE8130"/>
<rect x="252" y="828" width="18" height="18" fill="#EE8130"/>
<rect x="450" y="828" width="18" height="18" fill="#EE8130"/>
<rect x="468" y="828" width="18" height="18" fill="#EE8130"/>
<rect x="486" y="828" width="18" height="18" fill="#EE8130"/>
<rect x="504" y="828" width="18" height="18" fill="#EE8130"/>
<rect x="522" y="828" width="18" height="18" fill="#EE8130"/>
<rect x="540" y="828" width="18" height="18" fill="#EE8130"/>
<rect x="558" y="828" width="18" height="18" fill="#EE8130"/>
<rect x="162" y="846" width="18" height="18" fill="#EE8130"/>
<rect x="180" y="846" width="18" height="18" fill="#EE8130"/>
<rect x="198" y="846" width="18" height="18" fill="#EE8130"/>
<rect x="216" y="846" width="18" height="18" fill="#EE8130"/>
<rect x="234" y="846" width="18" height="18" fill="#EE8130"/>
<rect x="252" y="846" width="18" height="18" fill="#EE8130"/>
<rect x="270" y="846" width="18" height="18" fill="#EE8130"/>
<rect x="288" y="846" width="18" height="18" fill="#EE8130"/>
<rect x="306" y="846" width="18" height="18" fill="#EE8130"/>
<rect x="324" y="846" width="18" height="18" fill="#EE8130"/>
<rect x="342" y="846" width="18" height="18" fill="#EE8130"/>
<rect x="360" y="846" width="18" height="18" fill="#EE8130"/>
<rect x="378" y="846" width="18" height="18" fill="#EE8130"/>
<rect x="396" y="846" width="18" height="18" fill="#EE8130"/>
<rect x="414" y="846" width="18" height="18" fill="#EE8130"/>
<rect x="432" y="846" width="18" height="18" fill="#EE8130"/>
<rect x="450" y="846" width="18" height="18" fill="#EE8130"/>
<rect x="468" y="846" width="18" height="18" fill="#EE8130"/>
<rect x="486" y="846" width="18" height="18" fill="#EE8130"/>
<rect x="504" y="846" width="18" height="18" fill="#EE8130"/>
<rect x="522" y="846" width="18" height="18" fill="#EE8130"/>
<rect x="540" y="846" width="18" height="18" fill="#E67928"/>
<rect x="198" y="864" width="18" height="18" fill="#EE8130"/>
<rect x="216" y="864" width="18" height="18" fill="#EE8130"/>
<rect x="234" y="864" width="18" height="18" fill="#EE8130"/>
<rect x="252" y="864" width="18" height="18" fill="#EE8130"/>
<rect x="270" y="864" width="18" height="18" fill="#EE8130"/>
<rect x="288" y="864" width="18" height="18" fill="#EE8130"/>
<rect x="306" y="864" width="18" height="18" fill="#EE8130"/>
<rect x="324" y="864" width="18" height="18" fill="#EE8130"/>
<rect x="342" y="864" width="18" height="18" fill="#EE8130"/>
<rect x="360" y="864" width="18" height="18" fill="#EE8130"/>
<rect x="378" y="864" width="18" height="18" fill="#EE8130"/>
<rect x="396" y="864" width="18" height="18" fill="#EE8130"/>
<rect x="414" y="864" width="18" height="18" fill="#EE8130"/>
<rect x="432" y="864" width="18" height="18" fill="#EE8130"/>
<rect x="450" y="864" width="18" height="18" fill="#EE8130"/>
<rect x="468" y="864" width="18" height="18" fill="#EE8130"/>
<rect x="486" y="864" width="18" height="18" fill="#EE8130"/>
<rect x="504" y="864" width="18" height="18" fill="#EE8130"/>
<rect x="234" y="882" width="18" height="18" fill="#EE8130"/>
<rect x="252" y="882" width="18" height="18" fill="#EE8130"/>
<rect x="270" y="882" width="18" height="18" fill="#EE8130"/>
<rect x="288" y="882" width="18" height="18" fill="#EE8130"/>
<rect x="306" y="882" width="18" height="18" fill="#EE8130"/>
<rect x="324" y="882" width="18" height="18" fill="#EE8130"/>
<rect x="342" y="882" width="18" height="18" fill="#EE8130"/>
<rect x="360" y="882" width="18" height="18" fill="#EE8130"/>
<rect x="378" y="882" width="18" height="18" fill="#EE8130"/>
<rect x="396" y="882" width="18" height="18" fill="#EE8130"/>
<rect x="414" y="882" width="18" height="18" fill="#EE8130"/>
<rect x="432" y="882" width="18" height="18" fill="#EE8130"/>
<rect x="450" y="882" width="18" height="18" fill="#EE8130"/>
<rect x="468" y="882" width="18" height="18" fill="#EE8130"/>
</svg>
