<svg width="1029" height="966" viewBox="0 0 1029 966" fill="none" xmlns="http://www.w3.org/2000/svg">
<rect x="966" width="21" height="21" fill="#70CF40"/>
<rect x="945" y="21" width="21" height="21" fill="#7AC74C"/>
<rect x="966" y="21" width="21" height="21" fill="#7AC74C"/>
<rect x="987" y="21" width="21" height="21" fill="#7AC74C"/>
<rect x="1008" y="21" width="21" height="21" fill="#7AC74C"/>
<rect x="924" y="42" width="21" height="21" fill="#7AC74C"/>
<rect x="945" y="42" width="21" height="21" fill="#7AC74C"/>
<rect x="966" y="42" width="21" height="21" fill="#7AC74C"/>
<rect x="987" y="42" width="21" height="21" fill="#7AC74C"/>
<rect x="1008" y="42" width="21" height="21" fill="#7AC74C"/>
<rect x="903" y="63" width="21" height="21" fill="#7AC74C"/>
<rect x="924" y="63" width="21" height="21" fill="#7AC74C"/>
<rect x="945" y="63" width="21" height="21" fill="#7AC74C"/>
<rect x="966" y="63" width="21" height="21" fill="#7AC74C"/>
<rect x="987" y="63" width="21" height="21" fill="#7AC74C"/>
<rect x="1008" y="63" width="21" height="21" fill="#7AC74C"/>
<rect x="882" y="84" width="21" height="21" fill="#7AC74C"/>
<rect x="903" y="84" width="21" height="21" fill="#7AC74C"/>
<rect x="924" y="84" width="21" height="21" fill="#7AC74C"/>
<rect x="945" y="84" width="21" height="21" fill="#7AC74C"/>
<rect x="966" y="84" width="21" height="21" fill="#7AC74C"/>
<rect x="987" y="84" width="21" height="21" fill="#7AC74C"/>
<rect x="1008" y="84" width="21" height="21" fill="#7AC74C"/>
<rect x="840" y="105" width="21" height="21" fill="#7AC74C"/>
<rect x="861" y="105" width="21" height="21" fill="#7AC74C"/>
<rect x="882" y="105" width="21" height="21" fill="#7AC74C"/>
<rect x="903" y="105" width="21" height="21" fill="#7AC74C"/>
<rect x="924" y="105" width="21" height="21" fill="#7AC74C"/>
<rect x="966" y="105" width="21" height="21" fill="#7AC74C"/>
<rect x="987" y="105" width="21" height="21" fill="#7AC74C"/>
<rect x="1008" y="105" width="21" height="21" fill="#7AC74C"/>
<rect x="819" y="126" width="21" height="21" fill="#7AC74C"/>
<rect x="840" y="126" width="21" height="21" fill="#7AC74C"/>
<rect x="861" y="126" width="21" height="21" fill="#7AC74C"/>
<rect x="882" y="126" width="21" height="21" fill="#7AC74C"/>
<rect x="903" y="126" width="21" height="21" fill="#7AC74C"/>
<rect x="966" y="126" width="21" height="21" fill="#7AC74C"/>
<rect x="987" y="126" width="21" height="21" fill="#7AC74C"/>
<rect x="1008" y="126" width="21" height="21" fill="#7AC74C"/>
<rect x="777" y="147" width="21" height="21" fill="#7AC74C"/>
<rect x="798" y="147" width="21" height="21" fill="#7AC74C"/>
<rect x="819" y="147" width="21" height="21" fill="#7AC74C"/>
<rect x="840" y="147" width="21" height="21" fill="#7AC74C"/>
<rect x="861" y="147" width="21" height="21" fill="#7AC74C"/>
<rect x="882" y="147" width="21" height="21" fill="#7AC74C"/>
<rect x="966" y="147" width="21" height="21" fill="#7AC74C"/>
<rect x="987" y="147" width="21" height="21" fill="#7AC74C"/>
<rect x="1008" y="147" width="21" height="21" fill="#7AC74C"/>
<rect x="714" y="168" width="21" height="21" fill="#7AC74C"/>
<rect x="735" y="168" width="21" height="21" fill="#7AC74C"/>
<rect x="756" y="168" width="21" height="21" fill="#7AC74C"/>
<rect x="777" y="168" width="21" height="21" fill="#7AC74C"/>
<rect x="798" y="168" width="21" height="21" fill="#7AC74C"/>
<rect x="819" y="168" width="21" height="21" fill="#7AC74C"/>
<rect x="840" y="168" width="21" height="21" fill="#7AC74C"/>
<rect x="966" y="168" width="21" height="21" fill="#7AC74C"/>
<rect x="987" y="168" width="21" height="21" fill="#7AC74C"/>
<rect x="1008" y="168" width="21" height="21" fill="#7AC74C"/>
<rect x="609" y="189" width="21" height="21" fill="#7AC74C"/>
<rect x="630" y="189" width="21" height="21" fill="#7AC74C"/>
<rect x="651" y="189" width="21" height="21" fill="#7AC74C"/>
<rect x="672" y="189" width="21" height="21" fill="#7AC74C"/>
<rect x="693" y="189" width="21" height="21" fill="#7AC74C"/>
<rect x="714" y="189" width="21" height="21" fill="#7AC74C"/>
<rect x="735" y="189" width="21" height="21" fill="#7AC74C"/>
<rect x="756" y="189" width="21" height="21" fill="#7AC74C"/>
<rect x="777" y="189" width="21" height="21" fill="#7AC74C"/>
<rect x="798" y="189" width="21" height="21" fill="#7AC74C"/>
<rect x="966" y="189" width="21" height="21" fill="#7AC74C"/>
<rect x="987" y="189" width="21" height="21" fill="#7AC74C"/>
<rect x="1008" y="189" width="21" height="21" fill="#7AC74C"/>
<rect x="441" y="210" width="21" height="21" fill="#7AC74C"/>
<rect x="462" y="210" width="21" height="21" fill="#7AC74C"/>
<rect x="483" y="210" width="21" height="21" fill="#7AC74C"/>
<rect x="504" y="210" width="21" height="21" fill="#7AC74C"/>
<rect x="525" y="210" width="21" height="21" fill="#7AC74C"/>
<rect x="546" y="210" width="21" height="21" fill="#7AC74C"/>
<rect x="567" y="210" width="21" height="21" fill="#7AC74C"/>
<rect x="588" y="210" width="21" height="21" fill="#7AC74C"/>
<rect x="609" y="210" width="21" height="21" fill="#7AC74C"/>
<rect x="630" y="210" width="21" height="21" fill="#7AC74C"/>
<rect x="651" y="210" width="21" height="21" fill="#7AC74C"/>
<rect x="672" y="210" width="21" height="21" fill="#7AC74C"/>
<rect x="693" y="210" width="21" height="21" fill="#7AC74C"/>
<rect x="714" y="210" width="21" height="21" fill="#7AC74C"/>
<rect x="735" y="210" width="21" height="21" fill="#7AC74C"/>
<rect x="756" y="210" width="21" height="21" fill="#7AC74C"/>
<rect x="966" y="210" width="21" height="21" fill="#7AC74C"/>
<rect x="987" y="210" width="21" height="21" fill="#7AC74C"/>
<rect x="1008" y="210" width="21" height="21" fill="#7AC74C"/>
<rect x="399" y="231" width="21" height="21" fill="#7AC74C"/>
<rect x="420" y="231" width="21" height="21" fill="#7AC74C"/>
<rect x="441" y="231" width="21" height="21" fill="#7AC74C"/>
<rect x="462" y="231" width="21" height="21" fill="#7AC74C"/>
<rect x="483" y="231" width="21" height="21" fill="#7AC74C"/>
<rect x="504" y="231" width="21" height="21" fill="#7AC74C"/>
<rect x="525" y="231" width="21" height="21" fill="#7AC74C"/>
<rect x="546" y="231" width="21" height="21" fill="#7AC74C"/>
<rect x="567" y="231" width="21" height="21" fill="#7AC74C"/>
<rect x="588" y="231" width="21" height="21" fill="#7AC74C"/>
<rect x="609" y="231" width="21" height="21" fill="#7AC74C"/>
<rect x="630" y="231" width="21" height="21" fill="#7AC74C"/>
<rect x="651" y="231" width="21" height="21" fill="#7AC74C"/>
<rect x="672" y="231" width="21" height="21" fill="#7AC74C"/>
<rect x="693" y="231" width="21" height="21" fill="#7AC74C"/>
<rect x="966" y="231" width="21" height="21" fill="#7AC74C"/>
<rect x="987" y="231" width="21" height="21" fill="#7AC74C"/>
<rect x="1008" y="231" width="21" height="21" fill="#7AC74C"/>
<rect x="357" y="252" width="21" height="21" fill="#7AC74C"/>
<rect x="378" y="252" width="21" height="21" fill="#7AC74C"/>
<rect x="399" y="252" width="21" height="21" fill="#7AC74C"/>
<rect x="420" y="252" width="21" height="21" fill="#7AC74C"/>
<rect x="441" y="252" width="21" height="21" fill="#7AC74C"/>
<rect x="462" y="252" width="21" height="21" fill="#7AC74C"/>
<rect x="483" y="252" width="21" height="21" fill="#7AC74C"/>
<rect x="504" y="252" width="21" height="21" fill="#7AC74C"/>
<rect x="525" y="252" width="21" height="21" fill="#7BC74D"/>
<rect x="966" y="252" width="21" height="21" fill="#7AC74C"/>
<rect x="987" y="252" width="21" height="21" fill="#7AC74C"/>
<rect x="1008" y="252" width="21" height="21" fill="#7AC74C"/>
<rect x="336" y="273" width="21" height="21" fill="#7AC74C"/>
<rect x="357" y="273" width="21" height="21" fill="#7AC74C"/>
<rect x="378" y="273" width="21" height="21" fill="#7AC74C"/>
<rect x="399" y="273" width="21" height="21" fill="#7AC74C"/>
<rect x="420" y="273" width="21" height="21" fill="#7AC74C"/>
<rect x="966" y="273" width="21" height="21" fill="#7AC74C"/>
<rect x="987" y="273" width="21" height="21" fill="#7AC74C"/>
<rect x="1008" y="273" width="21" height="21" fill="#7AC74C"/>
<rect x="315" y="294" width="21" height="21" fill="#7AC74C"/>
<rect x="336" y="294" width="21" height="21" fill="#7AC74C"/>
<rect x="357" y="294" width="21" height="21" fill="#7AC74C"/>
<rect x="378" y="294" width="21" height="21" fill="#7AC74C"/>
<rect x="966" y="294" width="21" height="21" fill="#7AC74C"/>
<rect x="987" y="294" width="21" height="21" fill="#7AC74C"/>
<rect x="1008" y="294" width="21" height="21" fill="#7AC74C"/>
<rect x="294" y="315" width="21" height="21" fill="#7AC74C"/>
<rect x="315" y="315" width="21" height="21" fill="#7AC74C"/>
<rect x="336" y="315" width="21" height="21" fill="#7AC74C"/>
<rect x="357" y="315" width="21" height="21" fill="#7AC74C"/>
<rect x="966" y="315" width="21" height="21" fill="#7AC74C"/>
<rect x="987" y="315" width="21" height="21" fill="#7AC74C"/>
<rect x="1008" y="315" width="21" height="21" fill="#7AC74C"/>
<rect x="273" y="336" width="21" height="21" fill="#7AC74C"/>
<rect x="294" y="336" width="21" height="21" fill="#7AC74C"/>
<rect x="315" y="336" width="21" height="21" fill="#7AC74C"/>
<rect x="336" y="336" width="21" height="21" fill="#7AC74C"/>
<rect x="357" y="336" width="21" height="21" fill="#7AC74C"/>
<rect x="378" y="336" width="21" height="21" fill="#7AC74C"/>
<rect x="399" y="336" width="21" height="21" fill="#7AC74C"/>
<rect x="420" y="336" width="21" height="21" fill="#7AC74C"/>
<rect x="441" y="336" width="21" height="21" fill="#7AC74C"/>
<rect x="462" y="336" width="21" height="21" fill="#7AC74C"/>
<rect x="483" y="336" width="21" height="21" fill="#7AC74C"/>
<rect x="504" y="336" width="21" height="21" fill="#7AC74C"/>
<rect x="525" y="336" width="21" height="21" fill="#7AC74C"/>
<rect x="546" y="336" width="21" height="21" fill="#7AC74C"/>
<rect x="567" y="336" width="21" height="21" fill="#7AC74C"/>
<rect x="588" y="336" width="21" height="21" fill="#7AC74C"/>
<rect x="609" y="336" width="21" height="21" fill="#7AC74C"/>
<rect x="630" y="336" width="21" height="21" fill="#7AC74C"/>
<rect x="966" y="336" width="21" height="21" fill="#7AC74C"/>
<rect x="987" y="336" width="21" height="21" fill="#7AC74C"/>
<rect x="1008" y="336" width="21" height="21" fill="#7AC74C"/>
<rect x="252" y="357" width="21" height="21" fill="#7AC74C"/>
<rect x="273" y="357" width="21" height="21" fill="#7AC74C"/>
<rect x="294" y="357" width="21" height="21" fill="#7AC74C"/>
<rect x="315" y="357" width="21" height="21" fill="#7AC74C"/>
<rect x="336" y="357" width="21" height="21" fill="#7AC74C"/>
<rect x="357" y="357" width="21" height="21" fill="#7AC74C"/>
<rect x="378" y="357" width="21" height="21" fill="#7AC74C"/>
<rect x="399" y="357" width="21" height="21" fill="#7AC74C"/>
<rect x="420" y="357" width="21" height="21" fill="#7AC74C"/>
<rect x="441" y="357" width="21" height="21" fill="#7AC74C"/>
<rect x="462" y="357" width="21" height="21" fill="#7AC74C"/>
<rect x="483" y="357" width="21" height="21" fill="#7AC74C"/>
<rect x="504" y="357" width="21" height="21" fill="#7AC74C"/>
<rect x="525" y="357" width="21" height="21" fill="#7AC74C"/>
<rect x="546" y="357" width="21" height="21" fill="#7AC74C"/>
<rect x="567" y="357" width="21" height="21" fill="#7AC74C"/>
<rect x="588" y="357" width="21" height="21" fill="#7AC74C"/>
<rect x="609" y="357" width="21" height="21" fill="#7AC74C"/>
<rect x="630" y="357" width="21" height="21" fill="#7AC74C"/>
<rect x="651" y="357" width="21" height="21" fill="#7AC74C"/>
<rect x="966" y="357" width="21" height="21" fill="#7AC74C"/>
<rect x="987" y="357" width="21" height="21" fill="#7AC74C"/>
<rect x="1008" y="357" width="21" height="21" fill="#7AC74C"/>
<rect x="252" y="378" width="21" height="21" fill="#7AC74C"/>
<rect x="273" y="378" width="21" height="21" fill="#7AC74C"/>
<rect x="294" y="378" width="21" height="21" fill="#7AC74C"/>
<rect x="315" y="378" width="21" height="21" fill="#7AC74C"/>
<rect x="336" y="378" width="21" height="21" fill="#7AC74C"/>
<rect x="357" y="378" width="21" height="21" fill="#7AC74C"/>
<rect x="378" y="378" width="21" height="21" fill="#7AC74C"/>
<rect x="399" y="378" width="21" height="21" fill="#7AC74C"/>
<rect x="420" y="378" width="21" height="21" fill="#7AC74C"/>
<rect x="441" y="378" width="21" height="21" fill="#7AC74C"/>
<rect x="462" y="378" width="21" height="21" fill="#7AC74C"/>
<rect x="483" y="378" width="21" height="21" fill="#7AC74C"/>
<rect x="504" y="378" width="21" height="21" fill="#7AC74C"/>
<rect x="525" y="378" width="21" height="21" fill="#7AC74C"/>
<rect x="546" y="378" width="21" height="21" fill="#7AC74C"/>
<rect x="567" y="378" width="21" height="21" fill="#7AC74C"/>
<rect x="588" y="378" width="21" height="21" fill="#7AC74C"/>
<rect x="609" y="378" width="21" height="21" fill="#7AC74C"/>
<rect x="630" y="378" width="21" height="21" fill="#7AC74C"/>
<rect x="651" y="378" width="21" height="21" fill="#7AC74C"/>
<rect x="672" y="378" width="21" height="21" fill="#7AC74C"/>
<rect x="966" y="378" width="21" height="21" fill="#7AC74C"/>
<rect x="987" y="378" width="21" height="21" fill="#7AC74C"/>
<rect x="1008" y="378" width="21" height="21" fill="#7AC74C"/>
<rect x="231" y="399" width="21" height="21" fill="#7AC74C"/>
<rect x="252" y="399" width="21" height="21" fill="#7AC74C"/>
<rect x="273" y="399" width="21" height="21" fill="#7AC74C"/>
<rect x="294" y="399" width="21" height="21" fill="#7AC74C"/>
<rect x="630" y="399" width="21" height="21" fill="#7AC74C"/>
<rect x="651" y="399" width="21" height="21" fill="#7AC74C"/>
<rect x="672" y="399" width="21" height="21" fill="#7AC74C"/>
<rect x="693" y="399" width="21" height="21" fill="#7AC74C"/>
<rect x="966" y="399" width="21" height="21" fill="#7AC74C"/>
<rect x="987" y="399" width="21" height="21" fill="#7AC74C"/>
<rect x="1008" y="399" width="21" height="21" fill="#7AC74C"/>
<rect x="231" y="420" width="21" height="21" fill="#7AC74C"/>
<rect x="651" y="420" width="21" height="21" fill="#7AC74C"/>
<rect x="672" y="420" width="21" height="21" fill="#7AC74C"/>
<rect x="693" y="420" width="21" height="21" fill="#7AC74C"/>
<rect x="966" y="420" width="21" height="21" fill="#7AC74C"/>
<rect x="987" y="420" width="21" height="21" fill="#7AC74C"/>
<rect x="1008" y="420" width="21" height="21" fill="#7AC74C"/>
<rect x="651" y="441" width="21" height="21" fill="#7AC74C"/>
<rect x="672" y="441" width="21" height="21" fill="#7AC74C"/>
<rect x="693" y="441" width="21" height="21" fill="#7AC74C"/>
<rect x="966" y="441" width="21" height="21" fill="#7AC74C"/>
<rect x="987" y="441" width="21" height="21" fill="#7AC74C"/>
<rect x="1008" y="441" width="21" height="21" fill="#7AC74C"/>
<rect x="630" y="462" width="21" height="21" fill="#7AC74C"/>
<rect x="651" y="462" width="21" height="21" fill="#7AC74C"/>
<rect x="672" y="462" width="21" height="21" fill="#7AC74C"/>
<rect x="693" y="462" width="21" height="21" fill="#7AC74C"/>
<rect x="966" y="462" width="21" height="21" fill="#7AC74C"/>
<rect x="987" y="462" width="21" height="21" fill="#7AC74C"/>
<rect x="1008" y="462" width="21" height="21" fill="#7AC74C"/>
<rect x="378" y="483" width="21" height="21" fill="#7BC74D"/>
<rect x="399" y="483" width="21" height="21" fill="#7AC74C"/>
<rect x="420" y="483" width="21" height="21" fill="#7AC74C"/>
<rect x="441" y="483" width="21" height="21" fill="#7AC74C"/>
<rect x="462" y="483" width="21" height="21" fill="#7AC74C"/>
<rect x="483" y="483" width="21" height="21" fill="#7AC74C"/>
<rect x="504" y="483" width="21" height="21" fill="#7AC74C"/>
<rect x="525" y="483" width="21" height="21" fill="#7AC74C"/>
<rect x="546" y="483" width="21" height="21" fill="#7AC74C"/>
<rect x="567" y="483" width="21" height="21" fill="#7AC74C"/>
<rect x="588" y="483" width="21" height="21" fill="#7AC74C"/>
<rect x="609" y="483" width="21" height="21" fill="#7AC74C"/>
<rect x="630" y="483" width="21" height="21" fill="#7AC74C"/>
<rect x="651" y="483" width="21" height="21" fill="#7AC74C"/>
<rect x="672" y="483" width="21" height="21" fill="#7AC74C"/>
<rect x="966" y="483" width="21" height="21" fill="#7AC74C"/>
<rect x="987" y="483" width="21" height="21" fill="#7AC74C"/>
<rect x="1008" y="483" width="21" height="21" fill="#7AC74C"/>
<rect x="294" y="504" width="21" height="21" fill="#7AC74C"/>
<rect x="315" y="504" width="21" height="21" fill="#7AC74C"/>
<rect x="336" y="504" width="21" height="21" fill="#7AC74C"/>
<rect x="357" y="504" width="21" height="21" fill="#7AC74C"/>
<rect x="378" y="504" width="21" height="21" fill="#7AC74C"/>
<rect x="399" y="504" width="21" height="21" fill="#7AC74C"/>
<rect x="420" y="504" width="21" height="21" fill="#7AC74C"/>
<rect x="441" y="504" width="21" height="21" fill="#7AC74C"/>
<rect x="462" y="504" width="21" height="21" fill="#7AC74C"/>
<rect x="483" y="504" width="21" height="21" fill="#7AC74C"/>
<rect x="504" y="504" width="21" height="21" fill="#7AC74C"/>
<rect x="525" y="504" width="21" height="21" fill="#7AC74C"/>
<rect x="546" y="504" width="21" height="21" fill="#7AC74C"/>
<rect x="567" y="504" width="21" height="21" fill="#7AC74C"/>
<rect x="588" y="504" width="21" height="21" fill="#7AC74C"/>
<rect x="609" y="504" width="21" height="21" fill="#7AC74C"/>
<rect x="630" y="504" width="21" height="21" fill="#7AC74C"/>
<rect x="651" y="504" width="21" height="21" fill="#7AC74C"/>
<rect x="672" y="504" width="21" height="21" fill="#78C748"/>
<rect x="966" y="504" width="21" height="21" fill="#7AC74C"/>
<rect x="987" y="504" width="21" height="21" fill="#7AC74C"/>
<rect x="1008" y="504" width="21" height="21" fill="#7AC74C"/>
<rect x="252" y="525" width="21" height="21" fill="#7AC74C"/>
<rect x="273" y="525" width="21" height="21" fill="#7AC74C"/>
<rect x="294" y="525" width="21" height="21" fill="#7AC74C"/>
<rect x="315" y="525" width="21" height="21" fill="#7AC74C"/>
<rect x="336" y="525" width="21" height="21" fill="#7AC74C"/>
<rect x="357" y="525" width="21" height="21" fill="#7AC74C"/>
<rect x="378" y="525" width="21" height="21" fill="#7AC74C"/>
<rect x="399" y="525" width="21" height="21" fill="#7AC74C"/>
<rect x="420" y="525" width="21" height="21" fill="#7AC74C"/>
<rect x="441" y="525" width="21" height="21" fill="#7AC74C"/>
<rect x="462" y="525" width="21" height="21" fill="#7AC74C"/>
<rect x="483" y="525" width="21" height="21" fill="#7AC74C"/>
<rect x="504" y="525" width="21" height="21" fill="#7AC74C"/>
<rect x="525" y="525" width="21" height="21" fill="#7AC74C"/>
<rect x="546" y="525" width="21" height="21" fill="#7AC74C"/>
<rect x="567" y="525" width="21" height="21" fill="#7AC74C"/>
<rect x="588" y="525" width="21" height="21" fill="#7AC74C"/>
<rect x="609" y="525" width="21" height="21" fill="#7AC74C"/>
<rect x="630" y="525" width="21" height="21" fill="#7AC74C"/>
<rect x="966" y="525" width="21" height="21" fill="#7AC74C"/>
<rect x="987" y="525" width="21" height="21" fill="#7AC74C"/>
<rect x="1008" y="525" width="21" height="21" fill="#7AC74C"/>
<rect x="210" y="546" width="21" height="21" fill="#7AC74C"/>
<rect x="231" y="546" width="21" height="21" fill="#7AC74C"/>
<rect x="252" y="546" width="21" height="21" fill="#7AC74C"/>
<rect x="273" y="546" width="21" height="21" fill="#7AC74C"/>
<rect x="294" y="546" width="21" height="21" fill="#7AC74C"/>
<rect x="315" y="546" width="21" height="21" fill="#7AC74C"/>
<rect x="336" y="546" width="21" height="21" fill="#7AC74C"/>
<rect x="357" y="546" width="21" height="21" fill="#7AC74C"/>
<rect x="945" y="546" width="21" height="21" fill="#7AC74C"/>
<rect x="966" y="546" width="21" height="21" fill="#7AC74C"/>
<rect x="987" y="546" width="21" height="21" fill="#7AC74C"/>
<rect x="189" y="567" width="21" height="21" fill="#7AC74C"/>
<rect x="210" y="567" width="21" height="21" fill="#7AC74C"/>
<rect x="231" y="567" width="21" height="21" fill="#7AC74C"/>
<rect x="252" y="567" width="21" height="21" fill="#7AC74C"/>
<rect x="273" y="567" width="21" height="21" fill="#7AC74C"/>
<rect x="945" y="567" width="21" height="21" fill="#7AC74C"/>
<rect x="966" y="567" width="21" height="21" fill="#7AC74C"/>
<rect x="987" y="567" width="21" height="21" fill="#7AC74C"/>
<rect x="147" y="588" width="21" height="21" fill="#7AC74C"/>
<rect x="168" y="588" width="21" height="21" fill="#7AC74C"/>
<rect x="189" y="588" width="21" height="21" fill="#7AC74C"/>
<rect x="210" y="588" width="21" height="21" fill="#7AC74C"/>
<rect x="231" y="588" width="21" height="21" fill="#7AC74C"/>
<rect x="945" y="588" width="21" height="21" fill="#7AC74C"/>
<rect x="966" y="588" width="21" height="21" fill="#7AC74C"/>
<rect x="987" y="588" width="21" height="21" fill="#7AC74C"/>
<rect x="126" y="609" width="21" height="21" fill="#7AC74C"/>
<rect x="147" y="609" width="21" height="21" fill="#7AC74C"/>
<rect x="168" y="609" width="21" height="21" fill="#7AC74C"/>
<rect x="189" y="609" width="21" height="21" fill="#7AC74C"/>
<rect x="210" y="609" width="21" height="21" fill="#7AC74C"/>
<rect x="231" y="609" width="21" height="21" fill="#7AC74C"/>
<rect x="252" y="609" width="21" height="21" fill="#7AC74C"/>
<rect x="924" y="609" width="21" height="21" fill="#7AC74C"/>
<rect x="945" y="609" width="21" height="21" fill="#7AC74C"/>
<rect x="966" y="609" width="21" height="21" fill="#7AC74C"/>
<rect x="105" y="630" width="21" height="21" fill="#7AC74C"/>
<rect x="126" y="630" width="21" height="21" fill="#7AC74C"/>
<rect x="147" y="630" width="21" height="21" fill="#7AC74C"/>
<rect x="168" y="630" width="21" height="21" fill="#7AC74C"/>
<rect x="189" y="630" width="21" height="21" fill="#7AC74C"/>
<rect x="210" y="630" width="21" height="21" fill="#7AC74C"/>
<rect x="231" y="630" width="21" height="21" fill="#7AC74C"/>
<rect x="252" y="630" width="21" height="21" fill="#7AC74C"/>
<rect x="924" y="630" width="21" height="21" fill="#7AC74C"/>
<rect x="945" y="630" width="21" height="21" fill="#7AC74C"/>
<rect x="966" y="630" width="21" height="21" fill="#7AC74C"/>
<rect x="105" y="651" width="21" height="21" fill="#7AC74C"/>
<rect x="126" y="651" width="21" height="21" fill="#7AC74C"/>
<rect x="147" y="651" width="21" height="21" fill="#7AC74C"/>
<rect x="168" y="651" width="21" height="21" fill="#7AC74C"/>
<rect x="189" y="651" width="21" height="21" fill="#7AC74C"/>
<rect x="210" y="651" width="21" height="21" fill="#7AC74C"/>
<rect x="231" y="651" width="21" height="21" fill="#7AC74C"/>
<rect x="252" y="651" width="21" height="21" fill="#7AC74C"/>
<rect x="903" y="651" width="21" height="21" fill="#7AC74C"/>
<rect x="924" y="651" width="21" height="21" fill="#7AC74C"/>
<rect x="945" y="651" width="21" height="21" fill="#7AC74C"/>
<rect x="84" y="672" width="21" height="21" fill="#7AC74C"/>
<rect x="105" y="672" width="21" height="21" fill="#7AC74C"/>
<rect x="126" y="672" width="21" height="21" fill="#7AC74C"/>
<rect x="147" y="672" width="21" height="21" fill="#7AC74C"/>
<rect x="168" y="672" width="21" height="21" fill="#7AC74C"/>
<rect x="189" y="672" width="21" height="21" fill="#7AC74C"/>
<rect x="231" y="672" width="21" height="21" fill="#7AC74C"/>
<rect x="252" y="672" width="21" height="21" fill="#7AC74C"/>
<rect x="273" y="672" width="21" height="21" fill="#7AC74C"/>
<rect x="882" y="672" width="21" height="21" fill="#7AC74C"/>
<rect x="903" y="672" width="21" height="21" fill="#7AC74C"/>
<rect x="924" y="672" width="21" height="21" fill="#7AC74C"/>
<rect x="945" y="672" width="21" height="21" fill="#7AC74C"/>
<rect x="63" y="693" width="21" height="21" fill="#7AC74C"/>
<rect x="84" y="693" width="21" height="21" fill="#7AC74C"/>
<rect x="105" y="693" width="21" height="21" fill="#7AC74C"/>
<rect x="126" y="693" width="21" height="21" fill="#7AC74C"/>
<rect x="147" y="693" width="21" height="21" fill="#7AC74C"/>
<rect x="168" y="693" width="21" height="21" fill="#7AC74C"/>
<rect x="231" y="693" width="21" height="21" fill="#7AC74C"/>
<rect x="252" y="693" width="21" height="21" fill="#7AC74C"/>
<rect x="273" y="693" width="21" height="21" fill="#7AC74C"/>
<rect x="861" y="693" width="21" height="21" fill="#7AC74D"/>
<rect x="882" y="693" width="21" height="21" fill="#7AC74C"/>
<rect x="903" y="693" width="21" height="21" fill="#7AC74C"/>
<rect x="924" y="693" width="21" height="21" fill="#7AC74C"/>
<rect x="63" y="714" width="21" height="21" fill="#7AC74C"/>
<rect x="84" y="714" width="21" height="21" fill="#7AC74C"/>
<rect x="105" y="714" width="21" height="21" fill="#7AC74C"/>
<rect x="126" y="714" width="21" height="21" fill="#7AC74C"/>
<rect x="147" y="714" width="21" height="21" fill="#7AC74C"/>
<rect x="252" y="714" width="21" height="21" fill="#7AC74C"/>
<rect x="273" y="714" width="21" height="21" fill="#7AC74C"/>
<rect x="294" y="714" width="21" height="21" fill="#7AC74C"/>
<rect x="840" y="714" width="21" height="21" fill="#70CF40"/>
<rect x="861" y="714" width="21" height="21" fill="#7AC74C"/>
<rect x="882" y="714" width="21" height="21" fill="#7AC74C"/>
<rect x="903" y="714" width="21" height="21" fill="#7AC74C"/>
<rect x="42" y="735" width="21" height="21" fill="#7AC74C"/>
<rect x="63" y="735" width="21" height="21" fill="#7AC74C"/>
<rect x="84" y="735" width="21" height="21" fill="#7AC74C"/>
<rect x="105" y="735" width="21" height="21" fill="#7AC74C"/>
<rect x="126" y="735" width="21" height="21" fill="#7AC74C"/>
<rect x="252" y="735" width="21" height="21" fill="#7AC74C"/>
<rect x="273" y="735" width="21" height="21" fill="#7AC74C"/>
<rect x="294" y="735" width="21" height="21" fill="#7AC74C"/>
<rect x="315" y="735" width="21" height="21" fill="#7AC74C"/>
<rect x="819" y="735" width="21" height="21" fill="#7AC74C"/>
<rect x="840" y="735" width="21" height="21" fill="#7AC74C"/>
<rect x="861" y="735" width="21" height="21" fill="#7AC74C"/>
<rect x="882" y="735" width="21" height="21" fill="#7AC74C"/>
<rect x="903" y="735" width="21" height="21" fill="#79C74B"/>
<rect x="42" y="756" width="21" height="21" fill="#7AC74C"/>
<rect x="63" y="756" width="21" height="21" fill="#7AC74C"/>
<rect x="84" y="756" width="21" height="21" fill="#7AC74C"/>
<rect x="105" y="756" width="21" height="21" fill="#7AC74C"/>
<rect x="126" y="756" width="21" height="21" fill="#7AC74C"/>
<rect x="273" y="756" width="21" height="21" fill="#7AC74C"/>
<rect x="294" y="756" width="21" height="21" fill="#7AC74C"/>
<rect x="315" y="756" width="21" height="21" fill="#7AC74C"/>
<rect x="336" y="756" width="21" height="21" fill="#7AC74C"/>
<rect x="798" y="756" width="21" height="21" fill="#7AC74C"/>
<rect x="819" y="756" width="21" height="21" fill="#7AC74C"/>
<rect x="840" y="756" width="21" height="21" fill="#7AC74C"/>
<rect x="861" y="756" width="21" height="21" fill="#7AC74C"/>
<rect x="882" y="756" width="21" height="21" fill="#7AC74C"/>
<rect x="21" y="777" width="21" height="21" fill="#7AC74B"/>
<rect x="42" y="777" width="21" height="21" fill="#7AC74C"/>
<rect x="63" y="777" width="21" height="21" fill="#7AC74C"/>
<rect x="84" y="777" width="21" height="21" fill="#7AC74C"/>
<rect x="105" y="777" width="21" height="21" fill="#7AC74C"/>
<rect x="294" y="777" width="21" height="21" fill="#7AC74C"/>
<rect x="315" y="777" width="21" height="21" fill="#7AC74C"/>
<rect x="336" y="777" width="21" height="21" fill="#7AC74C"/>
<rect x="357" y="777" width="21" height="21" fill="#7AC74C"/>
<rect x="777" y="777" width="21" height="21" fill="#7AC74C"/>
<rect x="798" y="777" width="21" height="21" fill="#7AC74C"/>
<rect x="819" y="777" width="21" height="21" fill="#7AC74C"/>
<rect x="840" y="777" width="21" height="21" fill="#7AC74C"/>
<rect x="861" y="777" width="21" height="21" fill="#7AC54C"/>
<rect x="21" y="798" width="21" height="21" fill="#7AC74C"/>
<rect x="42" y="798" width="21" height="21" fill="#7AC74C"/>
<rect x="63" y="798" width="21" height="21" fill="#7AC74C"/>
<rect x="84" y="798" width="21" height="21" fill="#7AC74C"/>
<rect x="105" y="798" width="21" height="21" fill="#7AC74C"/>
<rect x="315" y="798" width="21" height="21" fill="#7AC74C"/>
<rect x="336" y="798" width="21" height="21" fill="#7AC74C"/>
<rect x="357" y="798" width="21" height="21" fill="#7AC74C"/>
<rect x="378" y="798" width="21" height="21" fill="#7AC74C"/>
<rect x="399" y="798" width="21" height="21" fill="#7AC74C"/>
<rect x="735" y="798" width="21" height="21" fill="#7AC74C"/>
<rect x="756" y="798" width="21" height="21" fill="#7AC74C"/>
<rect x="777" y="798" width="21" height="21" fill="#7AC74C"/>
<rect x="798" y="798" width="21" height="21" fill="#7AC74C"/>
<rect x="819" y="798" width="21" height="21" fill="#7AC74C"/>
<rect x="21" y="819" width="21" height="21" fill="#7AC74C"/>
<rect x="42" y="819" width="21" height="21" fill="#7AC74C"/>
<rect x="63" y="819" width="21" height="21" fill="#7AC74C"/>
<rect x="84" y="819" width="21" height="21" fill="#7AC74C"/>
<rect x="105" y="819" width="21" height="21" fill="#7AC74C"/>
<rect x="336" y="819" width="21" height="21" fill="#7AC74C"/>
<rect x="357" y="819" width="21" height="21" fill="#7AC74C"/>
<rect x="378" y="819" width="21" height="21" fill="#7AC74C"/>
<rect x="399" y="819" width="21" height="21" fill="#7AC74C"/>
<rect x="420" y="819" width="21" height="21" fill="#7AC74C"/>
<rect x="441" y="819" width="21" height="21" fill="#7AC74C"/>
<rect x="672" y="819" width="21" height="21" fill="#7AC74C"/>
<rect x="693" y="819" width="21" height="21" fill="#7AC74C"/>
<rect x="714" y="819" width="21" height="21" fill="#7AC74C"/>
<rect x="735" y="819" width="21" height="21" fill="#7AC74C"/>
<rect x="756" y="819" width="21" height="21" fill="#7AC74C"/>
<rect x="777" y="819" width="21" height="21" fill="#7AC74C"/>
<rect x="798" y="819" width="21" height="21" fill="#7AC74C"/>
<rect x="21" y="840" width="21" height="21" fill="#7AC74C"/>
<rect x="42" y="840" width="21" height="21" fill="#7AC74C"/>
<rect x="63" y="840" width="21" height="21" fill="#7AC74C"/>
<rect x="84" y="840" width="21" height="21" fill="#7AC74C"/>
<rect x="357" y="840" width="21" height="21" fill="#7AC74C"/>
<rect x="378" y="840" width="21" height="21" fill="#7AC74C"/>
<rect x="399" y="840" width="21" height="21" fill="#7AC74C"/>
<rect x="420" y="840" width="21" height="21" fill="#7AC74C"/>
<rect x="441" y="840" width="21" height="21" fill="#7AC74C"/>
<rect x="462" y="840" width="21" height="21" fill="#7AC74C"/>
<rect x="483" y="840" width="21" height="21" fill="#7AC74C"/>
<rect x="504" y="840" width="21" height="21" fill="#7AC74C"/>
<rect x="525" y="840" width="21" height="21" fill="#7AC74C"/>
<rect x="546" y="840" width="21" height="21" fill="#7AC74C"/>
<rect x="567" y="840" width="21" height="21" fill="#7AC74C"/>
<rect x="588" y="840" width="21" height="21" fill="#7AC74C"/>
<rect x="609" y="840" width="21" height="21" fill="#7AC74C"/>
<rect x="630" y="840" width="21" height="21" fill="#7AC74C"/>
<rect x="651" y="840" width="21" height="21" fill="#7AC74C"/>
<rect x="672" y="840" width="21" height="21" fill="#7AC74C"/>
<rect x="693" y="840" width="21" height="21" fill="#7AC74C"/>
<rect x="714" y="840" width="21" height="21" fill="#7AC74C"/>
<rect x="735" y="840" width="21" height="21" fill="#7AC74C"/>
<rect x="756" y="840" width="21" height="21" fill="#7AC74C"/>
<rect x="21" y="861" width="21" height="21" fill="#7AC74C"/>
<rect x="42" y="861" width="21" height="21" fill="#7AC74C"/>
<rect x="63" y="861" width="21" height="21" fill="#7AC74C"/>
<rect x="84" y="861" width="21" height="21" fill="#7AC74C"/>
<rect x="399" y="861" width="21" height="21" fill="#7AC74C"/>
<rect x="420" y="861" width="21" height="21" fill="#7AC74C"/>
<rect x="441" y="861" width="21" height="21" fill="#7AC74C"/>
<rect x="462" y="861" width="21" height="21" fill="#7AC74C"/>
<rect x="483" y="861" width="21" height="21" fill="#7AC74C"/>
<rect x="504" y="861" width="21" height="21" fill="#7AC74C"/>
<rect x="525" y="861" width="21" height="21" fill="#7AC74C"/>
<rect x="546" y="861" width="21" height="21" fill="#7AC74C"/>
<rect x="567" y="861" width="21" height="21" fill="#7AC74C"/>
<rect x="588" y="861" width="21" height="21" fill="#7AC74C"/>
<rect x="609" y="861" width="21" height="21" fill="#7AC74C"/>
<rect x="630" y="861" width="21" height="21" fill="#7AC74C"/>
<rect x="651" y="861" width="21" height="21" fill="#7AC74C"/>
<rect x="672" y="861" width="21" height="21" fill="#7AC74C"/>
<rect x="693" y="861" width="21" height="21" fill="#7AC74C"/>
<rect x="714" y="861" width="21" height="21" fill="#7AC74C"/>
<rect x="21" y="882" width="21" height="21" fill="#7AC74C"/>
<rect x="42" y="882" width="21" height="21" fill="#7AC74C"/>
<rect x="63" y="882" width="21" height="21" fill="#7AC74C"/>
<rect x="84" y="882" width="21" height="21" fill="#7AC74C"/>
<rect x="462" y="882" width="21" height="21" fill="#7AC74C"/>
<rect x="483" y="882" width="21" height="21" fill="#7AC74C"/>
<rect x="504" y="882" width="21" height="21" fill="#7AC74C"/>
<rect x="525" y="882" width="21" height="21" fill="#7AC74C"/>
<rect x="546" y="882" width="21" height="21" fill="#7AC74C"/>
<rect x="567" y="882" width="21" height="21" fill="#7AC74C"/>
<rect x="588" y="882" width="21" height="21" fill="#7AC74C"/>
<rect x="609" y="882" width="21" height="21" fill="#7AC74C"/>
<rect x="630" y="882" width="21" height="21" fill="#7AC74C"/>
<rect x="651" y="882" width="21" height="21" fill="#7AC74C"/>
<rect y="903" width="21" height="21" fill="#7AC74B"/>
<rect x="21" y="903" width="21" height="21" fill="#7AC74C"/>
<rect x="42" y="903" width="21" height="21" fill="#7AC74C"/>
<rect x="63" y="903" width="21" height="21" fill="#7AC74C"/>
<rect x="84" y="903" width="21" height="21" fill="#7AC74C"/>
<rect x="21" y="924" width="21" height="21" fill="#7AC74C"/>
<rect x="42" y="924" width="21" height="21" fill="#7AC74C"/>
<rect x="63" y="924" width="21" height="21" fill="#7AC74C"/>
<rect x="84" y="924" width="21" height="21" fill="#7AC74C"/>
<rect x="21" y="945" width="21" height="21" fill="#7AC74C"/>
<rect x="42" y="945" width="21" height="21" fill="#7AC74C"/>
<rect x="63" y="945" width="21" height="21" fill="#7AC74C"/>
</svg>
