<svg width="777" height="1071" viewBox="0 0 777 1071" fill="none" xmlns="http://www.w3.org/2000/svg">
<rect x="378" width="21" height="21" fill="#3A9BDB"/>
<rect x="336" y="21" width="21" height="21" fill="#3A9ADD"/>
<rect x="357" y="21" width="21" height="21" fill="#3A9BDC"/>
<rect x="378" y="21" width="21" height="21" fill="#3A9BDC"/>
<rect x="399" y="21" width="21" height="21" fill="#3A9BDC"/>
<rect x="420" y="21" width="21" height="21" fill="#3A9BDC"/>
<rect x="336" y="42" width="21" height="21" fill="#3A9BDC"/>
<rect x="357" y="42" width="21" height="21" fill="#3A9BDC"/>
<rect x="378" y="42" width="21" height="21" fill="#3A9BDC"/>
<rect x="399" y="42" width="21" height="21" fill="#3A9BDC"/>
<rect x="420" y="42" width="21" height="21" fill="#3A9BDC"/>
<rect x="441" y="42" width="21" height="21" fill="#3A9BDC"/>
<rect x="315" y="63" width="21" height="21" fill="#3A9BDC"/>
<rect x="336" y="63" width="21" height="21" fill="#3A9BDC"/>
<rect x="357" y="63" width="21" height="21" fill="#3A9BDC"/>
<rect x="378" y="63" width="21" height="21" fill="#3A9BDC"/>
<rect x="399" y="63" width="21" height="21" fill="#3A9BDC"/>
<rect x="420" y="63" width="21" height="21" fill="#3A9BDC"/>
<rect x="441" y="63" width="21" height="21" fill="#3A9BDC"/>
<rect x="462" y="63" width="21" height="21" fill="#399BDC"/>
<rect x="294" y="84" width="21" height="21" fill="#3A9BDC"/>
<rect x="315" y="84" width="21" height="21" fill="#3A9BDC"/>
<rect x="336" y="84" width="21" height="21" fill="#3A9BDC"/>
<rect x="357" y="84" width="21" height="21" fill="#3A9BDC"/>
<rect x="420" y="84" width="21" height="21" fill="#3A9BDC"/>
<rect x="441" y="84" width="21" height="21" fill="#3A9BDC"/>
<rect x="462" y="84" width="21" height="21" fill="#3A9BDC"/>
<rect x="294" y="105" width="21" height="21" fill="#3A9BDC"/>
<rect x="315" y="105" width="21" height="21" fill="#3A9BDC"/>
<rect x="336" y="105" width="21" height="21" fill="#3A9BDC"/>
<rect x="420" y="105" width="21" height="21" fill="#3A9BDC"/>
<rect x="441" y="105" width="21" height="21" fill="#3A9BDC"/>
<rect x="462" y="105" width="21" height="21" fill="#3A9BDC"/>
<rect x="483" y="105" width="21" height="21" fill="#3A9BDC"/>
<rect x="273" y="126" width="21" height="21" fill="#3A9BDC"/>
<rect x="294" y="126" width="21" height="21" fill="#3A9BDC"/>
<rect x="315" y="126" width="21" height="21" fill="#3A9BDC"/>
<rect x="441" y="126" width="21" height="21" fill="#3A9BDC"/>
<rect x="462" y="126" width="21" height="21" fill="#3A9BDC"/>
<rect x="483" y="126" width="21" height="21" fill="#3A9BDC"/>
<rect x="504" y="126" width="21" height="21" fill="#3A9BDC"/>
<rect x="252" y="147" width="21" height="21" fill="#3A9BDC"/>
<rect x="273" y="147" width="21" height="21" fill="#3A9BDC"/>
<rect x="294" y="147" width="21" height="21" fill="#3A9BDC"/>
<rect x="315" y="147" width="21" height="21" fill="#3A9BDC"/>
<rect x="462" y="147" width="21" height="21" fill="#3A9BDC"/>
<rect x="483" y="147" width="21" height="21" fill="#3A9BDC"/>
<rect x="504" y="147" width="21" height="21" fill="#3A9BDC"/>
<rect x="252" y="168" width="21" height="21" fill="#3A9BDC"/>
<rect x="273" y="168" width="21" height="21" fill="#3A9BDC"/>
<rect x="294" y="168" width="21" height="21" fill="#3A9BDC"/>
<rect x="462" y="168" width="21" height="21" fill="#3897D7"/>
<rect x="483" y="168" width="21" height="21" fill="#3A9BDC"/>
<rect x="504" y="168" width="21" height="21" fill="#3A9BDC"/>
<rect x="525" y="168" width="21" height="21" fill="#3A9BDC"/>
<rect x="231" y="189" width="21" height="21" fill="#3A9BDC"/>
<rect x="252" y="189" width="21" height="21" fill="#3A9BDC"/>
<rect x="273" y="189" width="21" height="21" fill="#3A9BDC"/>
<rect x="483" y="189" width="21" height="21" fill="#3A9BDC"/>
<rect x="504" y="189" width="21" height="21" fill="#3A9BDC"/>
<rect x="525" y="189" width="21" height="21" fill="#3A9BDC"/>
<rect x="546" y="189" width="21" height="21" fill="#3A9BDC"/>
<rect x="210" y="210" width="21" height="21" fill="#3A9BDC"/>
<rect x="231" y="210" width="21" height="21" fill="#3A9BDC"/>
<rect x="252" y="210" width="21" height="21" fill="#3A9BDC"/>
<rect x="273" y="210" width="21" height="21" fill="#3A9BDC"/>
<rect x="504" y="210" width="21" height="21" fill="#3A9BDC"/>
<rect x="525" y="210" width="21" height="21" fill="#3A9BDC"/>
<rect x="546" y="210" width="21" height="21" fill="#3A9BDC"/>
<rect x="210" y="231" width="21" height="21" fill="#3A9BDC"/>
<rect x="231" y="231" width="21" height="21" fill="#3A9BDC"/>
<rect x="252" y="231" width="21" height="21" fill="#3A9BDC"/>
<rect x="504" y="231" width="21" height="21" fill="#409FDF"/>
<rect x="525" y="231" width="21" height="21" fill="#3A9BDC"/>
<rect x="546" y="231" width="21" height="21" fill="#3A9BDC"/>
<rect x="567" y="231" width="21" height="21" fill="#3A9BDC"/>
<rect x="189" y="252" width="21" height="21" fill="#3A9BDC"/>
<rect x="210" y="252" width="21" height="21" fill="#3A9BDC"/>
<rect x="231" y="252" width="21" height="21" fill="#3A9BDC"/>
<rect x="525" y="252" width="21" height="21" fill="#3A9BDC"/>
<rect x="546" y="252" width="21" height="21" fill="#3A9BDC"/>
<rect x="567" y="252" width="21" height="21" fill="#3A9BDC"/>
<rect x="588" y="252" width="21" height="21" fill="#3A9BDC"/>
<rect x="168" y="273" width="21" height="21" fill="#3A9BDC"/>
<rect x="189" y="273" width="21" height="21" fill="#3A9BDC"/>
<rect x="210" y="273" width="21" height="21" fill="#3A9BDC"/>
<rect x="231" y="273" width="21" height="21" fill="#3A9BDC"/>
<rect x="546" y="273" width="21" height="21" fill="#3A9BDC"/>
<rect x="567" y="273" width="21" height="21" fill="#3A9BDC"/>
<rect x="588" y="273" width="21" height="21" fill="#3A9BDC"/>
<rect x="168" y="294" width="21" height="21" fill="#3A9BDC"/>
<rect x="189" y="294" width="21" height="21" fill="#3A9BDC"/>
<rect x="210" y="294" width="21" height="21" fill="#3A9BDC"/>
<rect x="546" y="294" width="21" height="21" fill="#3A9BDC"/>
<rect x="567" y="294" width="21" height="21" fill="#3A9BDC"/>
<rect x="588" y="294" width="21" height="21" fill="#3A9BDC"/>
<rect x="609" y="294" width="21" height="21" fill="#3A9BDC"/>
<rect x="147" y="315" width="21" height="21" fill="#3A9BDC"/>
<rect x="168" y="315" width="21" height="21" fill="#3A9BDC"/>
<rect x="189" y="315" width="21" height="21" fill="#3A9BDC"/>
<rect x="210" y="315" width="21" height="21" fill="#3897D7"/>
<rect x="567" y="315" width="21" height="21" fill="#3A9BDC"/>
<rect x="588" y="315" width="21" height="21" fill="#3A9BDC"/>
<rect x="609" y="315" width="21" height="21" fill="#3A9BDC"/>
<rect x="147" y="336" width="21" height="21" fill="#3A9BDC"/>
<rect x="168" y="336" width="21" height="21" fill="#3A9BDC"/>
<rect x="189" y="336" width="21" height="21" fill="#3A9BDC"/>
<rect x="588" y="336" width="21" height="21" fill="#3A9BDC"/>
<rect x="609" y="336" width="21" height="21" fill="#3A9BDC"/>
<rect x="630" y="336" width="21" height="21" fill="#3A9BDC"/>
<rect x="126" y="357" width="21" height="21" fill="#3A9BDC"/>
<rect x="147" y="357" width="21" height="21" fill="#3A9BDC"/>
<rect x="168" y="357" width="21" height="21" fill="#3A9BDC"/>
<rect x="588" y="357" width="21" height="21" fill="#3A9BDC"/>
<rect x="609" y="357" width="21" height="21" fill="#3A9BDC"/>
<rect x="630" y="357" width="21" height="21" fill="#3A9BDC"/>
<rect x="651" y="357" width="21" height="21" fill="#399BDC"/>
<rect x="105" y="378" width="21" height="21" fill="#3A9BDC"/>
<rect x="126" y="378" width="21" height="21" fill="#3A9BDC"/>
<rect x="147" y="378" width="21" height="21" fill="#3A9BDC"/>
<rect x="168" y="378" width="21" height="21" fill="#3A9BDC"/>
<rect x="609" y="378" width="21" height="21" fill="#3A9BDC"/>
<rect x="630" y="378" width="21" height="21" fill="#3A9BDC"/>
<rect x="651" y="378" width="21" height="21" fill="#3A9BDC"/>
<rect x="105" y="399" width="21" height="21" fill="#3A9BDC"/>
<rect x="126" y="399" width="21" height="21" fill="#3A9BDC"/>
<rect x="147" y="399" width="21" height="21" fill="#3A9BDC"/>
<rect x="609" y="399" width="21" height="21" fill="#3A9BDC"/>
<rect x="630" y="399" width="21" height="21" fill="#3A9BDC"/>
<rect x="651" y="399" width="21" height="21" fill="#3A9BDC"/>
<rect x="672" y="399" width="21" height="21" fill="#3A9BDC"/>
<rect x="84" y="420" width="21" height="21" fill="#3A9BDC"/>
<rect x="105" y="420" width="21" height="21" fill="#3A9BDC"/>
<rect x="126" y="420" width="21" height="21" fill="#3A9BDC"/>
<rect x="147" y="420" width="21" height="21" fill="#3A9BDC"/>
<rect x="630" y="420" width="21" height="21" fill="#3A9BDC"/>
<rect x="651" y="420" width="21" height="21" fill="#3A9BDC"/>
<rect x="672" y="420" width="21" height="21" fill="#3A9BDC"/>
<rect x="84" y="441" width="21" height="21" fill="#3A9BDC"/>
<rect x="105" y="441" width="21" height="21" fill="#3A9BDC"/>
<rect x="126" y="441" width="21" height="21" fill="#3A9BDC"/>
<rect x="630" y="441" width="21" height="21" fill="#3A9BDC"/>
<rect x="651" y="441" width="21" height="21" fill="#3A9BDC"/>
<rect x="672" y="441" width="21" height="21" fill="#3A9BDC"/>
<rect x="693" y="441" width="21" height="21" fill="#3A9BDC"/>
<rect x="63" y="462" width="21" height="21" fill="#3A9BDC"/>
<rect x="84" y="462" width="21" height="21" fill="#3A9BDC"/>
<rect x="105" y="462" width="21" height="21" fill="#3A9BDC"/>
<rect x="126" y="462" width="21" height="21" fill="#3A9BDC"/>
<rect x="651" y="462" width="21" height="21" fill="#3A9BDC"/>
<rect x="672" y="462" width="21" height="21" fill="#3A9BDC"/>
<rect x="693" y="462" width="21" height="21" fill="#3A9BDC"/>
<rect x="63" y="483" width="21" height="21" fill="#3A9BDC"/>
<rect x="84" y="483" width="21" height="21" fill="#3A9BDC"/>
<rect x="105" y="483" width="21" height="21" fill="#3A9BDC"/>
<rect x="651" y="483" width="21" height="21" fill="#3A9BDC"/>
<rect x="672" y="483" width="21" height="21" fill="#3A9BDC"/>
<rect x="693" y="483" width="21" height="21" fill="#3A9BDC"/>
<rect x="714" y="483" width="21" height="21" fill="#3A9BDC"/>
<rect x="63" y="504" width="21" height="21" fill="#3A9BDC"/>
<rect x="84" y="504" width="21" height="21" fill="#3A9BDC"/>
<rect x="105" y="504" width="21" height="21" fill="#3A9BDC"/>
<rect x="672" y="504" width="21" height="21" fill="#3A9BDC"/>
<rect x="693" y="504" width="21" height="21" fill="#3A9BDC"/>
<rect x="714" y="504" width="21" height="21" fill="#3A9BDC"/>
<rect x="42" y="525" width="21" height="21" fill="#3A9BDC"/>
<rect x="63" y="525" width="21" height="21" fill="#3A9BDC"/>
<rect x="84" y="525" width="21" height="21" fill="#3A9BDC"/>
<rect x="672" y="525" width="21" height="21" fill="#3A9BDC"/>
<rect x="693" y="525" width="21" height="21" fill="#3A9BDC"/>
<rect x="714" y="525" width="21" height="21" fill="#3A9BDC"/>
<rect x="42" y="546" width="21" height="21" fill="#3A9BDC"/>
<rect x="63" y="546" width="21" height="21" fill="#3A9BDC"/>
<rect x="84" y="546" width="21" height="21" fill="#3A9BDC"/>
<rect x="693" y="546" width="21" height="21" fill="#3A9BDC"/>
<rect x="714" y="546" width="21" height="21" fill="#3A9BDC"/>
<rect x="735" y="546" width="21" height="21" fill="#3A9BDC"/>
<rect x="21" y="567" width="21" height="21" fill="#3A9BDC"/>
<rect x="42" y="567" width="21" height="21" fill="#3A9BDC"/>
<rect x="63" y="567" width="21" height="21" fill="#3A9BDC"/>
<rect x="168" y="567" width="21" height="21" fill="#3A9BDC"/>
<rect x="189" y="567" width="21" height="21" fill="#3A9BDC"/>
<rect x="210" y="567" width="21" height="21" fill="#3A9BDC"/>
<rect x="231" y="567" width="21" height="21" fill="#3A9BDC"/>
<rect x="252" y="567" width="21" height="21" fill="#3A9BDC"/>
<rect x="693" y="567" width="21" height="21" fill="#3A9BDC"/>
<rect x="714" y="567" width="21" height="21" fill="#3A9BDC"/>
<rect x="735" y="567" width="21" height="21" fill="#3A9BDC"/>
<rect x="21" y="588" width="21" height="21" fill="#3A9BDC"/>
<rect x="42" y="588" width="21" height="21" fill="#3A9BDC"/>
<rect x="63" y="588" width="21" height="21" fill="#3A9BDC"/>
<rect x="147" y="588" width="21" height="21" fill="#3A9BDC"/>
<rect x="168" y="588" width="21" height="21" fill="#3A9BDC"/>
<rect x="189" y="588" width="21" height="21" fill="#3A9BDC"/>
<rect x="210" y="588" width="21" height="21" fill="#3A9BDC"/>
<rect x="231" y="588" width="21" height="21" fill="#3A9BDC"/>
<rect x="252" y="588" width="21" height="21" fill="#3A9BDC"/>
<rect x="273" y="588" width="21" height="21" fill="#3A9BDC"/>
<rect x="693" y="588" width="21" height="21" fill="#3A9BDC"/>
<rect x="714" y="588" width="21" height="21" fill="#3A9BDC"/>
<rect x="735" y="588" width="21" height="21" fill="#3A9BDC"/>
<rect x="21" y="609" width="21" height="21" fill="#3A9BDC"/>
<rect x="42" y="609" width="21" height="21" fill="#3A9BDC"/>
<rect x="63" y="609" width="21" height="21" fill="#3A9BDC"/>
<rect x="126" y="609" width="21" height="21" fill="#3A9BDC"/>
<rect x="147" y="609" width="21" height="21" fill="#3A9BDC"/>
<rect x="168" y="609" width="21" height="21" fill="#3A9BDC"/>
<rect x="189" y="609" width="21" height="21" fill="#3A9BDC"/>
<rect x="210" y="609" width="21" height="21" fill="#3A9BDC"/>
<rect x="231" y="609" width="21" height="21" fill="#3A9BDC"/>
<rect x="252" y="609" width="21" height="21" fill="#3A9BDC"/>
<rect x="273" y="609" width="21" height="21" fill="#3A9BDC"/>
<rect x="294" y="609" width="21" height="21" fill="#3A9BDC"/>
<rect x="714" y="609" width="21" height="21" fill="#3A9BDC"/>
<rect x="735" y="609" width="21" height="21" fill="#3A9BDC"/>
<rect x="756" y="609" width="21" height="21" fill="#3A9BDC"/>
<rect x="21" y="630" width="21" height="21" fill="#3A9BDC"/>
<rect x="42" y="630" width="21" height="21" fill="#3A9BDC"/>
<rect x="63" y="630" width="21" height="21" fill="#3A9BDC"/>
<rect x="126" y="630" width="21" height="21" fill="#3A9BDC"/>
<rect x="147" y="630" width="21" height="21" fill="#3A9BDC"/>
<rect x="168" y="630" width="21" height="21" fill="#3A9BDC"/>
<rect x="252" y="630" width="21" height="21" fill="#3A9BDC"/>
<rect x="273" y="630" width="21" height="21" fill="#3A9BDC"/>
<rect x="294" y="630" width="21" height="21" fill="#3A9BDC"/>
<rect x="714" y="630" width="21" height="21" fill="#3A9BDC"/>
<rect x="735" y="630" width="21" height="21" fill="#3A9BDC"/>
<rect x="756" y="630" width="21" height="21" fill="#3A9BDC"/>
<rect x="21" y="651" width="21" height="21" fill="#3A9BDC"/>
<rect x="42" y="651" width="21" height="21" fill="#3A9BDC"/>
<rect x="105" y="651" width="21" height="21" fill="#3A9BDC"/>
<rect x="126" y="651" width="21" height="21" fill="#3A9BDC"/>
<rect x="147" y="651" width="21" height="21" fill="#3A9BDC"/>
<rect x="273" y="651" width="21" height="21" fill="#3A9BDC"/>
<rect x="294" y="651" width="21" height="21" fill="#3A9BDC"/>
<rect x="315" y="651" width="21" height="21" fill="#3A9BDC"/>
<rect x="714" y="651" width="21" height="21" fill="#3A9BDC"/>
<rect x="735" y="651" width="21" height="21" fill="#3A9BDC"/>
<rect x="756" y="651" width="21" height="21" fill="#3A9BDC"/>
<rect y="672" width="21" height="21" fill="#3A9BDC"/>
<rect x="21" y="672" width="21" height="21" fill="#3A9BDC"/>
<rect x="42" y="672" width="21" height="21" fill="#3A9BDC"/>
<rect x="105" y="672" width="21" height="21" fill="#3A9BDC"/>
<rect x="126" y="672" width="21" height="21" fill="#3A9BDC"/>
<rect x="147" y="672" width="21" height="21" fill="#3A9BDC"/>
<rect x="273" y="672" width="21" height="21" fill="#3A9BDC"/>
<rect x="294" y="672" width="21" height="21" fill="#3A9BDC"/>
<rect x="315" y="672" width="21" height="21" fill="#3A9BDC"/>
<rect x="714" y="672" width="21" height="21" fill="#3A9BDC"/>
<rect x="735" y="672" width="21" height="21" fill="#3A9BDC"/>
<rect x="756" y="672" width="21" height="21" fill="#3A9BDC"/>
<rect y="693" width="21" height="21" fill="#389ADA"/>
<rect x="21" y="693" width="21" height="21" fill="#3A9BDC"/>
<rect x="42" y="693" width="21" height="21" fill="#3A9BDC"/>
<rect x="105" y="693" width="21" height="21" fill="#3A9BDC"/>
<rect x="126" y="693" width="21" height="21" fill="#3A9BDC"/>
<rect x="147" y="693" width="21" height="21" fill="#3A9BDC"/>
<rect x="273" y="693" width="21" height="21" fill="#3A9BDC"/>
<rect x="294" y="693" width="21" height="21" fill="#3A9BDC"/>
<rect x="315" y="693" width="21" height="21" fill="#3A9BDC"/>
<rect x="714" y="693" width="21" height="21" fill="#3A9BDC"/>
<rect x="735" y="693" width="21" height="21" fill="#3A9BDC"/>
<rect x="756" y="693" width="21" height="21" fill="#3A9BDC"/>
<rect x="21" y="714" width="21" height="21" fill="#3A9BDC"/>
<rect x="42" y="714" width="21" height="21" fill="#3A9BDC"/>
<rect x="105" y="714" width="21" height="21" fill="#3A9BDC"/>
<rect x="126" y="714" width="21" height="21" fill="#3A9BDC"/>
<rect x="147" y="714" width="21" height="21" fill="#3A9BDC"/>
<rect x="273" y="714" width="21" height="21" fill="#3A9BDC"/>
<rect x="294" y="714" width="21" height="21" fill="#3A9BDC"/>
<rect x="315" y="714" width="21" height="21" fill="#3A9BDC"/>
<rect x="714" y="714" width="21" height="21" fill="#3A9BDC"/>
<rect x="735" y="714" width="21" height="21" fill="#3A9BDC"/>
<rect x="756" y="714" width="21" height="21" fill="#3A9BDC"/>
<rect x="21" y="735" width="21" height="21" fill="#3A9BDC"/>
<rect x="42" y="735" width="21" height="21" fill="#3A9BDC"/>
<rect x="63" y="735" width="21" height="21" fill="#3A9BDC"/>
<rect x="126" y="735" width="21" height="21" fill="#3A9BDC"/>
<rect x="147" y="735" width="21" height="21" fill="#3A9BDC"/>
<rect x="168" y="735" width="21" height="21" fill="#3A9BDC"/>
<rect x="273" y="735" width="21" height="21" fill="#3A9BDC"/>
<rect x="294" y="735" width="21" height="21" fill="#3A9BDC"/>
<rect x="315" y="735" width="21" height="21" fill="#3A9BDC"/>
<rect x="336" y="735" width="21" height="21" fill="#3A9BDC"/>
<rect x="714" y="735" width="21" height="21" fill="#3A9BDC"/>
<rect x="735" y="735" width="21" height="21" fill="#3A9BDC"/>
<rect x="756" y="735" width="21" height="21" fill="#3A9BDC"/>
<rect x="21" y="756" width="21" height="21" fill="#3A9BDC"/>
<rect x="42" y="756" width="21" height="21" fill="#3A9BDC"/>
<rect x="63" y="756" width="21" height="21" fill="#3A9BDC"/>
<rect x="126" y="756" width="21" height="21" fill="#3A9BDC"/>
<rect x="147" y="756" width="21" height="21" fill="#3A9BDC"/>
<rect x="168" y="756" width="21" height="21" fill="#3A9BDC"/>
<rect x="294" y="756" width="21" height="21" fill="#3A9BDC"/>
<rect x="315" y="756" width="21" height="21" fill="#3A9BDC"/>
<rect x="336" y="756" width="21" height="21" fill="#3A9BDC"/>
<rect x="357" y="756" width="21" height="21" fill="#3A9BDC"/>
<rect x="378" y="756" width="21" height="21" fill="#3A9BDC"/>
<rect x="399" y="756" width="21" height="21" fill="#3A9BDC"/>
<rect x="420" y="756" width="21" height="21" fill="#3A9BDC"/>
<rect x="441" y="756" width="21" height="21" fill="#3A9BDC"/>
<rect x="714" y="756" width="21" height="21" fill="#3A9BDC"/>
<rect x="735" y="756" width="21" height="21" fill="#3A9BDC"/>
<rect x="756" y="756" width="21" height="21" fill="#3A9BDC"/>
<rect x="21" y="777" width="21" height="21" fill="#3A9BDC"/>
<rect x="42" y="777" width="21" height="21" fill="#3A9BDC"/>
<rect x="63" y="777" width="21" height="21" fill="#3A9BDC"/>
<rect x="126" y="777" width="21" height="21" fill="#3A9BDC"/>
<rect x="147" y="777" width="21" height="21" fill="#3A9BDC"/>
<rect x="168" y="777" width="21" height="21" fill="#3A9BDC"/>
<rect x="315" y="777" width="21" height="21" fill="#3A9BDC"/>
<rect x="336" y="777" width="21" height="21" fill="#3A9BDC"/>
<rect x="357" y="777" width="21" height="21" fill="#3A9BDC"/>
<rect x="378" y="777" width="21" height="21" fill="#3A9BDC"/>
<rect x="399" y="777" width="21" height="21" fill="#3A9BDC"/>
<rect x="420" y="777" width="21" height="21" fill="#3A9BDC"/>
<rect x="441" y="777" width="21" height="21" fill="#3A9BDC"/>
<rect x="462" y="777" width="21" height="21" fill="#3A9BDC"/>
<rect x="483" y="777" width="21" height="21" fill="#3A9BDC"/>
<rect x="693" y="777" width="21" height="21" fill="#3A9BDC"/>
<rect x="714" y="777" width="21" height="21" fill="#3A9BDC"/>
<rect x="735" y="777" width="21" height="21" fill="#3A9BDC"/>
<rect x="21" y="798" width="21" height="21" fill="#3999DA"/>
<rect x="42" y="798" width="21" height="21" fill="#3A9BDC"/>
<rect x="63" y="798" width="21" height="21" fill="#3A9BDC"/>
<rect x="84" y="798" width="21" height="21" fill="#3A9BDC"/>
<rect x="147" y="798" width="21" height="21" fill="#3A9BDC"/>
<rect x="168" y="798" width="21" height="21" fill="#3A9BDC"/>
<rect x="189" y="798" width="21" height="21" fill="#3A9BDC"/>
<rect x="357" y="798" width="21" height="21" fill="#3A9BDC"/>
<rect x="378" y="798" width="21" height="21" fill="#3A9BDC"/>
<rect x="399" y="798" width="21" height="21" fill="#3A9BDC"/>
<rect x="420" y="798" width="21" height="21" fill="#3A9BDC"/>
<rect x="441" y="798" width="21" height="21" fill="#3A9BDC"/>
<rect x="462" y="798" width="21" height="21" fill="#3A9BDC"/>
<rect x="483" y="798" width="21" height="21" fill="#3A9BDC"/>
<rect x="504" y="798" width="21" height="21" fill="#3A9BDC"/>
<rect x="693" y="798" width="21" height="21" fill="#3A9BDC"/>
<rect x="714" y="798" width="21" height="21" fill="#3A9BDC"/>
<rect x="735" y="798" width="21" height="21" fill="#3A9BDC"/>
<rect x="42" y="819" width="21" height="21" fill="#3A9BDC"/>
<rect x="63" y="819" width="21" height="21" fill="#3A9BDC"/>
<rect x="84" y="819" width="21" height="21" fill="#3A9BDC"/>
<rect x="147" y="819" width="21" height="21" fill="#3A9BDC"/>
<rect x="168" y="819" width="21" height="21" fill="#3A9BDC"/>
<rect x="189" y="819" width="21" height="21" fill="#3A9BDC"/>
<rect x="210" y="819" width="21" height="21" fill="#3B9CDF"/>
<rect x="462" y="819" width="21" height="21" fill="#3A9BDC"/>
<rect x="483" y="819" width="21" height="21" fill="#3A9BDC"/>
<rect x="504" y="819" width="21" height="21" fill="#3A9BDC"/>
<rect x="672" y="819" width="21" height="21" fill="#3A9BDD"/>
<rect x="693" y="819" width="21" height="21" fill="#3A9BDC"/>
<rect x="714" y="819" width="21" height="21" fill="#3A9BDC"/>
<rect x="735" y="819" width="21" height="21" fill="#3A9BDC"/>
<rect x="42" y="840" width="21" height="21" fill="#3A9BDC"/>
<rect x="63" y="840" width="21" height="21" fill="#3A9BDC"/>
<rect x="84" y="840" width="21" height="21" fill="#3A9BDC"/>
<rect x="105" y="840" width="21" height="21" fill="#3A9BDC"/>
<rect x="168" y="840" width="21" height="21" fill="#3A9BDC"/>
<rect x="189" y="840" width="21" height="21" fill="#3A9BDC"/>
<rect x="210" y="840" width="21" height="21" fill="#3A9BDC"/>
<rect x="483" y="840" width="21" height="21" fill="#3A9BDC"/>
<rect x="504" y="840" width="21" height="21" fill="#3A9BDC"/>
<rect x="525" y="840" width="21" height="21" fill="#3A9BDC"/>
<rect x="672" y="840" width="21" height="21" fill="#3A9BDC"/>
<rect x="693" y="840" width="21" height="21" fill="#3A9BDC"/>
<rect x="714" y="840" width="21" height="21" fill="#3A9BDC"/>
<rect x="63" y="861" width="21" height="21" fill="#3A9BDC"/>
<rect x="84" y="861" width="21" height="21" fill="#3A9BDC"/>
<rect x="105" y="861" width="21" height="21" fill="#3A9BDC"/>
<rect x="168" y="861" width="21" height="21" fill="#3A9BDC"/>
<rect x="189" y="861" width="21" height="21" fill="#3A9BDC"/>
<rect x="210" y="861" width="21" height="21" fill="#3A9BDC"/>
<rect x="231" y="861" width="21" height="21" fill="#3A9BDC"/>
<rect x="252" y="861" width="21" height="21" fill="#3A9BDC"/>
<rect x="483" y="861" width="21" height="21" fill="#3A9BDC"/>
<rect x="504" y="861" width="21" height="21" fill="#3A9BDC"/>
<rect x="525" y="861" width="21" height="21" fill="#3A9BDC"/>
<rect x="651" y="861" width="21" height="21" fill="#3A9BDC"/>
<rect x="672" y="861" width="21" height="21" fill="#3A9BDC"/>
<rect x="693" y="861" width="21" height="21" fill="#3A9BDC"/>
<rect x="714" y="861" width="21" height="21" fill="#3A9BDC"/>
<rect x="63" y="882" width="21" height="21" fill="#3A9BDC"/>
<rect x="84" y="882" width="21" height="21" fill="#3A9BDC"/>
<rect x="105" y="882" width="21" height="21" fill="#3A9BDC"/>
<rect x="126" y="882" width="21" height="21" fill="#3A9BDC"/>
<rect x="189" y="882" width="21" height="21" fill="#3A9BDC"/>
<rect x="210" y="882" width="21" height="21" fill="#3A9BDC"/>
<rect x="231" y="882" width="21" height="21" fill="#3A9BDC"/>
<rect x="252" y="882" width="21" height="21" fill="#3A9BDC"/>
<rect x="273" y="882" width="21" height="21" fill="#3A9BDC"/>
<rect x="483" y="882" width="21" height="21" fill="#3A9BDC"/>
<rect x="504" y="882" width="21" height="21" fill="#3A9BDC"/>
<rect x="525" y="882" width="21" height="21" fill="#3A9BDC"/>
<rect x="630" y="882" width="21" height="21" fill="#399ADC"/>
<rect x="651" y="882" width="21" height="21" fill="#3A9BDC"/>
<rect x="672" y="882" width="21" height="21" fill="#3A9BDC"/>
<rect x="693" y="882" width="21" height="21" fill="#3A9BDC"/>
<rect x="84" y="903" width="21" height="21" fill="#3A9BDC"/>
<rect x="105" y="903" width="21" height="21" fill="#3A9BDC"/>
<rect x="126" y="903" width="21" height="21" fill="#3A9BDC"/>
<rect x="147" y="903" width="21" height="21" fill="#3A9BDC"/>
<rect x="210" y="903" width="21" height="21" fill="#409FDF"/>
<rect x="231" y="903" width="21" height="21" fill="#3A9BDC"/>
<rect x="252" y="903" width="21" height="21" fill="#3A9BDC"/>
<rect x="273" y="903" width="21" height="21" fill="#3A9BDC"/>
<rect x="294" y="903" width="21" height="21" fill="#3A9BDC"/>
<rect x="315" y="903" width="21" height="21" fill="#3A9BDC"/>
<rect x="336" y="903" width="21" height="21" fill="#3A9BDC"/>
<rect x="357" y="903" width="21" height="21" fill="#3A9BDC"/>
<rect x="462" y="903" width="21" height="21" fill="#3A9BDC"/>
<rect x="483" y="903" width="21" height="21" fill="#3A9BDC"/>
<rect x="504" y="903" width="21" height="21" fill="#3A9BDC"/>
<rect x="630" y="903" width="21" height="21" fill="#3A9BDC"/>
<rect x="651" y="903" width="21" height="21" fill="#3A9BDC"/>
<rect x="672" y="903" width="21" height="21" fill="#3A9BDC"/>
<rect x="105" y="924" width="21" height="21" fill="#3A9BDC"/>
<rect x="126" y="924" width="21" height="21" fill="#3A9BDC"/>
<rect x="147" y="924" width="21" height="21" fill="#3A9BDC"/>
<rect x="168" y="924" width="21" height="21" fill="#3A9BDC"/>
<rect x="252" y="924" width="21" height="21" fill="#3A9BDC"/>
<rect x="273" y="924" width="21" height="21" fill="#3A9BDC"/>
<rect x="294" y="924" width="21" height="21" fill="#3A9BDC"/>
<rect x="315" y="924" width="21" height="21" fill="#3A9BDC"/>
<rect x="336" y="924" width="21" height="21" fill="#3A9BDC"/>
<rect x="357" y="924" width="21" height="21" fill="#3A9BDC"/>
<rect x="378" y="924" width="21" height="21" fill="#3A9BDC"/>
<rect x="399" y="924" width="21" height="21" fill="#3A9BDC"/>
<rect x="420" y="924" width="21" height="21" fill="#3A9BDC"/>
<rect x="441" y="924" width="21" height="21" fill="#3A9BDC"/>
<rect x="462" y="924" width="21" height="21" fill="#3A9BDC"/>
<rect x="483" y="924" width="21" height="21" fill="#3A9BDC"/>
<rect x="504" y="924" width="21" height="21" fill="#3A9BDC"/>
<rect x="588" y="924" width="21" height="21" fill="#3A9BDC"/>
<rect x="609" y="924" width="21" height="21" fill="#3A9BDC"/>
<rect x="630" y="924" width="21" height="21" fill="#3A9BDC"/>
<rect x="651" y="924" width="21" height="21" fill="#3A9BDC"/>
<rect x="672" y="924" width="21" height="21" fill="#3A9BDC"/>
<rect x="126" y="945" width="21" height="21" fill="#3A9BDC"/>
<rect x="147" y="945" width="21" height="21" fill="#3A9BDC"/>
<rect x="168" y="945" width="21" height="21" fill="#3A9BDC"/>
<rect x="189" y="945" width="21" height="21" fill="#3A9BDC"/>
<rect x="210" y="945" width="21" height="21" fill="#3A9ADA"/>
<rect x="294" y="945" width="21" height="21" fill="#3A9BDC"/>
<rect x="315" y="945" width="21" height="21" fill="#3A9BDC"/>
<rect x="336" y="945" width="21" height="21" fill="#3A9BDC"/>
<rect x="357" y="945" width="21" height="21" fill="#3A9BDC"/>
<rect x="378" y="945" width="21" height="21" fill="#3A9BDC"/>
<rect x="399" y="945" width="21" height="21" fill="#3A9BDC"/>
<rect x="420" y="945" width="21" height="21" fill="#3A9BDC"/>
<rect x="441" y="945" width="21" height="21" fill="#3A9BDC"/>
<rect x="462" y="945" width="21" height="21" fill="#3A9BDC"/>
<rect x="483" y="945" width="21" height="21" fill="#3A9BDC"/>
<rect x="567" y="945" width="21" height="21" fill="#3A9BDC"/>
<rect x="588" y="945" width="21" height="21" fill="#3A9BDC"/>
<rect x="609" y="945" width="21" height="21" fill="#3A9BDC"/>
<rect x="630" y="945" width="21" height="21" fill="#3A9BDC"/>
<rect x="651" y="945" width="21" height="21" fill="#3A9BDC"/>
<rect x="147" y="966" width="21" height="21" fill="#3A9BDC"/>
<rect x="168" y="966" width="21" height="21" fill="#3A9BDC"/>
<rect x="189" y="966" width="21" height="21" fill="#3A9BDC"/>
<rect x="210" y="966" width="21" height="21" fill="#3A9BDC"/>
<rect x="231" y="966" width="21" height="21" fill="#3A9BDC"/>
<rect x="378" y="966" width="21" height="21" fill="#3A9CDD"/>
<rect x="399" y="966" width="21" height="21" fill="#3A9BDC"/>
<rect x="420" y="966" width="21" height="21" fill="#3A9BDC"/>
<rect x="441" y="966" width="21" height="21" fill="#3A9BDC"/>
<rect x="525" y="966" width="21" height="21" fill="#3A9BDC"/>
<rect x="546" y="966" width="21" height="21" fill="#3A9BDC"/>
<rect x="567" y="966" width="21" height="21" fill="#3A9BDC"/>
<rect x="588" y="966" width="21" height="21" fill="#3A9BDC"/>
<rect x="609" y="966" width="21" height="21" fill="#3A9BDC"/>
<rect x="630" y="966" width="21" height="21" fill="#399BDB"/>
<rect x="168" y="987" width="21" height="21" fill="#3A9BDC"/>
<rect x="189" y="987" width="21" height="21" fill="#3A9BDC"/>
<rect x="210" y="987" width="21" height="21" fill="#3A9BDC"/>
<rect x="231" y="987" width="21" height="21" fill="#3A9BDC"/>
<rect x="252" y="987" width="21" height="21" fill="#3A9BDC"/>
<rect x="273" y="987" width="21" height="21" fill="#3A9BDC"/>
<rect x="294" y="987" width="21" height="21" fill="#3A9BDC"/>
<rect x="462" y="987" width="21" height="21" fill="#3A9BDC"/>
<rect x="483" y="987" width="21" height="21" fill="#3A9BDC"/>
<rect x="504" y="987" width="21" height="21" fill="#3A9BDC"/>
<rect x="525" y="987" width="21" height="21" fill="#3A9BDC"/>
<rect x="546" y="987" width="21" height="21" fill="#3A9BDC"/>
<rect x="567" y="987" width="21" height="21" fill="#3A9BDC"/>
<rect x="588" y="987" width="21" height="21" fill="#3A9BDC"/>
<rect x="210" y="1008" width="21" height="21" fill="#3A9BDC"/>
<rect x="231" y="1008" width="21" height="21" fill="#3B9BDC"/>
<rect x="252" y="1008" width="21" height="21" fill="#3A9BDC"/>
<rect x="273" y="1008" width="21" height="21" fill="#3A9BDC"/>
<rect x="294" y="1008" width="21" height="21" fill="#3A9BDC"/>
<rect x="315" y="1008" width="21" height="21" fill="#3A9BDC"/>
<rect x="336" y="1008" width="21" height="21" fill="#3A9BDC"/>
<rect x="357" y="1008" width="21" height="21" fill="#3A9BDC"/>
<rect x="378" y="1008" width="21" height="21" fill="#3A9BDC"/>
<rect x="399" y="1008" width="21" height="21" fill="#3A9BDC"/>
<rect x="420" y="1008" width="21" height="21" fill="#3A9BDC"/>
<rect x="441" y="1008" width="21" height="21" fill="#3A9BDC"/>
<rect x="462" y="1008" width="21" height="21" fill="#3A9BDC"/>
<rect x="483" y="1008" width="21" height="21" fill="#3A9BDC"/>
<rect x="504" y="1008" width="21" height="21" fill="#3A9BDC"/>
<rect x="525" y="1008" width="21" height="21" fill="#3A9BDC"/>
<rect x="546" y="1008" width="21" height="21" fill="#3A9BDC"/>
<rect x="567" y="1008" width="21" height="21" fill="#3A9BDC"/>
<rect x="252" y="1029" width="21" height="21" fill="#3A9BDC"/>
<rect x="273" y="1029" width="21" height="21" fill="#3A9BDC"/>
<rect x="294" y="1029" width="21" height="21" fill="#3A9BDC"/>
<rect x="315" y="1029" width="21" height="21" fill="#3A9BDC"/>
<rect x="336" y="1029" width="21" height="21" fill="#3A9BDC"/>
<rect x="357" y="1029" width="21" height="21" fill="#3A9BDC"/>
<rect x="378" y="1029" width="21" height="21" fill="#3A9BDC"/>
<rect x="399" y="1029" width="21" height="21" fill="#3A9BDC"/>
<rect x="420" y="1029" width="21" height="21" fill="#3A9BDC"/>
<rect x="441" y="1029" width="21" height="21" fill="#3A9BDC"/>
<rect x="462" y="1029" width="21" height="21" fill="#3A9BDC"/>
<rect x="483" y="1029" width="21" height="21" fill="#3A9BDC"/>
<rect x="504" y="1029" width="21" height="21" fill="#3A9BDC"/>
<rect x="525" y="1029" width="21" height="21" fill="#409FCF"/>
<rect x="336" y="1050" width="21" height="21" fill="#3A9BDC"/>
<rect x="357" y="1050" width="21" height="21" fill="#3A9BDC"/>
<rect x="378" y="1050" width="21" height="21" fill="#3A9BDC"/>
<rect x="399" y="1050" width="21" height="21" fill="#3A9BDC"/>
<rect x="420" y="1050" width="21" height="21" fill="#3A9BDC"/>
<rect x="441" y="1050" width="21" height="21" fill="#3A9BDC"/>
</svg>
