<svg width="506" height="598" viewBox="0 0 506 598" fill="none" xmlns="http://www.w3.org/2000/svg">
<rect x="230" width="23" height="23" fill="#222222"/>
<rect x="253" width="23" height="23" fill="#222222"/>
<rect x="207" y="23" width="23" height="23" fill="#222222"/>
<rect x="230" y="23" width="23" height="23" fill="#222222"/>
<rect x="253" y="23" width="23" height="23" fill="#222222"/>
<rect x="276" y="23" width="23" height="23" fill="#222222"/>
<rect x="207" y="46" width="23" height="23" fill="#222222"/>
<rect x="230" y="46" width="23" height="23" fill="#222222"/>
<rect x="253" y="46" width="23" height="23" fill="#222222"/>
<rect x="276" y="46" width="23" height="23" fill="#222222"/>
<rect x="184" y="69" width="23" height="23" fill="#222222"/>
<rect x="207" y="69" width="23" height="23" fill="#222222"/>
<rect x="230" y="69" width="23" height="23" fill="#222222"/>
<rect x="253" y="69" width="23" height="23" fill="#222222"/>
<rect x="276" y="69" width="23" height="23" fill="#222222"/>
<rect x="299" y="69" width="23" height="23" fill="#222222"/>
<rect x="184" y="92" width="23" height="23" fill="#222222"/>
<rect x="207" y="92" width="23" height="23" fill="#222222"/>
<rect x="230" y="92" width="23" height="23" fill="#222222"/>
<rect x="253" y="92" width="23" height="23" fill="#222222"/>
<rect x="276" y="92" width="23" height="23" fill="#222222"/>
<rect x="299" y="92" width="23" height="23" fill="#222222"/>
<rect x="184" y="115" width="23" height="23" fill="#222222"/>
<rect x="207" y="115" width="23" height="23" fill="#222222"/>
<rect x="230" y="115" width="23" height="23" fill="#222222"/>
<rect x="253" y="115" width="23" height="23" fill="#222222"/>
<rect x="276" y="115" width="23" height="23" fill="#222222"/>
<rect x="299" y="115" width="23" height="23" fill="#222222"/>
<rect x="184" y="138" width="23" height="23" fill="#222222"/>
<rect x="207" y="138" width="23" height="23" fill="#222222"/>
<rect x="230" y="138" width="23" height="23" fill="#222222"/>
<rect x="253" y="138" width="23" height="23" fill="#222222"/>
<rect x="276" y="138" width="23" height="23" fill="#222222"/>
<rect x="299" y="138" width="23" height="23" fill="#222222"/>
<rect x="322" y="138" width="23" height="23" fill="#222222"/>
<rect x="161" y="161" width="23" height="23" fill="#222222"/>
<rect x="184" y="161" width="23" height="23" fill="#222222"/>
<rect x="207" y="161" width="23" height="23" fill="#222222"/>
<rect x="230" y="161" width="23" height="23" fill="#222222"/>
<rect x="253" y="161" width="23" height="23" fill="#222222"/>
<rect x="276" y="161" width="23" height="23" fill="#222222"/>
<rect x="299" y="161" width="23" height="23" fill="#222222"/>
<rect x="322" y="161" width="23" height="23" fill="#222222"/>
<rect x="161" y="184" width="23" height="23" fill="#222222"/>
<rect x="184" y="184" width="23" height="23" fill="#222222"/>
<rect x="207" y="184" width="23" height="23" fill="#222222"/>
<rect x="230" y="184" width="23" height="23" fill="#222222"/>
<rect x="253" y="184" width="23" height="23" fill="#222222"/>
<rect x="276" y="184" width="23" height="23" fill="#222222"/>
<rect x="299" y="184" width="23" height="23" fill="#222222"/>
<rect x="322" y="184" width="23" height="23" fill="#222222"/>
<rect x="138" y="207" width="23" height="23" fill="#222222"/>
<rect x="161" y="207" width="23" height="23" fill="#222222"/>
<rect x="184" y="207" width="23" height="23" fill="#222222"/>
<rect x="207" y="207" width="23" height="23" fill="#222222"/>
<rect x="230" y="207" width="23" height="23" fill="#222222"/>
<rect x="253" y="207" width="23" height="23" fill="#222222"/>
<rect x="276" y="207" width="23" height="23" fill="#222222"/>
<rect x="299" y="207" width="23" height="23" fill="#222222"/>
<rect x="322" y="207" width="23" height="23" fill="#222222"/>
<rect x="345" y="207" width="23" height="23" fill="#222222"/>
<rect x="92" y="230" width="23" height="23" fill="#222222"/>
<rect x="115" y="230" width="23" height="23" fill="#222222"/>
<rect x="138" y="230" width="23" height="23" fill="#222222"/>
<rect x="161" y="230" width="23" height="23" fill="#222222"/>
<rect x="184" y="230" width="23" height="23" fill="#222222"/>
<rect x="207" y="230" width="23" height="23" fill="#222222"/>
<rect x="230" y="230" width="23" height="23" fill="#222222"/>
<rect x="253" y="230" width="23" height="23" fill="#222222"/>
<rect x="276" y="230" width="23" height="23" fill="#222222"/>
<rect x="299" y="230" width="23" height="23" fill="#222222"/>
<rect x="322" y="230" width="23" height="23" fill="#222222"/>
<rect x="345" y="230" width="23" height="23" fill="#222222"/>
<rect x="368" y="230" width="23" height="23" fill="#222222"/>
<rect x="391" y="230" width="23" height="23" fill="#222222"/>
<rect x="46" y="253" width="23" height="23" fill="#222222"/>
<rect x="69" y="253" width="23" height="23" fill="#222222"/>
<rect x="92" y="253" width="23" height="23" fill="#222222"/>
<rect x="115" y="253" width="23" height="23" fill="#222222"/>
<rect x="138" y="253" width="23" height="23" fill="#222222"/>
<rect x="161" y="253" width="23" height="23" fill="#222222"/>
<rect x="184" y="253" width="23" height="23" fill="#222222"/>
<rect x="207" y="253" width="23" height="23" fill="#222222"/>
<rect x="230" y="253" width="23" height="23" fill="#222222"/>
<rect x="253" y="253" width="23" height="23" fill="#222222"/>
<rect x="276" y="253" width="23" height="23" fill="#222222"/>
<rect x="299" y="253" width="23" height="23" fill="#222222"/>
<rect x="322" y="253" width="23" height="23" fill="#222222"/>
<rect x="345" y="253" width="23" height="23" fill="#222222"/>
<rect x="368" y="253" width="23" height="23" fill="#222222"/>
<rect x="391" y="253" width="23" height="23" fill="#222222"/>
<rect x="414" y="253" width="23" height="23" fill="#222222"/>
<rect x="437" y="253" width="23" height="23" fill="#222222"/>
<rect x="23" y="276" width="23" height="23" fill="#222222"/>
<rect x="46" y="276" width="23" height="23" fill="#222222"/>
<rect x="69" y="276" width="23" height="23" fill="#222222"/>
<rect x="92" y="276" width="23" height="23" fill="#222222"/>
<rect x="115" y="276" width="23" height="23" fill="#222222"/>
<rect x="161" y="276" width="23" height="23" fill="#222222"/>
<rect x="207" y="276" width="23" height="23" fill="#222222"/>
<rect x="230" y="276" width="23" height="23" fill="#222222"/>
<rect x="253" y="276" width="23" height="23" fill="#222222"/>
<rect x="276" y="276" width="23" height="23" fill="#222222"/>
<rect x="322" y="276" width="23" height="23" fill="#202020"/>
<rect x="368" y="276" width="23" height="23" fill="#222222"/>
<rect x="391" y="276" width="23" height="23" fill="#222222"/>
<rect x="414" y="276" width="23" height="23" fill="#222222"/>
<rect x="437" y="276" width="23" height="23" fill="#222222"/>
<rect x="460" y="276" width="23" height="23" fill="#222222"/>
<rect y="299" width="23" height="23" fill="#222222"/>
<rect x="23" y="299" width="23" height="23" fill="#222222"/>
<rect x="46" y="299" width="23" height="23" fill="#222222"/>
<rect x="69" y="299" width="23" height="23" fill="#222222"/>
<rect x="92" y="299" width="23" height="23" fill="#222222"/>
<rect x="115" y="299" width="23" height="23" fill="#222222"/>
<rect x="161" y="299" width="23" height="23" fill="#222222"/>
<rect x="184" y="299" width="23" height="23" fill="#222222"/>
<rect x="230" y="299" width="23" height="23" fill="#222222"/>
<rect x="253" y="299" width="23" height="23" fill="#222222"/>
<rect x="276" y="299" width="23" height="23" fill="#222222"/>
<rect x="299" y="299" width="23" height="23" fill="#222222"/>
<rect x="322" y="299" width="23" height="23" fill="#222222"/>
<rect x="368" y="299" width="23" height="23" fill="#222222"/>
<rect x="391" y="299" width="23" height="23" fill="#222222"/>
<rect x="414" y="299" width="23" height="23" fill="#222222"/>
<rect x="437" y="299" width="23" height="23" fill="#222222"/>
<rect x="460" y="299" width="23" height="23" fill="#222222"/>
<rect x="483" y="299" width="23" height="23" fill="#222222"/>
<rect y="322" width="23" height="23" fill="#222222"/>
<rect x="23" y="322" width="23" height="23" fill="#222222"/>
<rect x="46" y="322" width="23" height="23" fill="#222222"/>
<rect x="69" y="322" width="23" height="23" fill="#222222"/>
<rect x="92" y="322" width="23" height="23" fill="#222222"/>
<rect x="115" y="322" width="23" height="23" fill="#222222"/>
<rect x="138" y="322" width="23" height="23" fill="#222222"/>
<rect x="184" y="322" width="23" height="23" fill="#222222"/>
<rect x="299" y="322" width="23" height="23" fill="#222222"/>
<rect x="322" y="322" width="23" height="23" fill="#222222"/>
<rect x="368" y="322" width="23" height="23" fill="#222222"/>
<rect x="391" y="322" width="23" height="23" fill="#222222"/>
<rect x="414" y="322" width="23" height="23" fill="#222222"/>
<rect x="437" y="322" width="23" height="23" fill="#222222"/>
<rect x="460" y="322" width="23" height="23" fill="#222222"/>
<rect x="483" y="322" width="23" height="23" fill="#222222"/>
<rect y="345" width="23" height="23" fill="#222222"/>
<rect x="23" y="345" width="23" height="23" fill="#222222"/>
<rect x="46" y="345" width="23" height="23" fill="#222222"/>
<rect x="69" y="345" width="23" height="23" fill="#222222"/>
<rect x="92" y="345" width="23" height="23" fill="#222222"/>
<rect x="115" y="345" width="23" height="23" fill="#222222"/>
<rect x="184" y="345" width="23" height="23" fill="#222222"/>
<rect x="253" y="345" width="23" height="23" fill="#222222"/>
<rect x="299" y="345" width="23" height="23" fill="#222222"/>
<rect x="391" y="345" width="23" height="23" fill="#222222"/>
<rect x="414" y="345" width="23" height="23" fill="#222222"/>
<rect x="437" y="345" width="23" height="23" fill="#222222"/>
<rect x="460" y="345" width="23" height="23" fill="#222222"/>
<rect x="483" y="345" width="23" height="23" fill="#222222"/>
<rect x="23" y="368" width="23" height="23" fill="#222222"/>
<rect x="46" y="368" width="23" height="23" fill="#222222"/>
<rect x="69" y="368" width="23" height="23" fill="#222222"/>
<rect x="92" y="368" width="23" height="23" fill="#222222"/>
<rect x="161" y="368" width="23" height="23" fill="#222222"/>
<rect x="184" y="368" width="23" height="23" fill="#232323"/>
<rect x="207" y="368" width="23" height="23" fill="#222222"/>
<rect x="230" y="368" width="23" height="23" fill="#222222"/>
<rect x="253" y="368" width="23" height="23" fill="#222222"/>
<rect x="276" y="368" width="23" height="23" fill="#222222"/>
<rect x="322" y="368" width="23" height="23" fill="#222222"/>
<rect x="345" y="368" width="23" height="23" fill="#222222"/>
<rect x="391" y="368" width="23" height="23" fill="#222222"/>
<rect x="414" y="368" width="23" height="23" fill="#222222"/>
<rect x="437" y="368" width="23" height="23" fill="#222222"/>
<rect x="460" y="368" width="23" height="23" fill="#222222"/>
<rect x="69" y="391" width="23" height="23" fill="#222222"/>
<rect x="92" y="391" width="23" height="23" fill="#222222"/>
<rect x="161" y="391" width="23" height="23" fill="#222222"/>
<rect x="184" y="391" width="23" height="23" fill="#222222"/>
<rect x="207" y="391" width="23" height="23" fill="#222222"/>
<rect x="230" y="391" width="23" height="23" fill="#222222"/>
<rect x="253" y="391" width="23" height="23" fill="#222222"/>
<rect x="276" y="391" width="23" height="23" fill="#222222"/>
<rect x="299" y="391" width="23" height="23" fill="#222222"/>
<rect x="322" y="391" width="23" height="23" fill="#222222"/>
<rect x="345" y="391" width="23" height="23" fill="#222222"/>
<rect x="391" y="391" width="23" height="23" fill="#222222"/>
<rect x="414" y="391" width="23" height="23" fill="#222222"/>
<rect x="69" y="414" width="23" height="23" fill="#222222"/>
<rect x="92" y="414" width="23" height="23" fill="#222222"/>
<rect x="115" y="414" width="23" height="23" fill="#222222"/>
<rect x="161" y="414" width="23" height="23" fill="#222222"/>
<rect x="184" y="414" width="23" height="23" fill="#222222"/>
<rect x="207" y="414" width="23" height="23" fill="#222222"/>
<rect x="230" y="414" width="23" height="23" fill="#222222"/>
<rect x="253" y="414" width="23" height="23" fill="#222222"/>
<rect x="276" y="414" width="23" height="23" fill="#222222"/>
<rect x="299" y="414" width="23" height="23" fill="#222222"/>
<rect x="322" y="414" width="23" height="23" fill="#222222"/>
<rect x="345" y="414" width="23" height="23" fill="#212121"/>
<rect x="391" y="414" width="23" height="23" fill="#222222"/>
<rect x="414" y="414" width="23" height="23" fill="#222222"/>
<rect x="69" y="437" width="23" height="23" fill="#222222"/>
<rect x="92" y="437" width="23" height="23" fill="#222222"/>
<rect x="115" y="437" width="23" height="23" fill="#222222"/>
<rect x="161" y="437" width="23" height="23" fill="#222222"/>
<rect x="184" y="437" width="23" height="23" fill="#222222"/>
<rect x="207" y="437" width="23" height="23" fill="#222222"/>
<rect x="230" y="437" width="23" height="23" fill="#222222"/>
<rect x="253" y="437" width="23" height="23" fill="#222222"/>
<rect x="276" y="437" width="23" height="23" fill="#222222"/>
<rect x="299" y="437" width="23" height="23" fill="#222222"/>
<rect x="322" y="437" width="23" height="23" fill="#222222"/>
<rect x="391" y="437" width="23" height="23" fill="#222222"/>
<rect x="414" y="437" width="23" height="23" fill="#222222"/>
<rect x="69" y="460" width="23" height="23" fill="#222222"/>
<rect x="92" y="460" width="23" height="23" fill="#222222"/>
<rect x="115" y="460" width="23" height="23" fill="#222222"/>
<rect x="161" y="460" width="23" height="23" fill="#222222"/>
<rect x="184" y="460" width="23" height="23" fill="#222222"/>
<rect x="207" y="460" width="23" height="23" fill="#222222"/>
<rect x="230" y="460" width="23" height="23" fill="#222222"/>
<rect x="253" y="460" width="23" height="23" fill="#222222"/>
<rect x="276" y="460" width="23" height="23" fill="#222222"/>
<rect x="299" y="460" width="23" height="23" fill="#222222"/>
<rect x="322" y="460" width="23" height="23" fill="#222222"/>
<rect x="391" y="460" width="23" height="23" fill="#222222"/>
<rect x="414" y="460" width="23" height="23" fill="#222222"/>
<rect x="69" y="483" width="23" height="23" fill="#202020"/>
<rect x="92" y="483" width="23" height="23" fill="#222222"/>
<rect x="115" y="483" width="23" height="23" fill="#222222"/>
<rect x="391" y="483" width="23" height="23" fill="#222222"/>
<rect x="414" y="483" width="23" height="23" fill="#222222"/>
<rect x="92" y="506" width="23" height="23" fill="#222222"/>
<rect x="115" y="506" width="23" height="23" fill="#222222"/>
<rect x="138" y="506" width="23" height="23" fill="#222222"/>
<rect x="368" y="506" width="23" height="23" fill="#222222"/>
<rect x="391" y="506" width="23" height="23" fill="#222222"/>
<rect x="92" y="529" width="23" height="23" fill="#222222"/>
<rect x="115" y="529" width="23" height="23" fill="#222222"/>
<rect x="138" y="529" width="23" height="23" fill="#222222"/>
<rect x="161" y="529" width="23" height="23" fill="#222222"/>
<rect x="184" y="529" width="23" height="23" fill="#222222"/>
<rect x="207" y="529" width="23" height="23" fill="#222222"/>
<rect x="230" y="529" width="23" height="23" fill="#222222"/>
<rect x="253" y="529" width="23" height="23" fill="#222222"/>
<rect x="276" y="529" width="23" height="23" fill="#222222"/>
<rect x="299" y="529" width="23" height="23" fill="#222222"/>
<rect x="322" y="529" width="23" height="23" fill="#222222"/>
<rect x="345" y="529" width="23" height="23" fill="#222222"/>
<rect x="368" y="529" width="23" height="23" fill="#222222"/>
<rect x="391" y="529" width="23" height="23" fill="#222222"/>
<rect x="138" y="552" width="23" height="23" fill="#222222"/>
<rect x="161" y="552" width="23" height="23" fill="#222222"/>
<rect x="184" y="552" width="23" height="23" fill="#222222"/>
<rect x="207" y="552" width="23" height="23" fill="#222222"/>
<rect x="230" y="552" width="23" height="23" fill="#222222"/>
<rect x="253" y="552" width="23" height="23" fill="#222222"/>
<rect x="276" y="552" width="23" height="23" fill="#222222"/>
<rect x="299" y="552" width="23" height="23" fill="#222222"/>
<rect x="322" y="552" width="23" height="23" fill="#222222"/>
<rect x="345" y="552" width="23" height="23" fill="#222222"/>
<rect x="368" y="552" width="23" height="23" fill="#222222"/>
<rect x="138" y="575" width="23" height="23" fill="#222222"/>
<rect x="161" y="575" width="23" height="23" fill="#222222"/>
<rect x="184" y="575" width="23" height="23" fill="#222222"/>
<rect x="207" y="575" width="23" height="23" fill="#222222"/>
<rect x="299" y="575" width="23" height="23" fill="#222222"/>
<rect x="322" y="575" width="23" height="23" fill="#222222"/>
<rect x="345" y="575" width="23" height="23" fill="#222222"/>
</svg>
