<svg width="253" height="598" viewBox="0 0 253 598" fill="none" xmlns="http://www.w3.org/2000/svg">
<rect x="46.0039" width="23" height="23" fill="#222222"/>
<rect x="69.0039" width="23" height="23" fill="#222222"/>
<rect x="46.0039" y="23" width="23" height="23" fill="#222222"/>
<rect x="69.0039" y="23" width="23" height="23" fill="#222222"/>
<rect x="92.0039" y="23" width="23" height="23" fill="#222222"/>
<rect x="115.004" y="23" width="23" height="23" fill="#222222"/>
<rect x="138.004" y="23" width="23" height="23" fill="#222222"/>
<rect x="46.0039" y="46" width="23" height="23" fill="#222222"/>
<rect x="69.0039" y="46" width="23" height="23" fill="#222222"/>
<rect x="92.0039" y="46" width="23" height="23" fill="#222222"/>
<rect x="115.004" y="46" width="23" height="23" fill="#222222"/>
<rect x="138.004" y="46" width="23" height="23" fill="#222222"/>
<rect x="46.0039" y="69" width="23" height="23" fill="#222222"/>
<rect x="69.0039" y="69" width="23" height="23" fill="#222222"/>
<rect x="92.0039" y="69" width="23" height="23" fill="#222222"/>
<rect x="115.004" y="69" width="23" height="23" fill="#222222"/>
<rect x="138.004" y="69" width="23" height="23" fill="#222222"/>
<rect x="0.00390625" y="115" width="23" height="23" fill="#222222"/>
<rect x="23.0039" y="115" width="23" height="23" fill="#222222"/>
<rect x="46.0039" y="115" width="23" height="23" fill="#222222"/>
<rect x="69.0039" y="115" width="23" height="23" fill="#222222"/>
<rect x="92.0039" y="115" width="23" height="23" fill="#222222"/>
<rect x="115.004" y="115" width="23" height="23" fill="#222222"/>
<rect x="138.004" y="115" width="23" height="23" fill="#222222"/>
<rect x="161.004" y="115" width="23" height="23" fill="#222222"/>
<rect x="184.004" y="115" width="23" height="23" fill="#222222"/>
<rect x="207.004" y="115" width="23" height="23" fill="#222222"/>
<rect x="230.004" y="115" width="23" height="23" fill="#222222"/>
<rect x="0.00390625" y="138" width="23" height="23" fill="#222222"/>
<rect x="23.0039" y="138" width="23" height="23" fill="#222222"/>
<rect x="46.0039" y="138" width="23" height="23" fill="#222222"/>
<rect x="184.004" y="138" width="23" height="23" fill="#222222"/>
<rect x="207.004" y="138" width="23" height="23" fill="#222222"/>
<rect x="230.004" y="138" width="23" height="23" fill="#222222"/>
<rect x="0.00390625" y="161" width="23" height="23" fill="#222222"/>
<rect x="23.0039" y="161" width="23" height="23" fill="#222222"/>
<rect x="46.0039" y="161" width="23" height="23" fill="#222222"/>
<rect x="69.0039" y="161" width="23" height="23" fill="#222222"/>
<rect x="184.004" y="161" width="23" height="23" fill="#222222"/>
<rect x="207.004" y="161" width="23" height="23" fill="#222222"/>
<rect x="230.004" y="161" width="23" height="23" fill="#222222"/>
<rect x="0.00390625" y="184" width="23" height="23" fill="#222222"/>
<rect x="23.0039" y="184" width="23" height="23" fill="#222222"/>
<rect x="46.0039" y="184" width="23" height="23" fill="#222222"/>
<rect x="69.0039" y="184" width="23" height="23" fill="#222222"/>
<rect x="92.0039" y="184" width="23" height="23" fill="#222222"/>
<rect x="115.004" y="184" width="23" height="23" fill="#222222"/>
<rect x="138.004" y="184" width="23" height="23" fill="#222222"/>
<rect x="161.004" y="184" width="23" height="23" fill="#222222"/>
<rect x="184.004" y="184" width="23" height="23" fill="#222222"/>
<rect x="207.004" y="184" width="23" height="23" fill="#222222"/>
<rect x="230.004" y="184" width="23" height="23" fill="#222222"/>
<rect x="0.00390625" y="207" width="23" height="23" fill="#222222"/>
<rect x="23.0039" y="207" width="23" height="23" fill="#222222"/>
<rect x="46.0039" y="207" width="23" height="23" fill="#222222"/>
<rect x="69.0039" y="207" width="23" height="23" fill="#222222"/>
<rect x="92.0039" y="207" width="23" height="23" fill="#222222"/>
<rect x="115.004" y="207" width="23" height="23" fill="#222222"/>
<rect x="138.004" y="207" width="23" height="23" fill="#222222"/>
<rect x="161.004" y="207" width="23" height="23" fill="#222222"/>
<rect x="184.004" y="207" width="23" height="23" fill="#222222"/>
<rect x="207.004" y="207" width="23" height="23" fill="#222222"/>
<rect x="230.004" y="207" width="23" height="23" fill="#222222"/>
<rect x="0.00390625" y="230" width="23" height="23" fill="#222222"/>
<rect x="23.0039" y="230" width="23" height="23" fill="#222222"/>
<rect x="46.0039" y="230" width="23" height="23" fill="#222222"/>
<rect x="69.0039" y="230" width="23" height="23" fill="#222222"/>
<rect x="92.0039" y="230" width="23" height="23" fill="#222222"/>
<rect x="115.004" y="230" width="23" height="23" fill="#222222"/>
<rect x="138.004" y="230" width="23" height="23" fill="#222222"/>
<rect x="161.004" y="230" width="23" height="23" fill="#222222"/>
<rect x="184.004" y="230" width="23" height="23" fill="#222222"/>
<rect x="207.004" y="230" width="23" height="23" fill="#222222"/>
<rect x="230.004" y="230" width="23" height="23" fill="#222222"/>
<rect x="0.00390625" y="253" width="23" height="23" fill="#222222"/>
<rect x="23.0039" y="253" width="23" height="23" fill="#222222"/>
<rect x="46.0039" y="253" width="23" height="23" fill="#222222"/>
<rect x="69.0039" y="253" width="23" height="23" fill="#222222"/>
<rect x="92.0039" y="253" width="23" height="23" fill="#222222"/>
<rect x="115.004" y="253" width="23" height="23" fill="#222222"/>
<rect x="138.004" y="253" width="23" height="23" fill="#222222"/>
<rect x="161.004" y="253" width="23" height="23" fill="#222222"/>
<rect x="184.004" y="253" width="23" height="23" fill="#222222"/>
<rect x="207.004" y="253" width="23" height="23" fill="#222222"/>
<rect x="230.004" y="253" width="23" height="23" fill="#222222"/>
<rect x="0.00390625" y="276" width="23" height="23" fill="#222222"/>
<rect x="23.0039" y="276" width="23" height="23" fill="#222222"/>
<rect x="46.0039" y="276" width="23" height="23" fill="#222222"/>
<rect x="69.0039" y="276" width="23" height="23" fill="#222222"/>
<rect x="92.0039" y="276" width="23" height="23" fill="#222222"/>
<rect x="115.004" y="276" width="23" height="23" fill="#222222"/>
<rect x="138.004" y="276" width="23" height="23" fill="#222222"/>
<rect x="161.004" y="276" width="23" height="23" fill="#222222"/>
<rect x="184.004" y="276" width="23" height="23" fill="#222222"/>
<rect x="207.004" y="276" width="23" height="23" fill="#222222"/>
<rect x="230.004" y="276" width="23" height="23" fill="#222222"/>
<rect x="0.00390625" y="299" width="23" height="23" fill="#222222"/>
<rect x="23.0039" y="299" width="23" height="23" fill="#222222"/>
<rect x="46.0039" y="299" width="23" height="23" fill="#222222"/>
<rect x="69.0039" y="299" width="23" height="23" fill="#222222"/>
<rect x="92.0039" y="299" width="23" height="23" fill="#222222"/>
<rect x="115.004" y="299" width="23" height="23" fill="#222222"/>
<rect x="138.004" y="299" width="23" height="23" fill="#222222"/>
<rect x="161.004" y="299" width="23" height="23" fill="#222222"/>
<rect x="184.004" y="299" width="23" height="23" fill="#222222"/>
<rect x="207.004" y="299" width="23" height="23" fill="#222222"/>
<rect x="230.004" y="299" width="23" height="23" fill="#222222"/>
<rect x="0.00390625" y="322" width="23" height="23" fill="#222222"/>
<rect x="23.0039" y="322" width="23" height="23" fill="#222222"/>
<rect x="46.0039" y="322" width="23" height="23" fill="#222222"/>
<rect x="69.0039" y="322" width="23" height="23" fill="#222222"/>
<rect x="92.0039" y="322" width="23" height="23" fill="#222222"/>
<rect x="115.004" y="322" width="23" height="23" fill="#222222"/>
<rect x="138.004" y="322" width="23" height="23" fill="#222222"/>
<rect x="161.004" y="322" width="23" height="23" fill="#222222"/>
<rect x="184.004" y="322" width="23" height="23" fill="#222222"/>
<rect x="207.004" y="322" width="23" height="23" fill="#222222"/>
<rect x="230.004" y="322" width="23" height="23" fill="#222222"/>
<rect x="0.00390625" y="345" width="23" height="23" fill="#222222"/>
<rect x="23.0039" y="345" width="23" height="23" fill="#222222"/>
<rect x="46.0039" y="345" width="23" height="23" fill="#222222"/>
<rect x="69.0039" y="345" width="23" height="23" fill="#222222"/>
<rect x="92.0039" y="345" width="23" height="23" fill="#222222"/>
<rect x="115.004" y="345" width="23" height="23" fill="#222222"/>
<rect x="138.004" y="345" width="23" height="23" fill="#222222"/>
<rect x="161.004" y="345" width="23" height="23" fill="#222222"/>
<rect x="184.004" y="345" width="23" height="23" fill="#222222"/>
<rect x="207.004" y="345" width="23" height="23" fill="#222222"/>
<rect x="230.004" y="345" width="23" height="23" fill="#222222"/>
<rect x="0.00390625" y="368" width="23" height="23" fill="#222222"/>
<rect x="23.0039" y="368" width="23" height="23" fill="#222222"/>
<rect x="46.0039" y="368" width="23" height="23" fill="#222222"/>
<rect x="69.0039" y="368" width="23" height="23" fill="#222222"/>
<rect x="92.0039" y="368" width="23" height="23" fill="#222222"/>
<rect x="115.004" y="368" width="23" height="23" fill="#222222"/>
<rect x="138.004" y="368" width="23" height="23" fill="#222222"/>
<rect x="161.004" y="368" width="23" height="23" fill="#222222"/>
<rect x="184.004" y="368" width="23" height="23" fill="#222222"/>
<rect x="207.004" y="368" width="23" height="23" fill="#222222"/>
<rect x="230.004" y="368" width="23" height="23" fill="#222222"/>
<rect x="0.00390625" y="391" width="23" height="23" fill="#222222"/>
<rect x="23.0039" y="391" width="23" height="23" fill="#222222"/>
<rect x="46.0039" y="391" width="23" height="23" fill="#222222"/>
<rect x="69.0039" y="391" width="23" height="23" fill="#222222"/>
<rect x="92.0039" y="391" width="23" height="23" fill="#222222"/>
<rect x="115.004" y="391" width="23" height="23" fill="#222222"/>
<rect x="138.004" y="391" width="23" height="23" fill="#222222"/>
<rect x="161.004" y="391" width="23" height="23" fill="#222222"/>
<rect x="184.004" y="391" width="23" height="23" fill="#222222"/>
<rect x="207.004" y="391" width="23" height="23" fill="#222222"/>
<rect x="230.004" y="391" width="23" height="23" fill="#222222"/>
<rect x="0.00390625" y="414" width="23" height="23" fill="#222222"/>
<rect x="23.0039" y="414" width="23" height="23" fill="#222222"/>
<rect x="46.0039" y="414" width="23" height="23" fill="#222222"/>
<rect x="69.0039" y="414" width="23" height="23" fill="#222222"/>
<rect x="92.0039" y="414" width="23" height="23" fill="#222222"/>
<rect x="115.004" y="414" width="23" height="23" fill="#222222"/>
<rect x="138.004" y="414" width="23" height="23" fill="#222222"/>
<rect x="161.004" y="414" width="23" height="23" fill="#222222"/>
<rect x="184.004" y="414" width="23" height="23" fill="#222222"/>
<rect x="207.004" y="414" width="23" height="23" fill="#222222"/>
<rect x="230.004" y="414" width="23" height="23" fill="#222222"/>
<rect x="0.00390625" y="437" width="23" height="23" fill="#222222"/>
<rect x="23.0039" y="437" width="23" height="23" fill="#222222"/>
<rect x="46.0039" y="437" width="23" height="23" fill="#222222"/>
<rect x="69.0039" y="437" width="23" height="23" fill="#222222"/>
<rect x="92.0039" y="437" width="23" height="23" fill="#222222"/>
<rect x="115.004" y="437" width="23" height="23" fill="#222222"/>
<rect x="138.004" y="437" width="23" height="23" fill="#222222"/>
<rect x="161.004" y="437" width="23" height="23" fill="#222222"/>
<rect x="184.004" y="437" width="23" height="23" fill="#222222"/>
<rect x="207.004" y="437" width="23" height="23" fill="#222222"/>
<rect x="230.004" y="437" width="23" height="23" fill="#222222"/>
<rect x="0.00390625" y="460" width="23" height="23" fill="#222222"/>
<rect x="23.0039" y="460" width="23" height="23" fill="#222222"/>
<rect x="46.0039" y="460" width="23" height="23" fill="#222222"/>
<rect x="69.0039" y="460" width="23" height="23" fill="#222222"/>
<rect x="92.0039" y="460" width="23" height="23" fill="#222222"/>
<rect x="115.004" y="460" width="23" height="23" fill="#222222"/>
<rect x="138.004" y="460" width="23" height="23" fill="#222222"/>
<rect x="161.004" y="460" width="23" height="23" fill="#222222"/>
<rect x="184.004" y="460" width="23" height="23" fill="#222222"/>
<rect x="207.004" y="460" width="23" height="23" fill="#222222"/>
<rect x="230.004" y="460" width="23" height="23" fill="#222222"/>
<rect x="0.00390625" y="483" width="23" height="23" fill="#222222"/>
<rect x="23.0039" y="483" width="23" height="23" fill="#222222"/>
<rect x="46.0039" y="483" width="23" height="23" fill="#222222"/>
<rect x="69.0039" y="483" width="23" height="23" fill="#222222"/>
<rect x="92.0039" y="483" width="23" height="23" fill="#222222"/>
<rect x="115.004" y="483" width="23" height="23" fill="#222222"/>
<rect x="138.004" y="483" width="23" height="23" fill="#222222"/>
<rect x="161.004" y="483" width="23" height="23" fill="#222222"/>
<rect x="184.004" y="483" width="23" height="23" fill="#222222"/>
<rect x="207.004" y="483" width="23" height="23" fill="#222222"/>
<rect x="230.004" y="483" width="23" height="23" fill="#222222"/>
<rect x="23.0039" y="506" width="23" height="23" fill="#222222"/>
<rect x="46.0039" y="506" width="23" height="23" fill="#222222"/>
<rect x="69.0039" y="506" width="23" height="23" fill="#222222"/>
<rect x="92.0039" y="506" width="23" height="23" fill="#222222"/>
<rect x="115.004" y="506" width="23" height="23" fill="#222222"/>
<rect x="138.004" y="506" width="23" height="23" fill="#222222"/>
<rect x="161.004" y="506" width="23" height="23" fill="#222222"/>
<rect x="184.004" y="506" width="23" height="23" fill="#222222"/>
<rect x="207.004" y="506" width="23" height="23" fill="#222222"/>
<rect x="230.004" y="506" width="23" height="23" fill="#222222"/>
<rect x="92.0039" y="529" width="23" height="23" fill="#222222"/>
<rect x="115.004" y="529" width="23" height="23" fill="#222222"/>
<rect x="138.004" y="529" width="23" height="23" fill="#222222"/>
<rect x="161.004" y="529" width="23" height="23" fill="#222222"/>
<rect x="92.0039" y="552" width="23" height="23" fill="#222222"/>
<rect x="115.004" y="552" width="23" height="23" fill="#222222"/>
<rect x="138.004" y="552" width="23" height="23" fill="#222222"/>
<rect x="115.004" y="575" width="23" height="23" fill="#222222"/>
<rect x="138.004" y="575" width="23" height="23" fill="#222222"/>
</svg>
