<svg width="357" height="609" viewBox="0 0 357 609" fill="none" xmlns="http://www.w3.org/2000/svg">
<rect x="147" width="21" height="21" fill="#222222"/>
<rect x="84" y="21" width="21" height="21" fill="#222222"/>
<rect x="105" y="21" width="21" height="21" fill="#222222"/>
<rect x="126" y="21" width="21" height="21" fill="#222222"/>
<rect x="147" y="21" width="21" height="21" fill="#222222"/>
<rect x="168" y="21" width="21" height="21" fill="#222222"/>
<rect x="42" y="42" width="21" height="21" fill="#222222"/>
<rect x="63" y="42" width="21" height="21" fill="#222222"/>
<rect x="84" y="42" width="21" height="21" fill="#222222"/>
<rect x="105" y="42" width="21" height="21" fill="#222222"/>
<rect x="126" y="42" width="21" height="21" fill="#222222"/>
<rect x="147" y="42" width="21" height="21" fill="#222222"/>
<rect x="168" y="42" width="21" height="21" fill="#222222"/>
<rect x="189" y="42" width="21" height="21" fill="#222222"/>
<rect x="210" y="42" width="21" height="21" fill="#222222"/>
<rect x="231" y="42" width="21" height="21" fill="#222222"/>
<rect x="42" y="63" width="21" height="21" fill="#222222"/>
<rect x="63" y="63" width="21" height="21" fill="#222222"/>
<rect x="84" y="63" width="21" height="21" fill="#222222"/>
<rect x="105" y="63" width="21" height="21" fill="#222222"/>
<rect x="126" y="63" width="21" height="21" fill="#222222"/>
<rect x="147" y="63" width="21" height="21" fill="#222222"/>
<rect x="168" y="63" width="21" height="21" fill="#222222"/>
<rect x="189" y="63" width="21" height="21" fill="#222222"/>
<rect x="210" y="63" width="21" height="21" fill="#222222"/>
<rect x="231" y="63" width="21" height="21" fill="#222222"/>
<rect x="252" y="63" width="21" height="21" fill="#222222"/>
<rect x="273" y="63" width="21" height="21" fill="#222222"/>
<rect x="21" y="84" width="21" height="21" fill="#222222"/>
<rect x="42" y="84" width="21" height="21" fill="#222222"/>
<rect x="63" y="84" width="21" height="21" fill="#222222"/>
<rect x="84" y="84" width="21" height="21" fill="#222222"/>
<rect x="105" y="84" width="21" height="21" fill="#222222"/>
<rect x="126" y="84" width="21" height="21" fill="#222222"/>
<rect x="231" y="84" width="21" height="21" fill="#222222"/>
<rect x="252" y="84" width="21" height="21" fill="#222222"/>
<rect x="273" y="84" width="21" height="21" fill="#222222"/>
<rect x="294" y="84" width="21" height="21" fill="#222222"/>
<rect x="21" y="105" width="21" height="21" fill="#222222"/>
<rect x="42" y="105" width="21" height="21" fill="#222222"/>
<rect x="63" y="105" width="21" height="21" fill="#222222"/>
<rect x="84" y="105" width="21" height="21" fill="#222222"/>
<rect x="273" y="105" width="21" height="21" fill="#222222"/>
<rect x="294" y="105" width="21" height="21" fill="#222222"/>
<rect x="315" y="105" width="21" height="21" fill="#222222"/>
<rect x="21" y="126" width="21" height="21" fill="#222222"/>
<rect x="42" y="126" width="21" height="21" fill="#222222"/>
<rect x="63" y="126" width="21" height="21" fill="#222222"/>
<rect x="84" y="126" width="21" height="21" fill="#232323"/>
<rect x="273" y="126" width="21" height="21" fill="#222222"/>
<rect x="294" y="126" width="21" height="21" fill="#222222"/>
<rect x="315" y="126" width="21" height="21" fill="#222222"/>
<rect y="147" width="21" height="21" fill="#222222"/>
<rect x="21" y="147" width="21" height="21" fill="#222222"/>
<rect x="42" y="147" width="21" height="21" fill="#222222"/>
<rect x="63" y="147" width="21" height="21" fill="#222222"/>
<rect x="294" y="147" width="21" height="21" fill="#222222"/>
<rect x="315" y="147" width="21" height="21" fill="#222222"/>
<rect x="336" y="147" width="21" height="21" fill="#202020"/>
<rect y="168" width="21" height="21" fill="#212121"/>
<rect x="21" y="168" width="21" height="21" fill="#222222"/>
<rect x="42" y="168" width="21" height="21" fill="#222222"/>
<rect x="63" y="168" width="21" height="21" fill="#222222"/>
<rect x="294" y="168" width="21" height="21" fill="#222222"/>
<rect x="315" y="168" width="21" height="21" fill="#222222"/>
<rect x="336" y="168" width="21" height="21" fill="#222222"/>
<rect y="189" width="21" height="21" fill="#212121"/>
<rect x="21" y="189" width="21" height="21" fill="#222222"/>
<rect x="42" y="189" width="21" height="21" fill="#222222"/>
<rect x="63" y="189" width="21" height="21" fill="#222222"/>
<rect x="294" y="189" width="21" height="21" fill="#222222"/>
<rect x="315" y="189" width="21" height="21" fill="#222222"/>
<rect x="336" y="189" width="21" height="21" fill="#222222"/>
<rect y="210" width="21" height="21" fill="#212121"/>
<rect x="21" y="210" width="21" height="21" fill="#222222"/>
<rect x="42" y="210" width="21" height="21" fill="#222222"/>
<rect x="63" y="210" width="21" height="21" fill="#222222"/>
<rect x="294" y="210" width="21" height="21" fill="#222222"/>
<rect x="315" y="210" width="21" height="21" fill="#222222"/>
<rect x="336" y="210" width="21" height="21" fill="#222222"/>
<rect y="231" width="21" height="21" fill="#212121"/>
<rect x="21" y="231" width="21" height="21" fill="#222222"/>
<rect x="42" y="231" width="21" height="21" fill="#222222"/>
<rect x="63" y="231" width="21" height="21" fill="#222222"/>
<rect x="294" y="231" width="21" height="21" fill="#222222"/>
<rect x="315" y="231" width="21" height="21" fill="#222222"/>
<rect y="252" width="21" height="21" fill="#212121"/>
<rect x="21" y="252" width="21" height="21" fill="#222222"/>
<rect x="42" y="252" width="21" height="21" fill="#222222"/>
<rect x="63" y="252" width="21" height="21" fill="#222222"/>
<rect x="84" y="252" width="21" height="21" fill="#222222"/>
<rect x="273" y="252" width="21" height="21" fill="#222222"/>
<rect x="294" y="252" width="21" height="21" fill="#222222"/>
<rect x="315" y="252" width="21" height="21" fill="#222222"/>
<rect y="273" width="21" height="21" fill="#212121"/>
<rect x="21" y="273" width="21" height="21" fill="#222222"/>
<rect x="42" y="273" width="21" height="21" fill="#222222"/>
<rect x="63" y="273" width="21" height="21" fill="#222222"/>
<rect x="84" y="273" width="21" height="21" fill="#222222"/>
<rect x="105" y="273" width="21" height="21" fill="#222222"/>
<rect x="252" y="273" width="21" height="21" fill="#222222"/>
<rect x="273" y="273" width="21" height="21" fill="#222222"/>
<rect x="294" y="273" width="21" height="21" fill="#222222"/>
<rect y="294" width="21" height="21" fill="#212121"/>
<rect x="21" y="294" width="21" height="21" fill="#222222"/>
<rect x="42" y="294" width="21" height="21" fill="#222222"/>
<rect x="63" y="294" width="21" height="21" fill="#222222"/>
<rect x="84" y="294" width="21" height="21" fill="#222222"/>
<rect x="105" y="294" width="21" height="21" fill="#222222"/>
<rect x="126" y="294" width="21" height="21" fill="#222222"/>
<rect x="147" y="294" width="21" height="21" fill="#222222"/>
<rect x="168" y="294" width="21" height="21" fill="#202020"/>
<rect x="189" y="294" width="21" height="21" fill="#222222"/>
<rect x="210" y="294" width="21" height="21" fill="#222222"/>
<rect x="231" y="294" width="21" height="21" fill="#222222"/>
<rect x="252" y="294" width="21" height="21" fill="#222222"/>
<rect x="273" y="294" width="21" height="21" fill="#222222"/>
<rect x="294" y="294" width="21" height="21" fill="#222222"/>
<rect y="315" width="21" height="21" fill="#212121"/>
<rect x="21" y="315" width="21" height="21" fill="#222222"/>
<rect x="42" y="315" width="21" height="21" fill="#222222"/>
<rect x="63" y="315" width="21" height="21" fill="#222222"/>
<rect x="126" y="315" width="21" height="21" fill="#222222"/>
<rect x="147" y="315" width="21" height="21" fill="#222222"/>
<rect x="168" y="315" width="21" height="21" fill="#222222"/>
<rect x="189" y="315" width="21" height="21" fill="#222222"/>
<rect x="210" y="315" width="21" height="21" fill="#222222"/>
<rect x="231" y="315" width="21" height="21" fill="#222222"/>
<rect x="252" y="315" width="21" height="21" fill="#222222"/>
<rect y="336" width="21" height="21" fill="#212121"/>
<rect x="21" y="336" width="21" height="21" fill="#222222"/>
<rect x="42" y="336" width="21" height="21" fill="#222222"/>
<rect x="126" y="336" width="21" height="21" fill="#222222"/>
<rect x="147" y="336" width="21" height="21" fill="#222222"/>
<rect x="168" y="336" width="21" height="21" fill="#222222"/>
<rect x="189" y="336" width="21" height="21" fill="#222222"/>
<rect x="210" y="336" width="21" height="21" fill="#222222"/>
<rect x="231" y="336" width="21" height="21" fill="#222222"/>
<rect x="252" y="336" width="21" height="21" fill="#222222"/>
<rect y="357" width="21" height="21" fill="#212121"/>
<rect x="21" y="357" width="21" height="21" fill="#222222"/>
<rect x="42" y="357" width="21" height="21" fill="#222222"/>
<rect x="63" y="357" width="21" height="21" fill="#222222"/>
<rect x="126" y="357" width="21" height="21" fill="#222222"/>
<rect x="147" y="357" width="21" height="21" fill="#222222"/>
<rect x="168" y="357" width="21" height="21" fill="#222222"/>
<rect x="189" y="357" width="21" height="21" fill="#222222"/>
<rect x="210" y="357" width="21" height="21" fill="#222222"/>
<rect x="231" y="357" width="21" height="21" fill="#222222"/>
<rect x="252" y="357" width="21" height="21" fill="#222222"/>
<rect y="378" width="21" height="21" fill="#212121"/>
<rect x="21" y="378" width="21" height="21" fill="#222222"/>
<rect x="42" y="378" width="21" height="21" fill="#222222"/>
<rect x="63" y="378" width="21" height="21" fill="#222222"/>
<rect x="84" y="378" width="21" height="21" fill="#222222"/>
<rect x="105" y="378" width="21" height="21" fill="#222222"/>
<rect x="126" y="378" width="21" height="21" fill="#222222"/>
<rect x="147" y="378" width="21" height="21" fill="#222222"/>
<rect x="168" y="378" width="21" height="21" fill="#222222"/>
<rect x="189" y="378" width="21" height="21" fill="#222222"/>
<rect x="210" y="378" width="21" height="21" fill="#222222"/>
<rect x="231" y="378" width="21" height="21" fill="#222222"/>
<rect x="252" y="378" width="21" height="21" fill="#222222"/>
<rect y="399" width="21" height="21" fill="#212121"/>
<rect x="21" y="399" width="21" height="21" fill="#222222"/>
<rect x="42" y="399" width="21" height="21" fill="#222222"/>
<rect x="147" y="399" width="21" height="21" fill="#222222"/>
<rect x="168" y="399" width="21" height="21" fill="#222222"/>
<rect x="189" y="399" width="21" height="21" fill="#222222"/>
<rect x="210" y="399" width="21" height="21" fill="#222222"/>
<rect x="231" y="399" width="21" height="21" fill="#222222"/>
<rect x="252" y="399" width="21" height="21" fill="#222222"/>
<rect y="420" width="21" height="21" fill="#212121"/>
<rect x="21" y="420" width="21" height="21" fill="#222222"/>
<rect x="42" y="420" width="21" height="21" fill="#222222"/>
<rect x="126" y="420" width="21" height="21" fill="#222222"/>
<rect x="147" y="420" width="21" height="21" fill="#222222"/>
<rect x="168" y="420" width="21" height="21" fill="#222222"/>
<rect x="189" y="420" width="21" height="21" fill="#222222"/>
<rect x="210" y="420" width="21" height="21" fill="#222222"/>
<rect x="231" y="420" width="21" height="21" fill="#222222"/>
<rect x="252" y="420" width="21" height="21" fill="#222222"/>
<rect y="441" width="21" height="21" fill="#212121"/>
<rect x="21" y="441" width="21" height="21" fill="#222222"/>
<rect x="42" y="441" width="21" height="21" fill="#222222"/>
<rect x="126" y="441" width="21" height="21" fill="#222222"/>
<rect x="147" y="441" width="21" height="21" fill="#222222"/>
<rect x="168" y="441" width="21" height="21" fill="#222222"/>
<rect x="189" y="441" width="21" height="21" fill="#222222"/>
<rect x="210" y="441" width="21" height="21" fill="#222222"/>
<rect x="231" y="441" width="21" height="21" fill="#222222"/>
<rect x="252" y="441" width="21" height="21" fill="#222222"/>
<rect y="462" width="21" height="21" fill="#212121"/>
<rect x="21" y="462" width="21" height="21" fill="#222222"/>
<rect x="42" y="462" width="21" height="21" fill="#222222"/>
<rect x="147" y="462" width="21" height="21" fill="#222222"/>
<rect x="168" y="462" width="21" height="21" fill="#222222"/>
<rect x="189" y="462" width="21" height="21" fill="#222222"/>
<rect x="210" y="462" width="21" height="21" fill="#222222"/>
<rect x="231" y="462" width="21" height="21" fill="#222222"/>
<rect x="252" y="462" width="21" height="21" fill="#222222"/>
<rect y="483" width="21" height="21" fill="#222222"/>
<rect x="21" y="483" width="21" height="21" fill="#222222"/>
<rect x="42" y="483" width="21" height="21" fill="#222222"/>
<rect x="63" y="483" width="21" height="21" fill="#222222"/>
<rect x="84" y="483" width="21" height="21" fill="#222222"/>
<rect x="105" y="483" width="21" height="21" fill="#222222"/>
<rect x="126" y="483" width="21" height="21" fill="#222222"/>
<rect x="147" y="483" width="21" height="21" fill="#222222"/>
<rect x="168" y="483" width="21" height="21" fill="#222222"/>
<rect x="189" y="483" width="21" height="21" fill="#222222"/>
<rect x="210" y="483" width="21" height="21" fill="#222222"/>
<rect x="231" y="483" width="21" height="21" fill="#222222"/>
<rect x="252" y="483" width="21" height="21" fill="#222222"/>
<rect x="21" y="504" width="21" height="21" fill="#222222"/>
<rect x="42" y="504" width="21" height="21" fill="#222222"/>
<rect x="63" y="504" width="21" height="21" fill="#222222"/>
<rect x="84" y="504" width="21" height="21" fill="#222222"/>
<rect x="105" y="504" width="21" height="21" fill="#222222"/>
<rect x="126" y="504" width="21" height="21" fill="#222222"/>
<rect x="147" y="504" width="21" height="21" fill="#222222"/>
<rect x="168" y="504" width="21" height="21" fill="#222222"/>
<rect x="189" y="504" width="21" height="21" fill="#222222"/>
<rect x="210" y="504" width="21" height="21" fill="#222222"/>
<rect x="231" y="504" width="21" height="21" fill="#222222"/>
<rect x="252" y="504" width="21" height="21" fill="#222222"/>
<rect x="21" y="525" width="21" height="21" fill="#222222"/>
<rect x="42" y="525" width="21" height="21" fill="#222222"/>
<rect x="63" y="525" width="21" height="21" fill="#222222"/>
<rect x="84" y="525" width="21" height="21" fill="#222222"/>
<rect x="105" y="525" width="21" height="21" fill="#222222"/>
<rect x="126" y="525" width="21" height="21" fill="#222222"/>
<rect x="147" y="525" width="21" height="21" fill="#222222"/>
<rect x="168" y="525" width="21" height="21" fill="#222222"/>
<rect x="189" y="525" width="21" height="21" fill="#222222"/>
<rect x="210" y="525" width="21" height="21" fill="#222222"/>
<rect x="231" y="525" width="21" height="21" fill="#222222"/>
<rect x="252" y="525" width="21" height="21" fill="#222222"/>
<rect x="63" y="546" width="21" height="21" fill="#222222"/>
<rect x="84" y="546" width="21" height="21" fill="#222222"/>
<rect x="105" y="546" width="21" height="21" fill="#222222"/>
<rect x="126" y="546" width="21" height="21" fill="#222222"/>
<rect x="147" y="546" width="21" height="21" fill="#222222"/>
<rect x="168" y="546" width="21" height="21" fill="#222222"/>
<rect x="189" y="546" width="21" height="21" fill="#222222"/>
<rect x="210" y="546" width="21" height="21" fill="#222222"/>
<rect x="231" y="546" width="21" height="21" fill="#222222"/>
<rect x="84" y="567" width="21" height="21" fill="#222222"/>
<rect x="105" y="567" width="21" height="21" fill="#222222"/>
<rect x="126" y="567" width="21" height="21" fill="#222222"/>
<rect x="147" y="567" width="21" height="21" fill="#222222"/>
<rect x="168" y="567" width="21" height="21" fill="#222222"/>
<rect x="189" y="567" width="21" height="21" fill="#222222"/>
<rect x="210" y="567" width="21" height="21" fill="#222222"/>
<rect x="126" y="588" width="21" height="21" fill="#222222"/>
<rect x="147" y="588" width="21" height="21" fill="#222222"/>
<rect x="168" y="588" width="21" height="21" fill="#222222"/>
</svg>
