<svg width="378" height="609" viewBox="0 0 378 609" fill="none" xmlns="http://www.w3.org/2000/svg">
<rect x="63" width="21" height="21" fill="#222222"/>
<rect x="84" width="21" height="21" fill="#222222"/>
<rect x="105" width="21" height="21" fill="#222222"/>
<rect x="126" width="21" height="21" fill="#202020"/>
<rect x="42" y="21" width="21" height="21" fill="#202020"/>
<rect x="63" y="21" width="21" height="21" fill="#222222"/>
<rect x="84" y="21" width="21" height="21" fill="#222222"/>
<rect x="105" y="21" width="21" height="21" fill="#222222"/>
<rect x="126" y="21" width="21" height="21" fill="#222222"/>
<rect x="21" y="42" width="21" height="21" fill="#222222"/>
<rect x="42" y="42" width="21" height="21" fill="#222222"/>
<rect x="63" y="42" width="21" height="21" fill="#222222"/>
<rect x="84" y="42" width="21" height="21" fill="#222222"/>
<rect x="105" y="42" width="21" height="21" fill="#222222"/>
<rect x="126" y="42" width="21" height="21" fill="#222222"/>
<rect x="147" y="42" width="21" height="21" fill="#222222"/>
<rect x="168" y="42" width="21" height="21" fill="#222222"/>
<rect x="189" y="42" width="21" height="21" fill="#222222"/>
<rect x="210" y="42" width="21" height="21" fill="#222222"/>
<rect x="231" y="42" width="21" height="21" fill="#222222"/>
<rect x="252" y="42" width="21" height="21" fill="#222222"/>
<rect x="273" y="42" width="21" height="21" fill="#222222"/>
<rect x="294" y="42" width="21" height="21" fill="#222222"/>
<rect x="315" y="42" width="21" height="21" fill="#222222"/>
<rect x="336" y="42" width="21" height="21" fill="#222222"/>
<rect y="63" width="21" height="21" fill="#222222"/>
<rect x="21" y="63" width="21" height="21" fill="#222222"/>
<rect x="42" y="63" width="21" height="21" fill="#222222"/>
<rect x="63" y="63" width="21" height="21" fill="#222222"/>
<rect x="84" y="63" width="21" height="21" fill="#222222"/>
<rect x="105" y="63" width="21" height="21" fill="#222222"/>
<rect x="126" y="63" width="21" height="21" fill="#222222"/>
<rect x="147" y="63" width="21" height="21" fill="#222222"/>
<rect x="168" y="63" width="21" height="21" fill="#222222"/>
<rect x="189" y="63" width="21" height="21" fill="#222222"/>
<rect x="210" y="63" width="21" height="21" fill="#222222"/>
<rect x="231" y="63" width="21" height="21" fill="#222222"/>
<rect x="252" y="63" width="21" height="21" fill="#222222"/>
<rect x="273" y="63" width="21" height="21" fill="#222222"/>
<rect x="294" y="63" width="21" height="21" fill="#222222"/>
<rect x="315" y="63" width="21" height="21" fill="#222222"/>
<rect x="336" y="63" width="21" height="21" fill="#222222"/>
<rect y="84" width="21" height="21" fill="#222222"/>
<rect x="21" y="84" width="21" height="21" fill="#222222"/>
<rect x="42" y="84" width="21" height="21" fill="#222222"/>
<rect x="63" y="84" width="21" height="21" fill="#222222"/>
<rect x="84" y="84" width="21" height="21" fill="#222222"/>
<rect x="105" y="84" width="21" height="21" fill="#222222"/>
<rect x="126" y="84" width="21" height="21" fill="#222222"/>
<rect x="147" y="84" width="21" height="21" fill="#222222"/>
<rect x="168" y="84" width="21" height="21" fill="#222222"/>
<rect x="189" y="84" width="21" height="21" fill="#222222"/>
<rect x="210" y="84" width="21" height="21" fill="#222222"/>
<rect x="231" y="84" width="21" height="21" fill="#222222"/>
<rect x="252" y="84" width="21" height="21" fill="#222222"/>
<rect x="273" y="84" width="21" height="21" fill="#222222"/>
<rect x="294" y="84" width="21" height="21" fill="#222222"/>
<rect x="315" y="84" width="21" height="21" fill="#222222"/>
<rect x="336" y="84" width="21" height="21" fill="#222222"/>
<rect y="105" width="21" height="21" fill="#222222"/>
<rect x="21" y="105" width="21" height="21" fill="#222222"/>
<rect x="42" y="105" width="21" height="21" fill="#222222"/>
<rect x="63" y="105" width="21" height="21" fill="#222222"/>
<rect x="84" y="105" width="21" height="21" fill="#222222"/>
<rect x="105" y="105" width="21" height="21" fill="#222222"/>
<rect x="126" y="105" width="21" height="21" fill="#222222"/>
<rect x="147" y="105" width="21" height="21" fill="#222222"/>
<rect x="210" y="105" width="21" height="21" fill="#222222"/>
<rect x="231" y="105" width="21" height="21" fill="#222222"/>
<rect x="252" y="105" width="21" height="21" fill="#222222"/>
<rect x="273" y="105" width="21" height="21" fill="#222222"/>
<rect x="294" y="105" width="21" height="21" fill="#222222"/>
<rect x="315" y="105" width="21" height="21" fill="#222222"/>
<rect x="336" y="105" width="21" height="21" fill="#222222"/>
<rect y="126" width="21" height="21" fill="#222222"/>
<rect x="21" y="126" width="21" height="21" fill="#222222"/>
<rect x="42" y="126" width="21" height="21" fill="#222222"/>
<rect x="63" y="126" width="21" height="21" fill="#222222"/>
<rect x="84" y="126" width="21" height="21" fill="#222222"/>
<rect x="105" y="126" width="21" height="21" fill="#222222"/>
<rect x="126" y="126" width="21" height="21" fill="#222222"/>
<rect x="147" y="126" width="21" height="21" fill="#222222"/>
<rect x="210" y="126" width="21" height="21" fill="#222222"/>
<rect x="231" y="126" width="21" height="21" fill="#222222"/>
<rect x="252" y="126" width="21" height="21" fill="#222222"/>
<rect x="273" y="126" width="21" height="21" fill="#222222"/>
<rect x="294" y="126" width="21" height="21" fill="#222222"/>
<rect x="315" y="126" width="21" height="21" fill="#222222"/>
<rect x="336" y="126" width="21" height="21" fill="#222222"/>
<rect y="147" width="21" height="21" fill="#222222"/>
<rect x="21" y="147" width="21" height="21" fill="#222222"/>
<rect x="42" y="147" width="21" height="21" fill="#222222"/>
<rect x="63" y="147" width="21" height="21" fill="#222222"/>
<rect x="84" y="147" width="21" height="21" fill="#222222"/>
<rect x="105" y="147" width="21" height="21" fill="#222222"/>
<rect x="126" y="147" width="21" height="21" fill="#222222"/>
<rect x="147" y="147" width="21" height="21" fill="#222222"/>
<rect x="210" y="147" width="21" height="21" fill="#222222"/>
<rect x="231" y="147" width="21" height="21" fill="#222222"/>
<rect x="252" y="147" width="21" height="21" fill="#222222"/>
<rect x="273" y="147" width="21" height="21" fill="#222222"/>
<rect x="294" y="147" width="21" height="21" fill="#222222"/>
<rect x="315" y="147" width="21" height="21" fill="#222222"/>
<rect x="336" y="147" width="21" height="21" fill="#222222"/>
<rect y="168" width="21" height="21" fill="#222222"/>
<rect x="21" y="168" width="21" height="21" fill="#222222"/>
<rect x="42" y="168" width="21" height="21" fill="#222222"/>
<rect x="63" y="168" width="21" height="21" fill="#222222"/>
<rect x="84" y="168" width="21" height="21" fill="#222222"/>
<rect x="105" y="168" width="21" height="21" fill="#222222"/>
<rect x="126" y="168" width="21" height="21" fill="#222222"/>
<rect x="147" y="168" width="21" height="21" fill="#222222"/>
<rect x="210" y="168" width="21" height="21" fill="#222222"/>
<rect x="231" y="168" width="21" height="21" fill="#222222"/>
<rect x="252" y="168" width="21" height="21" fill="#222222"/>
<rect x="273" y="168" width="21" height="21" fill="#222222"/>
<rect x="294" y="168" width="21" height="21" fill="#222222"/>
<rect x="315" y="168" width="21" height="21" fill="#222222"/>
<rect x="336" y="168" width="21" height="21" fill="#222222"/>
<rect y="189" width="21" height="21" fill="#222222"/>
<rect x="21" y="189" width="21" height="21" fill="#222222"/>
<rect x="42" y="189" width="21" height="21" fill="#222222"/>
<rect x="63" y="189" width="21" height="21" fill="#222222"/>
<rect x="84" y="189" width="21" height="21" fill="#222222"/>
<rect x="105" y="189" width="21" height="21" fill="#222222"/>
<rect x="126" y="189" width="21" height="21" fill="#222222"/>
<rect x="147" y="189" width="21" height="21" fill="#222222"/>
<rect x="210" y="189" width="21" height="21" fill="#222222"/>
<rect x="231" y="189" width="21" height="21" fill="#222222"/>
<rect x="252" y="189" width="21" height="21" fill="#222222"/>
<rect x="273" y="189" width="21" height="21" fill="#222222"/>
<rect x="294" y="189" width="21" height="21" fill="#222222"/>
<rect x="315" y="189" width="21" height="21" fill="#222222"/>
<rect x="336" y="189" width="21" height="21" fill="#222222"/>
<rect y="210" width="21" height="21" fill="#222222"/>
<rect x="21" y="210" width="21" height="21" fill="#222222"/>
<rect x="42" y="210" width="21" height="21" fill="#222222"/>
<rect x="63" y="210" width="21" height="21" fill="#222222"/>
<rect x="84" y="210" width="21" height="21" fill="#222222"/>
<rect x="105" y="210" width="21" height="21" fill="#222222"/>
<rect x="126" y="210" width="21" height="21" fill="#222222"/>
<rect x="147" y="210" width="21" height="21" fill="#222222"/>
<rect x="210" y="210" width="21" height="21" fill="#222222"/>
<rect x="231" y="210" width="21" height="21" fill="#222222"/>
<rect x="252" y="210" width="21" height="21" fill="#222222"/>
<rect x="273" y="210" width="21" height="21" fill="#222222"/>
<rect x="294" y="210" width="21" height="21" fill="#222222"/>
<rect x="315" y="210" width="21" height="21" fill="#222222"/>
<rect x="336" y="210" width="21" height="21" fill="#222222"/>
<rect y="231" width="21" height="21" fill="#222222"/>
<rect x="21" y="231" width="21" height="21" fill="#222222"/>
<rect x="42" y="231" width="21" height="21" fill="#222222"/>
<rect x="63" y="231" width="21" height="21" fill="#222222"/>
<rect x="84" y="231" width="21" height="21" fill="#222222"/>
<rect x="105" y="231" width="21" height="21" fill="#222222"/>
<rect x="126" y="231" width="21" height="21" fill="#222222"/>
<rect x="147" y="231" width="21" height="21" fill="#222222"/>
<rect x="168" y="231" width="21" height="21" fill="#222222"/>
<rect x="189" y="231" width="21" height="21" fill="#222222"/>
<rect x="210" y="231" width="21" height="21" fill="#222222"/>
<rect x="231" y="231" width="21" height="21" fill="#222222"/>
<rect x="252" y="231" width="21" height="21" fill="#222222"/>
<rect x="273" y="231" width="21" height="21" fill="#222222"/>
<rect x="294" y="231" width="21" height="21" fill="#222222"/>
<rect x="315" y="231" width="21" height="21" fill="#222222"/>
<rect x="336" y="231" width="21" height="21" fill="#222222"/>
<rect y="252" width="21" height="21" fill="#222222"/>
<rect x="21" y="252" width="21" height="21" fill="#222222"/>
<rect x="42" y="252" width="21" height="21" fill="#222222"/>
<rect x="63" y="252" width="21" height="21" fill="#222222"/>
<rect x="84" y="252" width="21" height="21" fill="#222222"/>
<rect x="105" y="252" width="21" height="21" fill="#222222"/>
<rect x="126" y="252" width="21" height="21" fill="#222222"/>
<rect x="147" y="252" width="21" height="21" fill="#222222"/>
<rect x="168" y="252" width="21" height="21" fill="#222222"/>
<rect x="189" y="252" width="21" height="21" fill="#222222"/>
<rect x="210" y="252" width="21" height="21" fill="#222222"/>
<rect x="231" y="252" width="21" height="21" fill="#222222"/>
<rect x="252" y="252" width="21" height="21" fill="#222222"/>
<rect x="273" y="252" width="21" height="21" fill="#222222"/>
<rect x="294" y="252" width="21" height="21" fill="#222222"/>
<rect x="315" y="252" width="21" height="21" fill="#222222"/>
<rect x="336" y="252" width="21" height="21" fill="#222222"/>
<rect x="357" y="252" width="21" height="21" fill="#202020"/>
<rect y="273" width="21" height="21" fill="#222222"/>
<rect x="21" y="273" width="21" height="21" fill="#222222"/>
<rect x="42" y="273" width="21" height="21" fill="#222222"/>
<rect x="63" y="273" width="21" height="21" fill="#222222"/>
<rect x="84" y="273" width="21" height="21" fill="#222222"/>
<rect x="105" y="273" width="21" height="21" fill="#222222"/>
<rect x="126" y="273" width="21" height="21" fill="#222222"/>
<rect x="147" y="273" width="21" height="21" fill="#222222"/>
<rect x="168" y="273" width="21" height="21" fill="#222222"/>
<rect x="189" y="273" width="21" height="21" fill="#222222"/>
<rect x="210" y="273" width="21" height="21" fill="#222222"/>
<rect x="231" y="273" width="21" height="21" fill="#222222"/>
<rect x="252" y="273" width="21" height="21" fill="#222222"/>
<rect x="273" y="273" width="21" height="21" fill="#222222"/>
<rect x="294" y="273" width="21" height="21" fill="#222222"/>
<rect x="315" y="273" width="21" height="21" fill="#222222"/>
<rect x="336" y="273" width="21" height="21" fill="#222222"/>
<rect x="357" y="273" width="21" height="21" fill="#202020"/>
<rect y="294" width="21" height="21" fill="#222222"/>
<rect x="21" y="294" width="21" height="21" fill="#222222"/>
<rect x="42" y="294" width="21" height="21" fill="#222222"/>
<rect x="63" y="294" width="21" height="21" fill="#222222"/>
<rect x="84" y="294" width="21" height="21" fill="#222222"/>
<rect x="105" y="294" width="21" height="21" fill="#222222"/>
<rect x="126" y="294" width="21" height="21" fill="#222222"/>
<rect x="147" y="294" width="21" height="21" fill="#222222"/>
<rect x="168" y="294" width="21" height="21" fill="#222222"/>
<rect x="189" y="294" width="21" height="21" fill="#222222"/>
<rect x="210" y="294" width="21" height="21" fill="#222222"/>
<rect x="231" y="294" width="21" height="21" fill="#222222"/>
<rect x="252" y="294" width="21" height="21" fill="#222222"/>
<rect x="273" y="294" width="21" height="21" fill="#222222"/>
<rect x="294" y="294" width="21" height="21" fill="#222222"/>
<rect x="315" y="294" width="21" height="21" fill="#222222"/>
<rect x="336" y="294" width="21" height="21" fill="#222222"/>
<rect x="357" y="294" width="21" height="21" fill="#202020"/>
<rect y="315" width="21" height="21" fill="#222222"/>
<rect x="21" y="315" width="21" height="21" fill="#222222"/>
<rect x="42" y="315" width="21" height="21" fill="#222222"/>
<rect x="63" y="315" width="21" height="21" fill="#222222"/>
<rect x="84" y="315" width="21" height="21" fill="#222222"/>
<rect x="105" y="315" width="21" height="21" fill="#222222"/>
<rect x="126" y="315" width="21" height="21" fill="#202020"/>
<rect x="231" y="315" width="21" height="21" fill="#222222"/>
<rect x="252" y="315" width="21" height="21" fill="#222222"/>
<rect x="273" y="315" width="21" height="21" fill="#222222"/>
<rect x="294" y="315" width="21" height="21" fill="#222222"/>
<rect x="315" y="315" width="21" height="21" fill="#222222"/>
<rect x="336" y="315" width="21" height="21" fill="#222222"/>
<rect x="357" y="315" width="21" height="21" fill="#222222"/>
<rect y="336" width="21" height="21" fill="#222222"/>
<rect x="21" y="336" width="21" height="21" fill="#222222"/>
<rect x="42" y="336" width="21" height="21" fill="#222222"/>
<rect x="63" y="336" width="21" height="21" fill="#222222"/>
<rect x="84" y="336" width="21" height="21" fill="#222222"/>
<rect x="273" y="336" width="21" height="21" fill="#222222"/>
<rect x="294" y="336" width="21" height="21" fill="#222222"/>
<rect x="315" y="336" width="21" height="21" fill="#222222"/>
<rect x="336" y="336" width="21" height="21" fill="#222222"/>
<rect x="357" y="336" width="21" height="21" fill="#212121"/>
<rect y="357" width="21" height="21" fill="#222222"/>
<rect x="21" y="357" width="21" height="21" fill="#222222"/>
<rect x="42" y="357" width="21" height="21" fill="#222222"/>
<rect x="63" y="357" width="21" height="21" fill="#222222"/>
<rect x="294" y="357" width="21" height="21" fill="#222222"/>
<rect x="315" y="357" width="21" height="21" fill="#222222"/>
<rect x="336" y="357" width="21" height="21" fill="#222222"/>
<rect x="357" y="357" width="21" height="21" fill="#222222"/>
<rect y="378" width="21" height="21" fill="#222222"/>
<rect x="21" y="378" width="21" height="21" fill="#222222"/>
<rect x="42" y="378" width="21" height="21" fill="#222222"/>
<rect x="63" y="378" width="21" height="21" fill="#222222"/>
<rect x="294" y="378" width="21" height="21" fill="#222222"/>
<rect x="315" y="378" width="21" height="21" fill="#222222"/>
<rect x="336" y="378" width="21" height="21" fill="#222222"/>
<rect x="357" y="378" width="21" height="21" fill="#222222"/>
<rect y="399" width="21" height="21" fill="#222222"/>
<rect x="21" y="399" width="21" height="21" fill="#222222"/>
<rect x="42" y="399" width="21" height="21" fill="#222222"/>
<rect x="294" y="399" width="21" height="21" fill="#222222"/>
<rect x="315" y="399" width="21" height="21" fill="#222222"/>
<rect x="336" y="399" width="21" height="21" fill="#222222"/>
<rect x="357" y="399" width="21" height="21" fill="#222222"/>
<rect y="420" width="21" height="21" fill="#222222"/>
<rect x="21" y="420" width="21" height="21" fill="#222222"/>
<rect x="42" y="420" width="21" height="21" fill="#222222"/>
<rect x="315" y="420" width="21" height="21" fill="#222222"/>
<rect x="336" y="420" width="21" height="21" fill="#222222"/>
<rect x="357" y="420" width="21" height="21" fill="#222222"/>
<rect y="441" width="21" height="21" fill="#222222"/>
<rect x="21" y="441" width="21" height="21" fill="#222222"/>
<rect x="42" y="441" width="21" height="21" fill="#222222"/>
<rect x="315" y="441" width="21" height="21" fill="#222222"/>
<rect x="336" y="441" width="21" height="21" fill="#222222"/>
<rect x="357" y="441" width="21" height="21" fill="#222222"/>
<rect y="462" width="21" height="21" fill="#222222"/>
<rect x="21" y="462" width="21" height="21" fill="#222222"/>
<rect x="42" y="462" width="21" height="21" fill="#222222"/>
<rect x="294" y="462" width="21" height="21" fill="#222222"/>
<rect x="315" y="462" width="21" height="21" fill="#222222"/>
<rect x="336" y="462" width="21" height="21" fill="#222222"/>
<rect x="357" y="462" width="21" height="21" fill="#222222"/>
<rect y="483" width="21" height="21" fill="#222222"/>
<rect x="21" y="483" width="21" height="21" fill="#222222"/>
<rect x="42" y="483" width="21" height="21" fill="#222222"/>
<rect x="63" y="483" width="21" height="21" fill="#222222"/>
<rect x="294" y="483" width="21" height="21" fill="#222222"/>
<rect x="315" y="483" width="21" height="21" fill="#222222"/>
<rect x="336" y="483" width="21" height="21" fill="#222222"/>
<rect x="357" y="483" width="21" height="21" fill="#222222"/>
<rect y="504" width="21" height="21" fill="#222222"/>
<rect x="21" y="504" width="21" height="21" fill="#222222"/>
<rect x="42" y="504" width="21" height="21" fill="#222222"/>
<rect x="63" y="504" width="21" height="21" fill="#222222"/>
<rect x="84" y="504" width="21" height="21" fill="#222222"/>
<rect x="273" y="504" width="21" height="21" fill="#222222"/>
<rect x="294" y="504" width="21" height="21" fill="#222222"/>
<rect x="315" y="504" width="21" height="21" fill="#222222"/>
<rect x="336" y="504" width="21" height="21" fill="#222222"/>
<rect x="357" y="504" width="21" height="21" fill="#222222"/>
<rect y="525" width="21" height="21" fill="#222222"/>
<rect x="21" y="525" width="21" height="21" fill="#222222"/>
<rect x="42" y="525" width="21" height="21" fill="#222222"/>
<rect x="63" y="525" width="21" height="21" fill="#222222"/>
<rect x="84" y="525" width="21" height="21" fill="#222222"/>
<rect x="105" y="525" width="21" height="21" fill="#222222"/>
<rect x="252" y="525" width="21" height="21" fill="#222222"/>
<rect x="273" y="525" width="21" height="21" fill="#222222"/>
<rect x="294" y="525" width="21" height="21" fill="#222222"/>
<rect x="315" y="525" width="21" height="21" fill="#222222"/>
<rect x="336" y="525" width="21" height="21" fill="#222222"/>
<rect x="21" y="546" width="21" height="21" fill="#222222"/>
<rect x="42" y="546" width="21" height="21" fill="#222222"/>
<rect x="63" y="546" width="21" height="21" fill="#222222"/>
<rect x="84" y="546" width="21" height="21" fill="#222222"/>
<rect x="105" y="546" width="21" height="21" fill="#222222"/>
<rect x="126" y="546" width="21" height="21" fill="#222222"/>
<rect x="147" y="546" width="21" height="21" fill="#222222"/>
<rect x="168" y="546" width="21" height="21" fill="#222222"/>
<rect x="189" y="546" width="21" height="21" fill="#222222"/>
<rect x="210" y="546" width="21" height="21" fill="#222222"/>
<rect x="231" y="546" width="21" height="21" fill="#222222"/>
<rect x="252" y="546" width="21" height="21" fill="#222222"/>
<rect x="273" y="546" width="21" height="21" fill="#222222"/>
<rect x="294" y="546" width="21" height="21" fill="#222222"/>
<rect x="315" y="546" width="21" height="21" fill="#222222"/>
<rect x="336" y="546" width="21" height="21" fill="#222222"/>
<rect x="21" y="567" width="21" height="21" fill="#222222"/>
<rect x="42" y="567" width="21" height="21" fill="#222222"/>
<rect x="63" y="567" width="21" height="21" fill="#222222"/>
<rect x="84" y="567" width="21" height="21" fill="#222222"/>
<rect x="105" y="567" width="21" height="21" fill="#222222"/>
<rect x="126" y="567" width="21" height="21" fill="#222222"/>
<rect x="147" y="567" width="21" height="21" fill="#222222"/>
<rect x="168" y="567" width="21" height="21" fill="#222222"/>
<rect x="189" y="567" width="21" height="21" fill="#222222"/>
<rect x="210" y="567" width="21" height="21" fill="#222222"/>
<rect x="231" y="567" width="21" height="21" fill="#222222"/>
<rect x="252" y="567" width="21" height="21" fill="#222222"/>
<rect x="273" y="567" width="21" height="21" fill="#222222"/>
<rect x="294" y="567" width="21" height="21" fill="#222222"/>
<rect x="315" y="567" width="21" height="21" fill="#222222"/>
<rect x="336" y="567" width="21" height="21" fill="#222222"/>
<rect x="42" y="588" width="21" height="21" fill="#222222"/>
<rect x="63" y="588" width="21" height="21" fill="#222222"/>
<rect x="84" y="588" width="21" height="21" fill="#222222"/>
<rect x="105" y="588" width="21" height="21" fill="#222222"/>
<rect x="126" y="588" width="21" height="21" fill="#222222"/>
<rect x="147" y="588" width="21" height="21" fill="#222222"/>
<rect x="168" y="588" width="21" height="21" fill="#222222"/>
<rect x="189" y="588" width="21" height="21" fill="#222222"/>
<rect x="210" y="588" width="21" height="21" fill="#222222"/>
<rect x="231" y="588" width="21" height="21" fill="#222222"/>
<rect x="252" y="588" width="21" height="21" fill="#222222"/>
<rect x="273" y="588" width="21" height="21" fill="#222222"/>
<rect x="294" y="588" width="21" height="21" fill="#222222"/>
<rect x="315" y="588" width="21" height="21" fill="#222222"/>
</svg>
