<svg width="253" height="505" viewBox="0 0 253 505" fill="none" xmlns="http://www.w3.org/2000/svg">
<rect x="0.87793" y="0.42334" width="21" height="21" fill="#202020"/>
<rect x="21.8779" y="0.42334" width="21" height="21" fill="#202020"/>
<rect x="42.8779" y="0.42334" width="21" height="21" fill="#202020"/>
<rect x="63.8779" y="0.42334" width="21" height="21" fill="#202020"/>
<rect x="84.8779" y="0.42334" width="21" height="21" fill="#202020"/>
<rect x="105.878" y="0.42334" width="21" height="21" fill="#202020"/>
<rect x="126.878" y="0.42334" width="21" height="21" fill="#202020"/>
<rect x="147.878" y="0.42334" width="21" height="21" fill="#202020"/>
<rect x="168.878" y="0.42334" width="21" height="21" fill="#202020"/>
<rect x="189.878" y="0.42334" width="21" height="21" fill="#202020"/>
<rect x="210.878" y="0.42334" width="21" height="21" fill="#202020"/>
<rect x="231.878" y="0.42334" width="21" height="21" fill="#202020"/>
<rect x="0.87793" y="21.4233" width="21" height="21" fill="#222222"/>
<rect x="21.8779" y="21.4233" width="21" height="21" fill="#222222"/>
<rect x="42.8779" y="21.4233" width="21" height="21" fill="#222222"/>
<rect x="63.8779" y="21.4233" width="21" height="21" fill="#222222"/>
<rect x="84.8779" y="21.4233" width="21" height="21" fill="#222222"/>
<rect x="105.878" y="21.4233" width="21" height="21" fill="#222222"/>
<rect x="126.878" y="21.4233" width="21" height="21" fill="#222222"/>
<rect x="147.878" y="21.4233" width="21" height="21" fill="#222222"/>
<rect x="168.878" y="21.4233" width="21" height="21" fill="#222222"/>
<rect x="189.878" y="21.4233" width="21" height="21" fill="#222222"/>
<rect x="210.878" y="21.4233" width="21" height="21" fill="#222222"/>
<rect x="231.878" y="21.4233" width="21" height="21" fill="#222222"/>
<rect x="0.87793" y="42.4233" width="21" height="21" fill="#222222"/>
<rect x="21.8779" y="42.4233" width="21" height="21" fill="#222222"/>
<rect x="210.878" y="42.4233" width="21" height="21" fill="#222222"/>
<rect x="231.878" y="42.4233" width="21" height="21" fill="#222222"/>
<rect x="0.87793" y="63.4233" width="21" height="21" fill="#222222"/>
<rect x="21.8779" y="63.4233" width="21" height="21" fill="#222222"/>
<rect x="210.878" y="63.4233" width="21" height="21" fill="#222222"/>
<rect x="231.878" y="63.4233" width="21" height="21" fill="#222222"/>
<rect x="0.87793" y="84.4233" width="21" height="21" fill="#222222"/>
<rect x="21.8779" y="84.4233" width="21" height="21" fill="#222222"/>
<rect x="210.878" y="84.4233" width="21" height="21" fill="#222222"/>
<rect x="231.878" y="84.4233" width="21" height="21" fill="#222222"/>
<rect x="0.87793" y="105.423" width="21" height="21" fill="#222222"/>
<rect x="21.8779" y="105.423" width="21" height="21" fill="#222222"/>
<rect x="210.878" y="105.423" width="21" height="21" fill="#222222"/>
<rect x="231.878" y="105.423" width="21" height="21" fill="#222222"/>
<rect x="0.87793" y="126.423" width="21" height="21" fill="#222222"/>
<rect x="21.8779" y="126.423" width="21" height="21" fill="#222222"/>
<rect x="210.878" y="126.423" width="21" height="21" fill="#222222"/>
<rect x="231.878" y="126.423" width="21" height="21" fill="#222222"/>
<rect x="0.87793" y="147.423" width="21" height="21" fill="#222222"/>
<rect x="21.8779" y="147.423" width="21" height="21" fill="#222222"/>
<rect x="210.878" y="147.423" width="21" height="21" fill="#222222"/>
<rect x="231.878" y="147.423" width="21" height="21" fill="#222222"/>
<rect x="0.87793" y="168.423" width="21" height="21" fill="#222222"/>
<rect x="21.8779" y="168.423" width="21" height="21" fill="#222222"/>
<rect x="42.8779" y="168.423" width="21" height="21" fill="#222222"/>
<rect x="63.8779" y="168.423" width="21" height="21" fill="#222222"/>
<rect x="84.8779" y="168.423" width="21" height="21" fill="#222222"/>
<rect x="105.878" y="168.423" width="21" height="21" fill="#222222"/>
<rect x="126.878" y="168.423" width="21" height="21" fill="#222222"/>
<rect x="147.878" y="168.423" width="21" height="21" fill="#222222"/>
<rect x="168.878" y="168.423" width="21" height="21" fill="#222222"/>
<rect x="189.878" y="168.423" width="21" height="21" fill="#222222"/>
<rect x="210.878" y="168.423" width="21" height="21" fill="#222222"/>
<rect x="231.878" y="168.423" width="21" height="21" fill="#222222"/>
<rect x="0.87793" y="189.423" width="21" height="21" fill="#222222"/>
<rect x="21.8779" y="189.423" width="21" height="21" fill="#222222"/>
<rect x="42.8779" y="189.423" width="21" height="21" fill="#222222"/>
<rect x="63.8779" y="189.423" width="21" height="21" fill="#222222"/>
<rect x="84.8779" y="189.423" width="21" height="21" fill="#222222"/>
<rect x="105.878" y="189.423" width="21" height="21" fill="#222222"/>
<rect x="126.878" y="189.423" width="21" height="21" fill="#222222"/>
<rect x="147.878" y="189.423" width="21" height="21" fill="#222222"/>
<rect x="168.878" y="189.423" width="21" height="21" fill="#222222"/>
<rect x="189.878" y="189.423" width="21" height="21" fill="#222222"/>
<rect x="210.878" y="189.423" width="21" height="21" fill="#222222"/>
<rect x="231.878" y="189.423" width="21" height="21" fill="#222222"/>
<rect x="0.87793" y="210.423" width="21" height="21" fill="#222222"/>
<rect x="21.8779" y="210.423" width="21" height="21" fill="#222222"/>
<rect x="42.8779" y="210.423" width="21" height="21" fill="#222222"/>
<rect x="63.8779" y="210.423" width="21" height="21" fill="#222222"/>
<rect x="84.8779" y="210.423" width="21" height="21" fill="#222222"/>
<rect x="105.878" y="210.423" width="21" height="21" fill="#222222"/>
<rect x="126.878" y="210.423" width="21" height="21" fill="#222222"/>
<rect x="147.878" y="210.423" width="21" height="21" fill="#222222"/>
<rect x="168.878" y="210.423" width="21" height="21" fill="#222222"/>
<rect x="189.878" y="210.423" width="21" height="21" fill="#222222"/>
<rect x="210.878" y="210.423" width="21" height="21" fill="#222222"/>
<rect x="231.878" y="210.423" width="21" height="21" fill="#222222"/>
<rect x="0.87793" y="231.423" width="21" height="21" fill="#222222"/>
<rect x="21.8779" y="231.423" width="21" height="21" fill="#222222"/>
<rect x="42.8779" y="231.423" width="21" height="21" fill="#222222"/>
<rect x="63.8779" y="231.423" width="21" height="21" fill="#222222"/>
<rect x="84.8779" y="231.423" width="21" height="21" fill="#222222"/>
<rect x="105.878" y="231.423" width="21" height="21" fill="#222222"/>
<rect x="126.878" y="231.423" width="21" height="21" fill="#222222"/>
<rect x="147.878" y="231.423" width="21" height="21" fill="#222222"/>
<rect x="168.878" y="231.423" width="21" height="21" fill="#222222"/>
<rect x="189.878" y="231.423" width="21" height="21" fill="#222222"/>
<rect x="210.878" y="231.423" width="21" height="21" fill="#222222"/>
<rect x="231.878" y="231.423" width="21" height="21" fill="#222222"/>
<rect x="0.87793" y="252.423" width="21" height="21" fill="#222222"/>
<rect x="21.8779" y="252.423" width="21" height="21" fill="#222222"/>
<rect x="42.8779" y="252.423" width="21" height="21" fill="#222222"/>
<rect x="63.8779" y="252.423" width="21" height="21" fill="#222222"/>
<rect x="168.878" y="252.423" width="21" height="21" fill="#222222"/>
<rect x="189.878" y="252.423" width="21" height="21" fill="#222222"/>
<rect x="210.878" y="252.423" width="21" height="21" fill="#222222"/>
<rect x="231.878" y="252.423" width="21" height="21" fill="#222222"/>
<rect x="0.87793" y="273.423" width="21" height="21" fill="#222222"/>
<rect x="21.8779" y="273.423" width="21" height="21" fill="#222222"/>
<rect x="42.8779" y="273.423" width="21" height="21" fill="#222222"/>
<rect x="189.878" y="273.423" width="21" height="21" fill="#222222"/>
<rect x="210.878" y="273.423" width="21" height="21" fill="#222222"/>
<rect x="231.878" y="273.423" width="21" height="21" fill="#222222"/>
<rect x="0.87793" y="294.423" width="21" height="21" fill="#222222"/>
<rect x="21.8779" y="294.423" width="21" height="21" fill="#222222"/>
<rect x="210.878" y="294.423" width="21" height="21" fill="#222222"/>
<rect x="231.878" y="294.423" width="21" height="21" fill="#222222"/>
<rect x="0.87793" y="315.423" width="21" height="21" fill="#222222"/>
<rect x="21.8779" y="315.423" width="21" height="21" fill="#222222"/>
<rect x="210.878" y="315.423" width="21" height="21" fill="#222222"/>
<rect x="231.878" y="315.423" width="21" height="21" fill="#222222"/>
<rect x="0.87793" y="336.423" width="21" height="21" fill="#222222"/>
<rect x="21.8779" y="336.423" width="21" height="21" fill="#222222"/>
<rect x="210.878" y="336.423" width="21" height="21" fill="#222222"/>
<rect x="231.878" y="336.423" width="21" height="21" fill="#222222"/>
<rect x="0.87793" y="357.423" width="21" height="21" fill="#222222"/>
<rect x="21.8779" y="357.423" width="21" height="21" fill="#222222"/>
<rect x="210.878" y="357.423" width="21" height="21" fill="#222222"/>
<rect x="231.878" y="357.423" width="21" height="21" fill="#222222"/>
<rect x="0.87793" y="378.423" width="21" height="21" fill="#222222"/>
<rect x="21.8779" y="378.423" width="21" height="21" fill="#222222"/>
<rect x="42.8779" y="378.423" width="21" height="21" fill="#222222"/>
<rect x="189.878" y="378.423" width="21" height="21" fill="#222222"/>
<rect x="210.878" y="378.423" width="21" height="21" fill="#222222"/>
<rect x="231.878" y="378.423" width="21" height="21" fill="#222222"/>
<rect x="0.87793" y="399.423" width="21" height="21" fill="#222222"/>
<rect x="21.8779" y="399.423" width="21" height="21" fill="#222222"/>
<rect x="42.8779" y="399.423" width="21" height="21" fill="#222222"/>
<rect x="63.8779" y="399.423" width="21" height="21" fill="#222222"/>
<rect x="168.878" y="399.423" width="21" height="21" fill="#222222"/>
<rect x="189.878" y="399.423" width="21" height="21" fill="#222222"/>
<rect x="210.878" y="399.423" width="21" height="21" fill="#222222"/>
<rect x="231.878" y="399.423" width="21" height="21" fill="#222222"/>
<rect x="0.87793" y="420.423" width="21" height="21" fill="#222222"/>
<rect x="21.8779" y="420.423" width="21" height="21" fill="#222222"/>
<rect x="42.8779" y="420.423" width="21" height="21" fill="#222222"/>
<rect x="63.8779" y="420.423" width="21" height="21" fill="#222222"/>
<rect x="84.8779" y="420.423" width="21" height="21" fill="#222222"/>
<rect x="105.878" y="420.423" width="21" height="21" fill="#222222"/>
<rect x="126.878" y="420.423" width="21" height="21" fill="#222222"/>
<rect x="147.878" y="420.423" width="21" height="21" fill="#222222"/>
<rect x="168.878" y="420.423" width="21" height="21" fill="#222222"/>
<rect x="189.878" y="420.423" width="21" height="21" fill="#222222"/>
<rect x="210.878" y="420.423" width="21" height="21" fill="#222222"/>
<rect x="231.878" y="420.423" width="21" height="21" fill="#222222"/>
<rect x="0.87793" y="441.423" width="21" height="21" fill="#222222"/>
<rect x="21.8779" y="441.423" width="21" height="21" fill="#222222"/>
<rect x="42.8779" y="441.423" width="21" height="21" fill="#222222"/>
<rect x="63.8779" y="441.423" width="21" height="21" fill="#222222"/>
<rect x="84.8779" y="441.423" width="21" height="21" fill="#222222"/>
<rect x="105.878" y="441.423" width="21" height="21" fill="#222222"/>
<rect x="126.878" y="441.423" width="21" height="21" fill="#222222"/>
<rect x="147.878" y="441.423" width="21" height="21" fill="#222222"/>
<rect x="168.878" y="441.423" width="21" height="21" fill="#222222"/>
<rect x="189.878" y="441.423" width="21" height="21" fill="#222222"/>
<rect x="210.878" y="441.423" width="21" height="21" fill="#222222"/>
<rect x="231.878" y="441.423" width="21" height="21" fill="#222222"/>
<rect x="0.87793" y="462.423" width="21" height="21" fill="#222222"/>
<rect x="63.8779" y="462.423" width="21" height="21" fill="#222222"/>
<rect x="105.878" y="462.423" width="21" height="21" fill="#212121"/>
<rect x="126.878" y="462.423" width="21" height="21" fill="#222222"/>
<rect x="168.878" y="462.423" width="21" height="21" fill="#222222"/>
<rect x="231.878" y="462.423" width="21" height="21" fill="#222222"/>
<rect x="0.87793" y="483.423" width="21" height="21" fill="#222222"/>
<rect x="21.8779" y="483.423" width="21" height="21" fill="#222222"/>
<rect x="42.8779" y="483.423" width="21" height="21" fill="#222222"/>
<rect x="63.8779" y="483.423" width="21" height="21" fill="#222222"/>
<rect x="84.8779" y="483.423" width="21" height="21" fill="#222222"/>
<rect x="105.878" y="483.423" width="21" height="21" fill="#222222"/>
<rect x="126.878" y="483.423" width="21" height="21" fill="#222222"/>
<rect x="147.878" y="483.423" width="21" height="21" fill="#222222"/>
<rect x="168.878" y="483.423" width="21" height="21" fill="#222222"/>
<rect x="189.878" y="483.423" width="21" height="21" fill="#222222"/>
<rect x="210.878" y="483.423" width="21" height="21" fill="#222222"/>
<rect x="231.878" y="483.423" width="21" height="21" fill="#222222"/>
</svg>
